<svg width="100%" height="100%" viewBox="0 0 48 48" fill="none" xmlns="http://www.w3.org/2000/svg">
<path d="M2 44.8095V31.6667C2 29.8413 2.64247 28.2897 3.92741 27.0119C5.21235 25.7341 6.77263 25.0952 8.60826 25.0952H13.0138C14.8494 25.0952 16.4097 24.4563 17.6946 23.1786C18.9796 21.9008 19.622 20.3492 19.622 18.5238C19.622 17.9032 19.4106 17.3833 18.9876 16.9642C18.5647 16.5451 18.0419 16.3348 17.4193 16.3333C16.2078 16.3333 15.171 15.9047 14.309 15.0475C13.447 14.1903 13.0152 13.1586 13.0138 11.9524V1H17.4193V11.9524C19.2549 11.9524 20.8152 12.5913 22.1001 13.869C23.3851 15.1468 24.0275 16.6984 24.0275 18.5238C24.0275 21.554 22.9533 24.1373 20.8049 26.2737C18.6565 28.4102 16.0594 29.4777 13.0138 29.4762H8.60826C7.98415 29.4762 7.46136 29.6865 7.0399 30.107C6.61844 30.5276 6.40698 31.0475 6.40551 31.6667V44.8095H2ZM24.0275 18.5238C24.0275 21.554 22.9533 24.1373 20.8049 26.2737C18.6565 28.4102 16.0594 29.4777 13.0138 29.4762C16.0609 29.4762 18.6587 28.408 20.8071 26.2715C22.9555 24.1351 24.029 21.5525 24.0275 18.5238ZM41.6496 24.0548C41.0254 23.4706 40.3463 22.969 39.612 22.5499C38.8778 22.1308 38.0884 21.7745 37.2441 21.481V20.7143C37.2441 17.6841 36.1698 15.1016 34.0214 12.9666C31.873 10.8316 29.276 9.76336 26.2303 9.7619C25.0188 9.7619 23.982 9.3333 23.12 8.4761C22.258 7.61889 21.8262 6.58717 21.8248 5.38095V1H26.2303V5.38095C30.5257 5.38095 34.1697 6.86902 37.1625 9.84514C40.1554 12.8213 41.651 16.4443 41.6496 20.7143V24.0548ZM10.811 44.8095V40.4286C10.811 38.6032 11.4535 37.0516 12.7384 35.7738C14.0234 34.496 15.5836 33.8571 17.4193 33.8571H19.622C19.622 34.6238 19.6866 35.3722 19.8159 36.1024C19.9451 36.8325 20.1375 37.5444 20.393 38.2381H17.4193C16.7952 38.2381 16.2724 38.4484 15.8509 38.869C15.4295 39.2895 15.218 39.8094 15.2165 40.4286V44.8095H10.811ZM32.8385 38.2381C34.0501 38.2381 35.0876 37.8095 35.951 36.9523C36.8145 36.0951 37.2455 35.0634 37.2441 33.8571C37.2426 32.6509 36.8116 31.6199 35.951 30.7642C35.0905 29.9084 34.053 29.4791 32.8385 29.4762C31.6241 29.4733 30.5873 29.9026 29.7283 30.7642C28.8692 31.6258 28.4374 32.6568 28.433 33.8571C28.4286 35.0575 28.8604 36.0892 29.7283 36.9523C30.5961 37.8153 31.6329 38.2439 32.8385 38.2381ZM42.9161 47L37.2991 41.4143C36.6383 41.8159 35.9408 42.1174 35.2065 42.319C34.4723 42.5205 33.6829 42.6205 32.8385 42.619C30.4155 42.619 28.3413 41.7611 26.6158 40.0452C24.8903 38.3294 24.0275 36.2667 24.0275 33.8571C24.0275 31.4476 24.8903 29.3849 26.6158 27.669C28.3413 25.9532 30.4155 25.0952 32.8385 25.0952C35.2616 25.0952 37.3358 25.9532 39.0613 27.669C40.7868 29.3849 41.6496 31.4476 41.6496 33.8571C41.6496 34.6968 41.5394 35.4912 41.3191 36.2404C41.0989 36.9895 40.7868 37.6919 40.383 38.3476L46 43.9333L42.9161 47Z" fill="#A6DB4B"/>
<path d="M32.8385 38.2381C34.0501 38.2381 35.0876 37.8095 35.951 36.9523C36.8145 36.0951 37.2455 35.0634 37.2441 33.8571C37.2426 32.6509 36.8116 31.6199 35.951 30.7642C35.0905 29.9084 34.053 29.4791 32.8385 29.4762C31.6241 29.4733 30.5873 29.9026 29.7283 30.7642C28.8692 31.6258 28.4374 32.6568 28.433 33.8571C28.4286 35.0575 28.8604 36.0892 29.7283 36.9523C30.5961 37.8153 31.6329 38.2439 32.8385 38.2381Z" fill="#F9FEF0"/>
</svg>
