<svg width="100%" height="100%" viewBox="0 0 48 48" fill="none" xmlns="http://www.w3.org/2000/svg">
<g clip-path="url(#clip0_0_111)">
<path d="M19.4086 38.6293C20.3277 38.6293 21.1091 38.3024 21.7529 37.6485C22.395 36.9965 22.716 36.2039 22.716 35.2706C22.716 33.1175 22.0898 31.2008 20.8374 29.5206C19.5833 27.8421 18.0045 26.4593 16.1012 25.372V35.2706C16.1012 36.2039 16.4231 36.9974 17.067 37.6512C17.7091 38.3032 18.4896 38.6293 19.4086 38.6293ZM28.6694 38.6293C29.5884 38.6293 30.3699 38.3024 31.0137 37.6485C31.6558 36.9965 31.9768 36.2039 31.9768 35.2706V25.372C30.0735 26.4593 28.4948 27.8421 27.2406 29.5206C25.9882 31.2008 25.362 33.1175 25.362 35.2706C25.362 36.2039 25.6839 36.9974 26.3278 37.6512C26.9698 38.3032 27.7504 38.6293 28.6694 38.6293ZM5.7212 35.5393V9.94092C4.62226 8.94317 3.60357 7.83974 2.66514 6.63062C1.72672 5.4215 0.886194 4.13626 0.143568 2.77488C-0.0292996 2.45782 -0.0460573 2.13539 0.0932954 1.80758C0.232648 1.47799 0.462844 1.24781 0.783885 1.11704C1.1402 0.986279 1.49652 0.988966 1.85284 1.1251C2.20916 1.26303 2.47905 1.50844 2.6625 1.86132C4.87097 5.75916 7.86529 8.86615 11.6455 11.1823C15.4274 13.4966 19.5586 14.6538 24.039 14.6538C28.4666 14.6538 32.5519 13.5244 36.295 11.2656C40.0381 9.00497 43.0192 5.96247 45.2383 2.13808C45.4746 1.73145 45.7736 1.41529 46.1352 1.18959C46.4968 0.963888 46.8832 0.939705 47.2942 1.11704C47.6258 1.25676 47.8427 1.51292 47.9451 1.8855C48.0474 2.25809 48.0068 2.60739 47.8233 2.93341C47.0895 4.27508 46.2675 5.53077 45.3573 6.70048C44.4471 7.87198 43.447 8.95213 42.3568 9.94092V35.5393C42.3568 37.3485 42.7802 39.0171 43.6269 40.545C44.4736 42.073 45.6202 43.3135 47.0666 44.2664C47.37 44.4527 47.5817 44.7268 47.7016 45.0886C47.8181 45.4505 47.8181 45.8123 47.7016 46.1742C47.5817 46.5109 47.3682 46.7527 47.0613 46.8996C46.7544 47.0465 46.4448 47.0322 46.1326 46.8566C44.1693 45.7048 42.6082 44.1276 41.4493 42.125C40.2904 40.1223 39.7109 37.9271 39.7109 35.5393V12.163C37.4407 13.8002 34.98 15.0721 32.3287 15.9784C29.6793 16.8866 26.916 17.3407 24.039 17.3407C21.162 17.3407 18.3961 16.8866 15.7414 15.9784C13.0866 15.0703 10.6285 13.7985 8.36714 12.163V35.5393C8.36714 37.9271 7.78503 40.1223 6.62082 42.125C5.45661 44.1276 3.8761 45.7039 1.8793 46.854C1.56708 47.0313 1.26015 47.0465 0.958516 46.8996C0.65688 46.7527 0.446969 46.5109 0.328784 46.1742C0.208835 45.8123 0.208835 45.4505 0.328784 45.0886C0.446969 44.7268 0.65688 44.4527 0.958516 44.2664C2.40673 43.3224 3.56212 42.0847 4.42469 40.5531C5.28903 39.0198 5.7212 37.3485 5.7212 35.5393ZM19.4086 41.3162C17.747 41.3162 16.3393 40.7304 15.1857 39.5589C14.0321 38.3874 13.4553 36.958 13.4553 35.2706V23.1848C13.4553 22.7549 13.6158 22.4154 13.9368 22.1664C14.2579 21.9175 14.6248 21.8664 15.0375 22.0133L15.7043 22.2282C17.597 22.8928 19.2516 23.8932 20.6681 25.2295C22.0846 26.5641 23.2082 28.0822 24.039 29.7839C24.8363 28.0822 25.952 26.5891 27.3861 25.3048C28.8185 24.0222 30.481 22.9967 32.3737 22.2282L33.0405 22.0133C33.455 21.8682 33.8219 21.9192 34.1412 22.1664C34.4605 22.4136 34.621 22.7531 34.6228 23.1848V35.2706C34.6228 36.958 34.0459 38.3874 32.8923 39.5589C31.7387 40.7304 30.3311 41.3162 28.6694 41.3162C27.7222 41.3162 26.8481 41.1084 26.0473 40.6928C25.2447 40.2772 24.5753 39.7219 24.039 39.0269C23.5028 39.7237 22.8334 40.279 22.0308 40.6928C21.2299 41.1084 20.3559 41.3162 19.4086 41.3162Z" fill="#A6DB4B"/>
<path d="M19.4086 38.6293C20.3277 38.6293 21.1091 38.3024 21.7529 37.6485C22.395 36.9965 22.716 36.2039 22.716 35.2706C22.716 33.1175 22.0898 31.2008 20.8374 29.5206C19.5833 27.8421 18.0045 26.4593 16.1012 25.372V35.2706C16.1012 36.2039 16.4231 36.9974 17.067 37.6512C17.7091 38.3032 18.4896 38.6293 19.4086 38.6293Z" fill="#F9FEF0"/>
<path d="M28.6694 38.6293C29.5884 38.6293 30.3699 38.3024 31.0137 37.6485C31.6558 36.9965 31.9768 36.2039 31.9768 35.2706V25.372C30.0735 26.4593 28.4948 27.8421 27.2406 29.5206C25.9882 31.2008 25.362 33.1175 25.362 35.2706C25.362 36.2039 25.6839 36.9974 26.3278 37.6512C26.9698 38.3032 27.7504 38.6293 28.6694 38.6293Z" fill="#F9FEF0"/>
<path d="M15.7872 21.9923L15.7871 21.9924C17.7118 22.6682 19.3969 23.6866 20.8395 25.0476C22.1514 26.2836 23.217 27.676 24.035 29.2242C24.8275 27.6784 25.8895 26.3096 27.2193 25.1185L27.2194 25.1185C28.6744 23.8156 30.3619 22.7752 32.2797 21.9966L32.2882 21.9931L32.297 21.9903L32.9609 21.7763C33.4459 21.6074 33.9021 21.6651 34.2943 21.9688C34.6791 22.2667 34.8707 22.6812 34.8728 23.1838L34.8728 23.1848L34.8728 35.2706C34.8728 37.0217 34.2715 38.5147 33.0704 39.7344C31.8693 40.9541 30.3972 41.5662 28.6694 41.5662C27.6842 41.5662 26.7705 41.3497 25.9323 40.9148L15.7872 21.9923ZM15.7872 21.9923L15.781 21.9903L15.1177 21.7764C14.6335 21.6053 14.1771 21.6637 13.7836 21.9689C13.3975 22.2683 13.2053 22.6828 13.2053 23.1848V35.2706C13.2053 37.0217 13.8066 38.5147 15.0076 39.7344C16.2088 40.9541 17.6808 41.5662 19.4086 41.5662C20.3938 41.5662 21.3075 41.3497 22.1456 40.9149M15.7872 21.9923L22.1456 40.9149M22.1456 40.9149C22.8841 40.5341 23.516 40.0368 24.0392 39.4236C24.5624 40.0353 25.194 40.5325 25.9321 40.9147L22.1456 40.9149ZM-0.0759268 2.89455L-0.0759018 2.8946C0.673053 4.26758 1.5209 5.56406 2.46765 6.7839C3.39133 7.97402 4.3925 9.06323 5.4712 10.0513V35.5393C5.4712 37.3067 5.04952 38.9355 4.20691 40.4303L4.20686 40.4304C3.36417 41.9267 2.23725 43.1339 0.824459 44.0554C0.47044 44.2749 0.226287 44.598 0.0914825 45.01C-0.0453984 45.4229 -0.0453984 45.8399 0.0914825 46.2528L0.0914465 46.2528L0.0928888 46.2569C0.231339 46.6515 0.484174 46.9467 0.849064 47.1244C1.23076 47.3103 1.62483 47.286 2.00277 47.0713L2.00407 47.0706C4.03897 45.8986 5.65089 44.2909 6.83695 42.2506C8.02405 40.2086 8.61714 37.9698 8.61714 35.5393V12.6472C10.7888 14.1623 13.1368 15.3516 15.6604 16.215C18.3419 17.1323 21.1352 17.5907 24.039 17.5907C26.9429 17.5907 29.7335 17.1323 32.4098 16.2149C34.9308 15.3531 37.2813 14.1635 39.4609 12.6465V35.5393C39.4609 37.9696 40.0512 40.2082 41.2329 42.2502C42.4131 44.2896 44.0049 45.8982 46.0061 47.0723L46.0061 47.0723L46.0101 47.0746C46.3889 47.2875 46.7844 47.3093 47.1692 47.1251C47.539 46.9482 47.7963 46.6535 47.9371 46.258L47.9372 46.2581L47.9396 46.2507C48.0721 45.8391 48.0721 45.4237 47.9396 45.0121L47.9389 45.01C47.8023 44.5978 47.5564 44.2749 47.2009 44.0556C45.79 43.1253 44.6722 41.9157 43.8456 40.4239C43.0202 38.9343 42.6068 37.3077 42.6068 35.5393V10.0514C43.676 9.07314 44.6586 8.00726 45.5547 6.85387C46.4731 5.67363 47.3022 4.40711 48.042 3.05455C48.2583 2.66945 48.3051 2.25255 48.1861 1.81931C48.0654 1.37949 47.7998 1.05917 47.3923 0.887134C46.9108 0.679621 46.4379 0.706005 46.0029 0.977509C45.6032 1.22693 45.2768 1.57431 45.0221 2.01244L45.022 2.01261C42.8238 5.80105 39.8725 8.81291 36.1658 11.0515C32.4622 13.2865 28.4216 14.4038 24.039 14.4038C19.6042 14.4038 15.5182 13.2591 11.7761 10.9691C8.03364 8.6761 5.06978 5.60149 2.88216 1.74187C2.67191 1.3396 2.35721 1.05227 1.94309 0.891961L1.94309 0.891959L1.94207 0.891568C1.52966 0.734002 1.11106 0.730672 0.697755 0.882348L0.697702 0.882203L0.689579 0.885512C0.305142 1.0421 0.0273319 1.32177 -0.136876 1.71001C-0.306488 2.10917 -0.284732 2.51158 -0.0759268 2.89455Z" stroke="#A6DB4B" stroke-width="0.5"/>
</g>
<defs>
<clipPath id="clip0_0_111">
<rect width="48" height="48" fill="white"/>
</clipPath>
</defs>
</svg>
