<svg width="100%" height="100%" viewBox="0 0 48 48" fill="none" xmlns="http://www.w3.org/2000/svg">
<g clip-path="url(#clip0_0_57)">
<path fill-rule="evenodd" clip-rule="evenodd" d="M44 2.66667H4C3.64638 2.66667 3.30724 2.80714 3.05719 3.05719C2.80714 3.30724 2.66667 3.64638 2.66667 4V44C2.66667 44.3536 2.80714 44.6928 3.05719 44.9428C3.30724 45.1929 3.64638 45.3333 4 45.3333H44C44.3536 45.3333 44.6928 45.1929 44.9428 44.9428C45.1929 44.6928 45.3333 44.3536 45.3333 44V4C45.3333 3.64638 45.1929 3.30724 44.9428 3.05719C44.6928 2.80714 44.3536 2.66667 44 2.66667ZM4 0C2.93913 0 1.92172 0.421427 1.17157 1.17157C0.421427 1.92172 0 2.93913 0 4V44C0 45.0609 0.421427 46.0783 1.17157 46.8284C1.92172 47.5786 2.93913 48 4 48H44C45.0609 48 46.0783 47.5786 46.8284 46.8284C47.5786 46.0783 48 45.0609 48 44V4C48 2.93913 47.5786 1.92172 46.8284 1.17157C46.0783 0.421427 45.0609 0 44 0H4Z" fill="#A6DB4B"/>
<path d="M44 2.66667H4C3.64638 2.66667 3.30724 2.80714 3.05719 3.05719C2.80714 3.30724 2.66667 3.64638 2.66667 4V44C2.66667 44.3536 2.80714 44.6928 3.05719 44.9428C3.30724 45.1929 3.64638 45.3333 4 45.3333H44C44.3536 45.3333 44.6928 45.1929 44.9428 44.9428C45.1929 44.6928 45.3333 44.3536 45.3333 44V4C45.3333 3.64638 45.1929 3.30724 44.9428 3.05719C44.6928 2.80714 44.3536 2.66667 44 2.66667Z" fill="#F9FEF0"/>
<path fill-rule="evenodd" clip-rule="evenodd" d="M11.2727 20.1429C10.9352 20.1429 10.6115 20.2783 10.3728 20.5194C10.1341 20.7606 10 21.0876 10 21.4286V40.7143C10 41.0553 10.1341 41.3823 10.3728 41.6234C10.6115 41.8645 10.9352 42 11.2727 42H17.6364C17.6364 41.2376 17.9724 40.551 18.3491 40.02C18.7672 39.4495 19.2679 38.9459 19.8344 38.526C20.701 37.8633 21.682 37.369 22.7273 37.068V33.1877H20.4364C18.9218 33.1877 17.4645 33.6994 16.3484 34.2497C15.7736 34.5343 15.221 34.8622 14.6951 35.2307L14.6124 35.2911L14.5958 35.304L13.8182 34.2857C13.5569 33.9483 13.2981 33.6088 13.0418 33.2674L13.0431 33.2661L13.0469 33.2623L13.0584 33.2546L13.094 33.2276C13.1237 33.2036 13.1648 33.1736 13.2175 33.1376C13.3227 33.0596 13.4703 32.9584 13.6604 32.8341C14.0358 32.5886 14.5742 32.2633 15.2335 31.938C16.5355 31.2964 18.3885 30.6176 20.4364 30.6176H22.7273V27.8571H21.3273C20.1818 27.8571 19.0898 28.1349 18.2651 28.428C17.8281 28.5815 17.4021 28.7649 16.9898 28.977L16.9809 28.9809L16.3636 27.8571L15.7464 26.7334L15.7476 26.7321L15.7515 26.7296L15.7616 26.7244L15.7896 26.709C15.9323 26.6305 16.078 26.5576 16.2262 26.4904C16.5151 26.3554 16.9224 26.178 17.4225 26.0019C18.4089 25.6496 19.8 25.2857 21.3273 25.2857H22.7273V22.7143H25.2727V25.2857H26.2909C27.6285 25.2857 29.11 25.6521 30.1918 25.9839C30.8303 26.1803 31.4604 26.4033 32.0805 26.6524L32.1124 26.6653L32.1213 26.6679L32.1251 26.6704L31.6364 27.8571L31.1476 29.0439L31.1425 29.0426L31.1222 29.0336C30.9767 28.9731 30.8299 28.9161 30.6818 28.8626C30.2766 28.7109 29.8671 28.5716 29.4536 28.4447C28.4355 28.1336 27.2442 27.8571 26.2909 27.8571H25.2727V30.6163H27.0545C28.8491 30.6163 30.8256 31.3003 32.2575 31.9097C33.113 32.2756 33.949 32.6863 34.7622 33.1401L34.8016 33.1633L34.8144 33.1697L34.8169 33.1723H34.8195L34.1818 34.2857L33.5442 35.3979L33.5378 35.3953L33.5085 35.3786L33.3876 35.3104C32.6987 34.9322 31.9919 34.5881 31.2698 34.2793C29.9016 33.6969 28.3158 33.1877 27.0545 33.1877H25.2727V37.0269C26.3227 37.2969 27.3358 37.8536 28.1364 38.4707C28.7076 38.9042 29.2134 39.4191 29.6382 39.9994C30.0162 40.5343 30.3636 41.2324 30.3636 42H36.7273C37.0648 42 37.3885 41.8645 37.6272 41.6234C37.8659 41.3823 38 41.0553 38 40.7143V21.4286C38 21.0876 37.8659 20.7606 37.6272 20.5194C37.3885 20.2783 37.0648 20.1429 36.7273 20.1429H11.2727ZM27.8182 42C27.8112 41.9552 27.7983 41.9115 27.78 41.8701C27.723 41.7368 27.6513 41.6105 27.5662 41.4934C27.289 41.1221 26.9607 40.7926 26.5913 40.515C25.7296 39.8503 24.7471 39.4453 24.0433 39.4286C23.2236 39.5006 22.2029 39.9429 21.3655 40.5806C21.0064 40.8454 20.6874 41.1615 20.4185 41.5191C20.3167 41.6631 20.2531 41.7827 20.2175 41.8727C20.1984 41.9128 20.1864 41.9558 20.1818 42H27.8182ZM29.7273 11.7857C29.7273 13.3202 29.1239 14.7918 28.0498 15.8768C26.9757 16.9619 25.519 17.5714 24 17.5714C22.481 17.5714 21.0243 16.9619 19.9502 15.8768C18.8761 14.7918 18.2727 13.3202 18.2727 11.7857C18.2727 10.2512 18.8761 8.77963 19.9502 7.6946C21.0243 6.60957 22.481 6 24 6C25.519 6 26.9757 6.60957 28.0498 7.6946C29.1239 8.77963 29.7273 10.2512 29.7273 11.7857Z" fill="#A6DB4B"/>
</g>
<defs>
<clipPath id="clip0_0_57">
<rect width="48" height="48" fill="white"/>
</clipPath>
</defs>
</svg>
