<svg width="100%" height="100%" viewBox="0 0 48 48" fill="none" xmlns="http://www.w3.org/2000/svg">
<g clip-path="url(#clip0_0_139)">
<mask id="path-1-outside-1_0_139" maskUnits="userSpaceOnUse" x="0" y="-1" width="48" height="50" fill="black">
<rect fill="white" y="-1" width="48" height="50"/>
<path fill-rule="evenodd" clip-rule="evenodd" d="M4.80352 2.97295C17.2874 -0.991848 30.7142 -0.990964 43.1976 2.97548C46.3706 3.98475 47.7724 7.45719 46.5763 10.3966L38.4464 30.3672L38.3569 30.587C38.0669 31.307 37.7436 32.1104 37.2477 32.7255C36.605 33.5264 35.7347 33.971 34.5489 34.0973C34.38 34.1191 34.2085 34.1074 34.0443 34.0627C33.8802 34.0181 33.7267 33.9415 33.5929 33.8374C33.4591 33.7333 33.3477 33.6038 33.2653 33.4566C33.1828 33.3094 33.131 33.1473 33.1127 32.98C33.0945 32.8127 33.1103 32.6434 33.1592 32.4822C33.208 32.321 33.289 32.1711 33.3973 32.0412C33.5056 31.9114 33.6391 31.8042 33.7899 31.7261C33.9407 31.6479 34.1057 31.6004 34.2754 31.5861C34.8837 31.5205 35.0894 31.3499 35.2466 31.1541C35.4983 30.8421 35.6849 30.3836 36.0529 29.4779L44.2058 9.45299C44.8984 7.74772 44.0486 5.89971 42.4155 5.38055C30.4407 1.57568 17.5609 1.5748 5.58559 5.37802C3.95245 5.89718 3.10138 7.74519 3.79527 9.45046L11.9482 29.4868C12.3137 30.3861 12.4989 30.8409 12.7481 31.1529C12.9053 31.3487 13.1098 31.5192 13.7193 31.5836C14.0564 31.62 14.365 31.7872 14.5773 32.0485C14.7897 32.3098 14.8883 32.6437 14.8515 32.9769C14.8148 33.3101 14.6456 33.6151 14.3813 33.825C14.1169 34.0349 13.7791 34.1324 13.442 34.0961C12.2574 33.9685 11.3885 33.5226 10.7457 32.7217C10.2537 32.1078 9.9304 31.307 9.64032 30.587L9.55086 30.3647L1.42352 10.394C0.227416 7.4534 1.63053 3.98096 4.80352 2.97295ZM17.153 7.66182C20.4221 6.32295 24.0194 5.97244 27.4901 6.65461C30.9607 7.33679 34.1487 9.021 36.651 11.4943C36.8908 11.7313 37.0255 12.0527 37.0255 12.3879C37.0255 12.7231 36.8908 13.0446 36.651 13.2816C36.4112 13.5187 36.086 13.6518 35.7469 13.6518C35.4078 13.6518 35.0825 13.5187 34.8428 13.2816C31.967 10.4392 28.0667 8.84233 23.9999 8.84233C19.9331 8.84233 16.0328 10.4392 13.1571 13.2816C12.9173 13.5187 12.5921 13.6518 12.253 13.6518C11.9138 13.6518 11.5886 13.5187 11.3488 13.2816C11.1091 13.0446 10.9744 12.7231 10.9744 12.3879C10.9744 12.0527 11.1091 11.7313 11.3488 11.4943C13.0101 9.85215 14.9832 8.55109 17.153 7.66182ZM16.3454 13.8854C18.561 12.2468 21.2549 11.3634 24.0221 11.3679C26.7892 11.3725 29.4801 12.2648 31.6902 13.9107C31.961 14.1124 32.1397 14.4121 32.1869 14.744C32.2341 15.0759 32.146 15.4127 31.942 15.6804C31.7379 15.9481 31.4347 16.1247 31.0989 16.1713C30.7632 16.218 30.4224 16.1309 30.1516 15.9292C28.3837 14.6124 26.2312 13.8985 24.0176 13.8946C21.804 13.8907 19.6489 14.5972 17.8763 15.9078C17.7423 16.0111 17.5887 16.0869 17.4247 16.1309C17.2607 16.1748 17.0894 16.186 16.9209 16.1637C16.7525 16.1414 16.5902 16.0862 16.4436 16.0011C16.297 15.9161 16.1691 15.803 16.0672 15.6685C15.9654 15.534 15.8918 15.3807 15.8506 15.2177C15.8094 15.0547 15.8015 14.8853 15.8274 14.7192C15.8533 14.5532 15.9125 14.3939 16.0014 14.2507C16.0904 14.1076 16.2073 13.9834 16.3454 13.8854ZM17.6105 21.5528V23.8366L17.8009 23.7646C19.2117 23.2404 21.2806 22.7364 23.9999 22.7364C26.7192 22.7364 28.7881 23.2417 30.1989 23.7646L30.3893 23.8366V21.5541C30.0365 21.3742 29.6734 21.2148 29.3019 21.0766C28.1569 20.6535 26.3921 20.2101 23.9999 20.2101C21.6077 20.2101 19.8429 20.6522 18.698 21.0766C18.3264 21.2148 17.9633 21.3729 17.6105 21.5528ZM32.4339 19.8324C32.5927 19.9501 32.7215 20.1026 32.8102 20.278C32.8989 20.4534 32.9451 20.6468 32.9451 20.8429V26.2607C32.9449 27.5074 32.5714 28.7261 31.8717 29.7634L31.0334 31.0076C30.6138 31.6297 30.3897 32.3606 30.3893 33.1083V37.8679C30.3896 39.3239 29.881 40.7352 28.9495 41.8631C28.0181 42.991 26.721 43.7662 25.2778 44.0574V44.2102C25.2777 44.4316 25.337 44.649 25.4495 44.8404C25.562 45.0317 25.7239 45.1902 25.9185 45.2997C26.1131 45.4092 26.3336 45.4658 26.5576 45.4636C26.7815 45.4615 27.0009 45.4008 27.1933 45.2877L29.8999 43.6999C31.1672 42.9559 32.6795 42.7343 34.1107 43.0828C35.5418 43.4314 36.7768 44.3222 37.5493 45.5631L37.8675 46.0746C37.9555 46.216 38.0144 46.373 38.0409 46.5369C38.0674 46.7007 38.061 46.8681 38.0221 47.0295C37.9832 47.1909 37.9125 47.3431 37.814 47.4775C37.7156 47.6119 37.5913 47.7258 37.4484 47.8128C37.3054 47.8997 37.1465 47.9579 36.9807 47.9841C36.815 48.0103 36.6457 48.004 36.4824 47.9656C36.3191 47.9271 36.1651 47.8572 36.0291 47.7599C35.8932 47.6626 35.7779 47.5398 35.69 47.3984L35.3718 46.8881C34.951 46.2121 34.2782 45.7268 33.4986 45.5368C32.719 45.3468 31.8951 45.4674 31.2046 45.8725L28.4981 47.4603C25.9487 48.9559 22.722 47.1407 22.722 44.2102V44.0574C21.2788 43.7662 19.9817 42.991 19.0503 41.8631C18.1188 40.7352 17.6102 39.3239 17.6105 37.8679V33.1083C17.6104 32.3601 17.3863 31.6288 16.9664 31.0064L16.1281 29.7621C15.4287 28.7252 15.0552 27.5069 15.0547 26.2607V20.8417C15.0547 20.6456 15.1009 20.4522 15.1896 20.2768C15.2783 20.1014 15.4072 19.9488 15.5659 19.8311L15.5697 19.8286L15.5761 19.8236L15.5889 19.8147C15.6415 19.7756 15.6956 19.7385 15.7512 19.7036C15.8931 19.6125 16.038 19.5262 16.1856 19.4446C16.7041 19.1596 17.2442 18.9146 17.8009 18.712C19.2117 18.1878 21.2806 17.6838 23.9999 17.6838C26.7192 17.6838 28.7881 18.189 30.1989 18.712C30.7557 18.9146 31.2957 19.1596 31.8142 19.4446C32.0187 19.5589 32.2179 19.6824 32.4109 19.8147L32.4237 19.8236L32.4301 19.8286L32.4339 19.8324ZM30.374 26.6004C30.0256 26.4236 29.6672 26.2667 29.3006 26.1305C28.1581 25.7061 26.3934 25.2628 23.9999 25.2628C21.6064 25.2628 19.8429 25.7049 18.698 26.1293C18.3318 26.2655 17.9738 26.4224 17.6258 26.5992C17.6833 27.2292 17.8995 27.835 18.2545 28.3613L19.0928 29.6055C19.7923 30.6424 20.1658 31.8607 20.1663 33.107V37.8666C20.1663 38.8716 20.5702 39.8355 21.2891 40.5462C22.0081 41.2568 22.9832 41.6561 23.9999 41.6561C25.0167 41.6561 25.9918 41.2568 26.7107 40.5462C27.4297 39.8355 27.8336 38.8716 27.8336 37.8666V33.107C27.8338 31.8603 28.2073 30.6415 28.907 29.6042L29.7453 28.36C30.1004 27.8337 30.3165 27.2279 30.374 26.5979M23.9999 31.5786C24.3388 31.5786 24.6639 31.7117 24.9035 31.9485C25.1432 32.1854 25.2778 32.5067 25.2778 32.8417V37.8944C25.2778 38.2294 25.1432 38.5507 24.9035 38.7876C24.6639 39.0245 24.3388 39.1576 23.9999 39.1576C23.661 39.1576 23.336 39.0245 23.0963 38.7876C22.8567 38.5507 22.722 38.2294 22.722 37.8944V32.8417C22.722 32.5067 22.8567 32.1854 23.0963 31.9485C23.336 31.7117 23.661 31.5786 23.9999 31.5786Z"/>
<path fill-rule="evenodd" clip-rule="evenodd" d="M30.374 26.6004C30.0256 26.4236 29.6672 26.2667 29.3006 26.1305C28.1581 25.7061 26.3934 25.2628 23.9999 25.2628C21.6064 25.2628 19.8429 25.7049 18.698 26.1293C18.3318 26.2655 17.9738 26.4224 17.6258 26.5992C17.6833 27.2292 17.8995 27.835 18.2545 28.3613L19.0928 29.6055C19.7923 30.6424 20.1658 31.8607 20.1663 33.107V37.8666C20.1663 38.8716 20.5702 39.8355 21.2891 40.5462C22.0081 41.2568 22.9832 41.6561 23.9999 41.6561C25.0167 41.6561 25.9918 41.2568 26.7107 40.5462C27.4297 39.8355 27.8336 38.8716 27.8336 37.8666V33.107C27.8338 31.8603 28.2073 30.6415 28.907 29.6042L29.7453 28.36C30.0999 27.8344 30.3162 27.2296 30.374 26.6004ZM24.9035 31.9485C24.6639 31.7117 24.3388 31.5786 23.9999 31.5786C23.661 31.5786 23.336 31.7117 23.0963 31.9485C22.8567 32.1854 22.722 32.5067 22.722 32.8417V37.8944C22.722 38.2294 22.8567 38.5507 23.0963 38.7876C23.336 39.0245 23.661 39.1576 23.9999 39.1576C24.3388 39.1576 24.6639 39.0245 24.9035 38.7876C25.1432 38.5507 25.2778 38.2294 25.2778 37.8944V32.8417C25.2778 32.5067 25.1432 32.1854 24.9035 31.9485Z"/>
<path d="M17.6105 21.5528V23.8366L17.8009 23.7646C19.2117 23.2404 21.2806 22.7364 23.9999 22.7364C26.7192 22.7364 28.7881 23.2417 30.1989 23.7646L30.3893 23.8366V21.5541C30.0365 21.3742 29.6734 21.2148 29.3019 21.0766C28.1569 20.6535 26.3921 20.2101 23.9999 20.2101C21.6077 20.2101 19.8429 20.6522 18.698 21.0766C18.3264 21.2148 17.9633 21.3729 17.6105 21.5528Z"/>
</mask>
<path fill-rule="evenodd" clip-rule="evenodd" d="M4.80352 2.97295C17.2874 -0.991848 30.7142 -0.990964 43.1976 2.97548C46.3706 3.98475 47.7724 7.45719 46.5763 10.3966L38.4464 30.3672L38.3569 30.587C38.0669 31.307 37.7436 32.1104 37.2477 32.7255C36.605 33.5264 35.7347 33.971 34.5489 34.0973C34.38 34.1191 34.2085 34.1074 34.0443 34.0627C33.8802 34.0181 33.7267 33.9415 33.5929 33.8374C33.4591 33.7333 33.3477 33.6038 33.2653 33.4566C33.1828 33.3094 33.131 33.1473 33.1127 32.98C33.0945 32.8127 33.1103 32.6434 33.1592 32.4822C33.208 32.321 33.289 32.1711 33.3973 32.0412C33.5056 31.9114 33.6391 31.8042 33.7899 31.7261C33.9407 31.6479 34.1057 31.6004 34.2754 31.5861C34.8837 31.5205 35.0894 31.3499 35.2466 31.1541C35.4983 30.8421 35.6849 30.3836 36.0529 29.4779L44.2058 9.45299C44.8984 7.74772 44.0486 5.89971 42.4155 5.38055C30.4407 1.57568 17.5609 1.5748 5.58559 5.37802C3.95245 5.89718 3.10138 7.74519 3.79527 9.45046L11.9482 29.4868C12.3137 30.3861 12.4989 30.8409 12.7481 31.1529C12.9053 31.3487 13.1098 31.5192 13.7193 31.5836C14.0564 31.62 14.365 31.7872 14.5773 32.0485C14.7897 32.3098 14.8883 32.6437 14.8515 32.9769C14.8148 33.3101 14.6456 33.6151 14.3813 33.825C14.1169 34.0349 13.7791 34.1324 13.442 34.0961C12.2574 33.9685 11.3885 33.5226 10.7457 32.7217C10.2537 32.1078 9.9304 31.307 9.64032 30.587L9.55086 30.3647L1.42352 10.394C0.227416 7.4534 1.63053 3.98096 4.80352 2.97295ZM17.153 7.66182C20.4221 6.32295 24.0194 5.97244 27.4901 6.65461C30.9607 7.33679 34.1487 9.021 36.651 11.4943C36.8908 11.7313 37.0255 12.0527 37.0255 12.3879C37.0255 12.7231 36.8908 13.0446 36.651 13.2816C36.4112 13.5187 36.086 13.6518 35.7469 13.6518C35.4078 13.6518 35.0825 13.5187 34.8428 13.2816C31.967 10.4392 28.0667 8.84233 23.9999 8.84233C19.9331 8.84233 16.0328 10.4392 13.1571 13.2816C12.9173 13.5187 12.5921 13.6518 12.253 13.6518C11.9138 13.6518 11.5886 13.5187 11.3488 13.2816C11.1091 13.0446 10.9744 12.7231 10.9744 12.3879C10.9744 12.0527 11.1091 11.7313 11.3488 11.4943C13.0101 9.85215 14.9832 8.55109 17.153 7.66182ZM16.3454 13.8854C18.561 12.2468 21.2549 11.3634 24.0221 11.3679C26.7892 11.3725 29.4801 12.2648 31.6902 13.9107C31.961 14.1124 32.1397 14.4121 32.1869 14.744C32.2341 15.0759 32.146 15.4127 31.942 15.6804C31.7379 15.9481 31.4347 16.1247 31.0989 16.1713C30.7632 16.218 30.4224 16.1309 30.1516 15.9292C28.3837 14.6124 26.2312 13.8985 24.0176 13.8946C21.804 13.8907 19.6489 14.5972 17.8763 15.9078C17.7423 16.0111 17.5887 16.0869 17.4247 16.1309C17.2607 16.1748 17.0894 16.186 16.9209 16.1637C16.7525 16.1414 16.5902 16.0862 16.4436 16.0011C16.297 15.9161 16.1691 15.803 16.0672 15.6685C15.9654 15.534 15.8918 15.3807 15.8506 15.2177C15.8094 15.0547 15.8015 14.8853 15.8274 14.7192C15.8533 14.5532 15.9125 14.3939 16.0014 14.2507C16.0904 14.1076 16.2073 13.9834 16.3454 13.8854ZM17.6105 21.5528V23.8366L17.8009 23.7646C19.2117 23.2404 21.2806 22.7364 23.9999 22.7364C26.7192 22.7364 28.7881 23.2417 30.1989 23.7646L30.3893 23.8366V21.5541C30.0365 21.3742 29.6734 21.2148 29.3019 21.0766C28.1569 20.6535 26.3921 20.2101 23.9999 20.2101C21.6077 20.2101 19.8429 20.6522 18.698 21.0766C18.3264 21.2148 17.9633 21.3729 17.6105 21.5528ZM32.4339 19.8324C32.5927 19.9501 32.7215 20.1026 32.8102 20.278C32.8989 20.4534 32.9451 20.6468 32.9451 20.8429V26.2607C32.9449 27.5074 32.5714 28.7261 31.8717 29.7634L31.0334 31.0076C30.6138 31.6297 30.3897 32.3606 30.3893 33.1083V37.8679C30.3896 39.3239 29.881 40.7352 28.9495 41.8631C28.0181 42.991 26.721 43.7662 25.2778 44.0574V44.2102C25.2777 44.4316 25.337 44.649 25.4495 44.8404C25.562 45.0317 25.7239 45.1902 25.9185 45.2997C26.1131 45.4092 26.3336 45.4658 26.5576 45.4636C26.7815 45.4615 27.0009 45.4008 27.1933 45.2877L29.8999 43.6999C31.1672 42.9559 32.6795 42.7343 34.1107 43.0828C35.5418 43.4314 36.7768 44.3222 37.5493 45.5631L37.8675 46.0746C37.9555 46.216 38.0144 46.373 38.0409 46.5369C38.0674 46.7007 38.061 46.8681 38.0221 47.0295C37.9832 47.1909 37.9125 47.3431 37.814 47.4775C37.7156 47.6119 37.5913 47.7258 37.4484 47.8128C37.3054 47.8997 37.1465 47.9579 36.9807 47.9841C36.815 48.0103 36.6457 48.004 36.4824 47.9656C36.3191 47.9271 36.1651 47.8572 36.0291 47.7599C35.8932 47.6626 35.7779 47.5398 35.69 47.3984L35.3718 46.8881C34.951 46.2121 34.2782 45.7268 33.4986 45.5368C32.719 45.3468 31.8951 45.4674 31.2046 45.8725L28.4981 47.4603C25.9487 48.9559 22.722 47.1407 22.722 44.2102V44.0574C21.2788 43.7662 19.9817 42.991 19.0503 41.8631C18.1188 40.7352 17.6102 39.3239 17.6105 37.8679V33.1083C17.6104 32.3601 17.3863 31.6288 16.9664 31.0064L16.1281 29.7621C15.4287 28.7252 15.0552 27.5069 15.0547 26.2607V20.8417C15.0547 20.6456 15.1009 20.4522 15.1896 20.2768C15.2783 20.1014 15.4072 19.9488 15.5659 19.8311L15.5697 19.8286L15.5761 19.8236L15.5889 19.8147C15.6415 19.7756 15.6956 19.7385 15.7512 19.7036C15.8931 19.6125 16.038 19.5262 16.1856 19.4446C16.7041 19.1596 17.2442 18.9146 17.8009 18.712C19.2117 18.1878 21.2806 17.6838 23.9999 17.6838C26.7192 17.6838 28.7881 18.189 30.1989 18.712C30.7557 18.9146 31.2957 19.1596 31.8142 19.4446C32.0187 19.5589 32.2179 19.6824 32.4109 19.8147L32.4237 19.8236L32.4301 19.8286L32.4339 19.8324ZM30.374 26.6004C30.0256 26.4236 29.6672 26.2667 29.3006 26.1305C28.1581 25.7061 26.3934 25.2628 23.9999 25.2628C21.6064 25.2628 19.8429 25.7049 18.698 26.1293C18.3318 26.2655 17.9738 26.4224 17.6258 26.5992C17.6833 27.2292 17.8995 27.835 18.2545 28.3613L19.0928 29.6055C19.7923 30.6424 20.1658 31.8607 20.1663 33.107V37.8666C20.1663 38.8716 20.5702 39.8355 21.2891 40.5462C22.0081 41.2568 22.9832 41.6561 23.9999 41.6561C25.0167 41.6561 25.9918 41.2568 26.7107 40.5462C27.4297 39.8355 27.8336 38.8716 27.8336 37.8666V33.107C27.8338 31.8603 28.2073 30.6415 28.907 29.6042L29.7453 28.36C30.1004 27.8337 30.3165 27.2279 30.374 26.5979M23.9999 31.5786C24.3388 31.5786 24.6639 31.7117 24.9035 31.9485C25.1432 32.1854 25.2778 32.5067 25.2778 32.8417V37.8944C25.2778 38.2294 25.1432 38.5507 24.9035 38.7876C24.6639 39.0245 24.3388 39.1576 23.9999 39.1576C23.661 39.1576 23.336 39.0245 23.0963 38.7876C22.8567 38.5507 22.722 38.2294 22.722 37.8944V32.8417C22.722 32.5067 22.8567 32.1854 23.0963 31.9485C23.336 31.7117 23.661 31.5786 23.9999 31.5786Z" fill="#A6DB4B"/>
<path fill-rule="evenodd" clip-rule="evenodd" d="M30.374 26.6004C30.0256 26.4236 29.6672 26.2667 29.3006 26.1305C28.1581 25.7061 26.3934 25.2628 23.9999 25.2628C21.6064 25.2628 19.8429 25.7049 18.698 26.1293C18.3318 26.2655 17.9738 26.4224 17.6258 26.5992C17.6833 27.2292 17.8995 27.835 18.2545 28.3613L19.0928 29.6055C19.7923 30.6424 20.1658 31.8607 20.1663 33.107V37.8666C20.1663 38.8716 20.5702 39.8355 21.2891 40.5462C22.0081 41.2568 22.9832 41.6561 23.9999 41.6561C25.0167 41.6561 25.9918 41.2568 26.7107 40.5462C27.4297 39.8355 27.8336 38.8716 27.8336 37.8666V33.107C27.8338 31.8603 28.2073 30.6415 28.907 29.6042L29.7453 28.36C30.0999 27.8344 30.3162 27.2296 30.374 26.6004ZM24.9035 31.9485C24.6639 31.7117 24.3388 31.5786 23.9999 31.5786C23.661 31.5786 23.336 31.7117 23.0963 31.9485C22.8567 32.1854 22.722 32.5067 22.722 32.8417V37.8944C22.722 38.2294 22.8567 38.5507 23.0963 38.7876C23.336 39.0245 23.661 39.1576 23.9999 39.1576C24.3388 39.1576 24.6639 39.0245 24.9035 38.7876C25.1432 38.5507 25.2778 38.2294 25.2778 37.8944V32.8417C25.2778 32.5067 25.1432 32.1854 24.9035 31.9485Z" fill="#F9FEF0"/>
<path d="M17.6105 21.5528V23.8366L17.8009 23.7646C19.2117 23.2404 21.2806 22.7364 23.9999 22.7364C26.7192 22.7364 28.7881 23.2417 30.1989 23.7646L30.3893 23.8366V21.5541C30.0365 21.3742 29.6734 21.2148 29.3019 21.0766C28.1569 20.6535 26.3921 20.2101 23.9999 20.2101C21.6077 20.2101 19.8429 20.6522 18.698 21.0766C18.3264 21.2148 17.9633 21.3729 17.6105 21.5528Z" fill="#F9FEF0"/>
<path d="M17.6105 21.5528L17.4969 21.3301L17.3605 21.3997V21.5528H17.6105ZM17.6105 23.8366H17.3605V24.1985L17.6989 24.0705L17.6105 23.8366ZM17.8009 23.7646L17.7138 23.5303L17.7125 23.5308L17.8009 23.7646ZM30.1989 23.7646L30.2874 23.5308L30.2858 23.5302L30.1989 23.7646ZM30.3893 23.8366L30.3009 24.0705L30.6393 24.1985V23.8366H30.3893ZM30.3893 21.5541H30.6393V21.4009L30.5029 21.3314L30.3893 21.5541ZM29.3019 21.0766L29.389 20.8423L29.3885 20.8421L29.3019 21.0766ZM18.698 21.0766L18.6111 20.8422L18.6108 20.8423L18.698 21.0766ZM29.3006 26.1305L29.2135 26.3649L29.2135 26.3649L29.3006 26.1305ZM18.698 26.1293L18.6111 25.8949L18.6108 25.895L18.698 26.1293ZM17.6258 26.5992L17.5126 26.3763L17.3614 26.4531L17.3769 26.6219L17.6258 26.5992ZM18.2545 28.3613L18.4619 28.2216L18.4618 28.2215L18.2545 28.3613ZM19.0928 29.6055L18.8855 29.7452L18.8856 29.7453L19.0928 29.6055ZM20.1663 33.107H20.4163V33.1069L20.1663 33.107ZM20.1663 37.8666H19.9163H20.1663ZM27.8336 37.8666H28.0836H27.8336ZM27.8336 33.107L27.5836 33.1069V33.107H27.8336ZM28.907 29.6042L29.1142 29.7441L29.1143 29.7439L28.907 29.6042ZM17.3605 21.5528V23.8366H17.8605V21.5528H17.3605ZM17.6989 24.0705L17.8893 23.9985L17.7125 23.5308L17.5221 23.6028L17.6989 24.0705ZM17.888 23.999C19.2726 23.4845 21.3121 22.9864 23.9999 22.9864V22.4864C21.2491 22.4864 19.1507 22.9964 17.7138 23.5303L17.888 23.999ZM23.9999 22.9864C26.6876 22.9864 28.7272 23.4857 30.112 23.9991L30.2858 23.5302C28.8491 22.9977 26.7509 22.4864 23.9999 22.4864V22.9864ZM30.1105 23.9985L30.3009 24.0705L30.4778 23.6028L30.2874 23.5308L30.1105 23.9985ZM30.6393 23.8366V21.5541H30.1393V23.8366H30.6393ZM30.5029 21.3314C30.1415 21.1471 29.7696 20.9838 29.389 20.8423L29.2147 21.311C29.5773 21.4458 29.9316 21.6013 30.2758 21.7768L30.5029 21.3314ZM29.3885 20.8421C28.2178 20.4095 26.4238 19.9601 23.9999 19.9601V20.4601C26.3604 20.4601 28.0959 20.8975 29.2152 21.3111L29.3885 20.8421ZM23.9999 19.9601C21.5762 19.9601 19.7821 20.4082 18.6111 20.8422L18.7849 21.311C19.9038 20.8963 21.6392 20.4601 23.9999 20.4601V19.9601ZM18.6108 20.8423C18.2307 20.9836 17.8587 21.1456 17.4969 21.3301L17.724 21.7756C18.0678 21.6003 18.4221 21.4459 18.7851 21.311L18.6108 20.8423ZM31.8664 20.994L32.6331 19.9835L32.2348 19.6813L31.4681 20.6918L31.8664 20.994ZM15.3667 19.9823L16.1334 20.9928L16.5318 20.6906L15.765 19.68L15.3667 19.9823ZM30.4871 26.3775C30.1303 26.1964 29.7631 26.0357 29.3876 25.8962L29.2135 26.3649C29.5712 26.4978 29.9209 26.6508 30.2609 26.8234L30.4871 26.3775ZM29.3876 25.8962C28.2192 25.4621 26.425 25.0128 23.9999 25.0128V25.5128C26.3618 25.5128 28.0971 25.9501 29.2135 26.3649L29.3876 25.8962ZM23.9999 25.0128C21.5749 25.0128 19.782 25.4608 18.6111 25.8949L18.7849 26.3637C19.9039 25.9489 21.638 25.5128 23.9999 25.5128V25.0128ZM18.6108 25.895C18.2357 26.0345 17.869 26.1952 17.5126 26.3763L17.739 26.8221C18.0786 26.6496 18.4278 26.4965 18.7851 26.3636L18.6108 25.895ZM17.3769 26.6219C17.4382 27.294 17.6688 27.9401 18.0473 28.5011L18.4618 28.2215C18.1302 27.7299 17.9284 27.1644 17.8748 26.5765L17.3769 26.6219ZM18.0472 28.501L18.8855 29.7452L19.3002 29.4658L18.4619 28.2216L18.0472 28.501ZM18.8856 29.7453C19.5573 30.7411 19.9158 31.9108 19.9163 33.1071L20.4163 33.1069C20.4158 31.8106 20.0273 30.5437 19.3001 29.4657L18.8856 29.7453ZM19.9163 33.107V37.8666H20.4163V33.107H19.9163ZM19.9163 37.8666C19.9163 38.9389 20.3472 39.9666 21.1134 40.724L21.4649 40.3684C20.7931 39.7044 20.4163 38.8044 20.4163 37.8666H19.9163ZM21.1134 40.724C21.8794 41.4812 22.9178 41.9061 23.9999 41.9061V41.4061C23.0485 41.4061 22.1367 41.0325 21.4649 40.3684L21.1134 40.724ZM23.9999 41.9061C25.082 41.9061 26.1204 41.4812 26.8865 40.724L26.535 40.3684C25.8631 41.0325 24.9513 41.4061 23.9999 41.4061V41.9061ZM26.8865 40.724C27.6526 39.9666 28.0836 38.9389 28.0836 37.8666H27.5836C27.5836 38.8044 27.2067 39.7044 26.535 40.3684L26.8865 40.724ZM28.0836 37.8666V33.107H27.5836V37.8666H28.0836ZM28.0836 33.107C28.0838 31.9103 28.4423 30.7402 29.1142 29.7441L28.6997 29.4644C27.9723 30.5428 27.5838 31.8102 27.5836 33.1069L28.0836 33.107ZM29.1143 29.7439L29.9526 28.4997L29.5379 28.2203L28.6997 29.4646L29.1143 29.7439ZM23.9999 31.8286C24.2735 31.8286 24.5352 31.936 24.7278 32.1263L25.0793 31.7707C24.7925 31.4873 24.4042 31.3286 23.9999 31.3286V31.8286ZM24.7278 32.1263C24.9202 32.3166 25.0278 32.574 25.0278 32.8417H25.5278C25.5278 32.4395 25.3661 32.0543 25.0793 31.7707L24.7278 32.1263ZM25.0278 32.8417V37.8944H25.5278V32.8417H25.0278ZM25.0278 37.8944C25.0278 38.1622 24.9202 38.4196 24.7278 38.6098L25.0793 38.9654C25.3661 38.6818 25.5278 38.2966 25.5278 37.8944H25.0278ZM24.7278 38.6098C24.5352 38.8001 24.2734 38.9076 23.9999 38.9076V39.4076C24.4042 39.4076 24.7925 39.2488 25.0793 38.9654L24.7278 38.6098ZM23.9999 38.9076C23.7264 38.9076 23.4646 38.8001 23.2721 38.6098L22.9206 38.9654C23.2073 39.2488 23.5956 39.4076 23.9999 39.4076V38.9076ZM23.2721 38.6098C23.0796 38.4196 22.972 38.1622 22.972 37.8944H22.472C22.472 38.2966 22.6337 38.6818 22.9206 38.9654L23.2721 38.6098ZM22.972 37.8944V32.8417H22.472V37.8944H22.972ZM22.972 32.8417C22.972 32.574 23.0796 32.3166 23.2721 32.1263L22.9206 31.7707C22.6337 32.0543 22.472 32.4395 22.472 32.8417H22.972ZM23.2721 32.1263C23.4646 31.936 23.7264 31.8286 23.9999 31.8286V31.3286C23.5956 31.3286 23.2073 31.4873 22.9206 31.7707L23.2721 32.1263ZM4.80352 2.97295L4.65217 2.49641L4.65214 2.49642L4.80352 2.97295ZM43.1976 2.97548L43.3491 2.499L43.349 2.49896L43.1976 2.97548ZM46.5763 10.3966L47.0394 10.5851L47.0394 10.585L46.5763 10.3966ZM38.4464 30.3672L37.9833 30.1787L37.9833 30.1787L38.4464 30.3672ZM38.3569 30.587L37.8938 30.3985L37.8932 30.4001L38.3569 30.587ZM37.2477 32.7255L36.8584 32.4118L36.8578 32.4126L37.2477 32.7255ZM34.5489 34.0973L34.4959 33.6L34.4848 33.6014L34.5489 34.0973ZM33.3973 32.0412L33.7813 32.3615L33.3973 32.0412ZM34.2754 31.5861L34.3171 32.0845L34.3291 32.0833L34.2754 31.5861ZM35.2466 31.1541L34.8574 30.8402L34.8567 30.8411L35.2466 31.1541ZM36.0529 29.4779L35.5898 29.2894L35.5897 29.2897L36.0529 29.4779ZM44.2058 9.45299L44.6689 9.64153L44.6691 9.64114L44.2058 9.45299ZM42.4155 5.38055L42.567 4.90404L42.5669 4.90402L42.4155 5.38055ZM5.58559 5.37802L5.43424 4.90148L5.43411 4.90152L5.58559 5.37802ZM3.79527 9.45046L4.2584 9.26201L4.2584 9.26201L3.79527 9.45046ZM11.9482 29.4868L12.4114 29.2985L12.4113 29.2983L11.9482 29.4868ZM12.7481 31.1529L12.3574 31.4649L12.3582 31.4659L12.7481 31.1529ZM13.7193 31.5836L13.7729 31.0865L13.7719 31.0864L13.7193 31.5836ZM14.5773 32.0485L14.1893 32.3638L14.5773 32.0485ZM13.442 34.0961L13.4956 33.5989L13.4956 33.5989L13.442 34.0961ZM10.7457 32.7217L10.3555 33.0344L10.3558 33.0347L10.7457 32.7217ZM9.64032 30.587L9.17645 30.7736L9.17654 30.7738L9.64032 30.587ZM9.55086 30.3647L10.0147 30.178L10.014 30.1762L9.55086 30.3647ZM1.42352 10.394L0.960364 10.5824L0.960399 10.5825L1.42352 10.394ZM17.153 7.66182L16.9635 7.19912L16.9634 7.19917L17.153 7.66182ZM36.651 11.4943L37.0025 11.1387L37.0025 11.1387L36.651 11.4943ZM35.7469 13.6518V13.1518V13.6518ZM34.8428 13.2816L35.1943 12.926L35.1942 12.926L34.8428 13.2816ZM23.9999 8.84233V9.34233V8.84233ZM13.1571 13.2816L12.8056 12.926L12.8056 12.926L13.1571 13.2816ZM11.3488 11.4943L11.7003 11.8499L11.3488 11.4943ZM16.3454 13.8854L16.6347 14.2933L16.6427 14.2874L16.3454 13.8854ZM31.6902 13.9107L31.9889 13.5097L31.9889 13.5097L31.6902 13.9107ZM30.1516 15.9292L29.853 16.3302L29.853 16.3302L30.1516 15.9292ZM17.8763 15.9078L17.579 15.5056L17.571 15.5118L17.8763 15.9078ZM32.4339 19.8324L32.0824 20.188L32.1077 20.2129L32.1362 20.2341L32.4339 19.8324ZM32.9451 20.8429H32.4451H32.9451ZM32.9451 26.2607L33.4451 26.2607V26.2607H32.9451ZM31.8717 29.7634L31.4572 29.4838L31.457 29.484L31.8717 29.7634ZM31.0334 31.0076L31.4479 31.2872L31.448 31.287L31.0334 31.0076ZM30.3893 33.1083L29.8893 33.108V33.1083H30.3893ZM30.3893 37.8679H29.8893V37.868L30.3893 37.8679ZM25.2778 44.0574L25.1789 43.5672L24.7778 43.6482V44.0574H25.2778ZM25.2778 44.2102L25.7778 44.2104V44.2102H25.2778ZM27.1933 45.2877L26.9403 44.8564L26.94 44.8566L27.1933 45.2877ZM29.8999 43.6999L30.1529 44.1312L30.153 44.1311L29.8999 43.6999ZM37.5493 45.5631L37.9739 45.299L37.9738 45.2988L37.5493 45.5631ZM37.8675 46.0746L37.4429 46.3387L37.443 46.3388L37.8675 46.0746ZM35.69 47.3984L36.1145 47.1343L36.1143 47.1339L35.69 47.3984ZM35.3718 46.8881L34.9473 47.1523L34.9475 47.1527L35.3718 46.8881ZM31.2046 45.8725L31.4576 46.3038L31.4577 46.3038L31.2046 45.8725ZM28.4981 47.4603L28.7511 47.8916H28.7511L28.4981 47.4603ZM22.722 44.0574H23.222V43.6482L22.8209 43.5672L22.722 44.0574ZM17.6105 37.8679L18.1105 37.868V37.8679H17.6105ZM17.6105 33.1083H18.1105V33.1082L17.6105 33.1083ZM16.9664 31.0064L16.5518 31.2857L16.5519 31.286L16.9664 31.0064ZM16.1281 29.7621L16.5428 29.4828L16.5426 29.4825L16.1281 29.7621ZM15.0547 26.2607H14.5547V26.2608L15.0547 26.2607ZM15.5659 19.8311L15.2907 19.4137L15.2792 19.4213L15.2681 19.4295L15.5659 19.8311ZM15.5697 19.8286L15.8449 20.2461L15.8629 20.2342L15.8798 20.2208L15.5697 19.8286ZM15.5761 19.8236L15.2916 19.4124L15.2785 19.4215L15.266 19.4313L15.5761 19.8236ZM15.5889 19.8147L15.8734 20.2259L15.8803 20.2211L15.8871 20.2161L15.5889 19.8147ZM15.7512 19.7036L16.0176 20.1267L16.0211 20.1244L15.7512 19.7036ZM16.1856 19.4446L15.9448 19.0065L15.9439 19.0069L16.1856 19.4446ZM17.8009 18.712L17.9719 19.1818L17.975 19.1807L17.8009 18.712ZM30.1989 18.712L30.0251 19.1808L30.0279 19.1818L30.1989 18.712ZM31.8142 19.4446L32.058 19.0081L32.055 19.0065L31.8142 19.4446ZM32.4109 19.8147L32.6955 19.4036L32.6936 19.4023L32.4109 19.8147ZM32.4237 19.8236L32.7339 19.4314L32.7214 19.4215L32.7083 19.4124L32.4237 19.8236ZM32.4301 19.8286L32.7816 19.473L32.7619 19.4536L32.7402 19.4364L32.4301 19.8286ZM4.95487 3.4495C17.3403 -0.484022 30.6613 -0.483145 43.0462 3.45201L43.349 2.49896C30.7671 -1.49878 17.2346 -1.49967 4.65217 2.49641L4.95487 3.4495ZM43.046 3.45196C45.9183 4.36558 47.2086 7.51615 46.1132 10.2081L47.0394 10.585C48.3362 7.39823 46.8228 3.60391 43.3491 2.499L43.046 3.45196ZM46.1132 10.208L37.9833 30.1787L38.9095 30.5557L47.0394 10.5851L46.1132 10.208ZM37.9833 30.1787L37.8938 30.3985L38.8201 30.7755L38.9095 30.5557L37.9833 30.1787ZM37.8932 30.4001C37.5969 31.1355 37.2991 31.8651 36.8584 32.4118L37.637 33.0393C38.188 32.3557 38.5368 31.4785 38.8207 30.7738L37.8932 30.4001ZM36.8578 32.4126C36.3112 33.0936 35.5713 33.4856 34.4959 33.6001L34.6018 34.5945C35.8981 34.4564 36.8987 33.9592 37.6377 33.0385L36.8578 32.4126ZM34.4848 33.6014C34.3813 33.6148 34.2761 33.6076 34.1755 33.5802L33.9132 34.5452C34.1409 34.6071 34.3788 34.6234 34.6129 34.5932L34.4848 33.6014ZM34.1755 33.5802C34.075 33.5529 33.9813 33.5061 33.9 33.4428L33.2859 34.232C33.4721 34.3769 33.6854 34.4833 33.9132 34.5452L34.1755 33.5802ZM33.9 33.4428C33.8186 33.3795 33.7512 33.301 33.7015 33.2123L32.829 33.7009C32.9443 33.9067 33.0997 34.0871 33.2859 34.232L33.9 33.4428ZM33.7015 33.2123C33.6518 33.1236 33.6207 33.0262 33.6098 32.9259L32.6157 33.0341C32.6412 33.2685 32.7138 33.4952 32.829 33.7009L33.7015 33.2123ZM33.6098 32.9259C33.5989 32.8256 33.6083 32.7241 33.6377 32.6273L32.6807 32.3372C32.6123 32.5628 32.5902 32.7998 32.6157 33.0341L33.6098 32.9259ZM33.6377 32.6273C33.667 32.5305 33.7157 32.4401 33.7813 32.3615L33.0134 31.721C32.8623 31.9021 32.7491 32.1115 32.6807 32.3372L33.6377 32.6273ZM33.7813 32.3615C33.8468 32.2829 33.9279 32.2177 34.02 32.17L33.5598 31.2822C33.3503 31.3908 33.1644 31.5398 33.0134 31.721L33.7813 32.3615ZM34.02 32.17C34.112 32.1223 34.2131 32.0931 34.3171 32.0844L34.2336 31.0879C33.9984 31.1076 33.7693 31.1736 33.5598 31.2822L34.02 32.17ZM34.3291 32.0833C34.67 32.0464 34.9385 31.9763 35.158 31.864C35.3874 31.7465 35.53 31.5997 35.6365 31.4672L34.8567 30.8411C34.8059 30.9043 34.7671 30.9407 34.7023 30.9739C34.6275 31.0122 34.489 31.0602 34.2217 31.089L34.3291 32.0833ZM35.6357 31.4681C35.9457 31.084 36.1624 30.5367 36.5161 29.6662L35.5897 29.2897C35.2074 30.2305 35.051 30.6003 34.8574 30.8402L35.6357 31.4681ZM36.516 29.6665L44.6689 9.64153L43.7427 9.26445L35.5898 29.2894L36.516 29.6665ZM44.6691 9.64114C45.4642 7.68335 44.4957 5.51716 42.567 4.90404L42.264 5.85705C43.6016 6.28226 44.3326 7.81208 43.7426 9.26483L44.6691 9.64114ZM42.5669 4.90402C30.4936 1.06786 17.5081 1.06697 5.43424 4.90148L5.73693 5.85456C17.6138 2.08262 30.3878 2.0835 42.2641 5.85707L42.5669 4.90402ZM5.43411 4.90152C3.50576 5.51452 2.53529 7.68061 3.33214 9.63891L4.2584 9.26201C3.66746 7.80976 4.39914 6.27984 5.73706 5.85452L5.43411 4.90152ZM3.33214 9.63891L11.485 29.6752L12.4113 29.2983L4.2584 9.26201L3.33214 9.63891ZM11.485 29.675C11.8366 30.5402 12.0514 31.0818 12.3574 31.4649L13.1388 30.8409C12.9464 30.6 12.7907 30.232 12.4114 29.2985L11.485 29.675ZM12.3582 31.4659C12.4642 31.5979 12.6066 31.7451 12.8364 31.8627C13.0562 31.9751 13.3251 32.0447 13.6668 32.0809L13.7719 31.0864C13.504 31.0581 13.3659 31.0103 13.2918 30.9724C13.2277 30.9396 13.1892 30.9036 13.138 30.8399L12.3582 31.4659ZM13.6657 32.0807C13.8727 32.1031 14.0608 32.2056 14.1893 32.3638L14.9654 31.7331C14.6693 31.3687 14.2401 31.1369 13.7729 31.0865L13.6657 32.0807ZM14.1893 32.3638C14.3177 32.5218 14.3766 32.7225 14.3545 32.922L15.3485 33.0317C15.4 32.5649 15.2617 32.0978 14.9654 31.7331L14.1893 32.3638ZM14.3545 32.922C14.3325 33.1216 14.2311 33.3059 14.0703 33.4335L14.6922 34.2166C15.0601 33.9244 15.297 33.4985 15.3485 33.0317L14.3545 32.922ZM14.0703 33.4335C13.9094 33.5612 13.7027 33.6213 13.4956 33.5989L13.3884 34.5932C13.8555 34.6435 14.3244 34.5086 14.6922 34.2166L14.0703 33.4335ZM13.4956 33.5989C12.4217 33.4833 11.6826 33.0903 11.1356 32.4088L10.3558 33.0347C11.0943 33.9549 12.0931 34.4537 13.3885 34.5932L13.4956 33.5989ZM11.1359 32.409C10.6982 31.863 10.4001 31.1349 10.1041 30.4001L9.17654 30.7738C9.46068 31.4791 9.80917 32.3527 10.3555 33.0344L11.1359 32.409ZM10.1042 30.4003L10.0147 30.178L9.087 30.5513L9.17645 30.7736L10.1042 30.4003ZM10.014 30.1762L1.88663 10.2056L0.960399 10.5825L9.08775 30.5531L10.014 30.1762ZM1.88667 10.2057C0.791204 7.51242 2.08273 4.36193 4.95491 3.44949L4.65214 2.49642C1.17833 3.59999 -0.336371 7.39437 0.960364 10.5824L1.88667 10.2057ZM17.3425 8.12452C20.5209 6.82278 24.0189 6.48189 27.3936 7.14523L27.5865 6.164C24.02 5.46299 20.3232 5.82313 16.9635 7.19912L17.3425 8.12452ZM27.3936 7.14523C30.7684 7.80855 33.8675 9.44609 36.2995 11.8499L37.0025 11.1387C34.4299 8.59591 31.153 6.86502 27.5865 6.164L27.3936 7.14523ZM36.2995 11.8499C36.4449 11.9936 36.5255 12.1872 36.5255 12.3879H37.5255C37.5255 11.9183 37.3367 11.469 37.0025 11.1387L36.2995 11.8499ZM36.5255 12.3879C36.5255 12.5887 36.4449 12.7823 36.2995 12.926L37.0025 13.6372C37.3367 13.3069 37.5255 12.8576 37.5255 12.3879H36.5255ZM36.2995 12.926C36.1539 13.0699 35.9552 13.1518 35.7469 13.1518V14.1518C36.2167 14.1518 36.6685 13.9674 37.0025 13.6372L36.2995 12.926ZM35.7469 13.1518C35.5385 13.1518 35.3398 13.0699 35.1943 12.926L34.4913 13.6372C34.8252 13.9674 35.277 14.1518 35.7469 14.1518V13.1518ZM35.1942 12.926C32.2243 9.99047 28.1975 8.34233 23.9999 8.34233V9.34233C27.936 9.34233 31.7097 10.8879 34.4913 13.6372L35.1942 12.926ZM23.9999 8.34233C19.8023 8.34233 15.7755 9.99047 12.8056 12.926L13.5085 13.6372C16.2901 10.8879 20.0638 9.34233 23.9999 9.34233V8.34233ZM12.8056 12.926C12.66 13.0699 12.4613 13.1518 12.253 13.1518V14.1518C12.7228 14.1518 13.1746 13.9674 13.5086 13.6372L12.8056 12.926ZM12.253 13.1518C12.0446 13.1518 11.8459 13.0699 11.7003 12.926L10.9973 13.6372C11.3313 13.9674 11.7831 14.1518 12.253 14.1518V13.1518ZM11.7003 12.926C11.555 12.7823 11.4744 12.5887 11.4744 12.3879H10.4744C10.4744 12.8576 10.6632 13.3069 10.9973 13.6372L11.7003 12.926ZM11.4744 12.3879C11.4744 12.1872 11.555 11.9936 11.7003 11.8499L10.9973 11.1387C10.6632 11.469 10.4744 11.9183 10.4744 12.3879H11.4744ZM11.7003 11.8499C13.3147 10.2541 15.2327 8.98919 17.3426 8.12447L16.9634 7.19917C14.7336 8.11298 12.7055 9.45023 10.9973 11.1387L11.7003 11.8499ZM16.6427 14.2874C18.7717 12.7129 21.3609 11.8636 24.0212 11.8679L24.0229 10.8679C21.1489 10.8632 18.3504 11.7807 16.0481 13.4834L16.6427 14.2874ZM24.0212 11.8679C26.6815 11.8723 29.2679 12.7302 31.3916 14.3117L31.9889 13.5097C29.6923 11.7994 26.8969 10.8727 24.0229 10.8679L24.0212 11.8679ZM31.3916 14.3117C31.5563 14.4344 31.6636 14.6156 31.6919 14.8144L32.6819 14.6736C32.6158 14.2087 32.3657 13.7903 31.9889 13.5097L31.3916 14.3117ZM31.6919 14.8144C31.7201 15.0132 31.6676 15.2156 31.5443 15.3773L32.3396 15.9835C32.6244 15.6098 32.748 15.1386 32.6819 14.6736L31.6919 14.8144ZM31.5443 15.3773C31.4209 15.5392 31.2362 15.6474 31.0301 15.6761L31.1678 16.6666C31.6331 16.6019 32.055 16.3569 32.3396 15.9835L31.5443 15.3773ZM31.0301 15.6761C30.8239 15.7047 30.6153 15.6511 30.4503 15.5282L29.853 16.3302C30.2296 16.6107 30.7025 16.7312 31.1678 16.6666L31.0301 15.6761ZM30.4503 15.5282C28.5959 14.1471 26.3389 13.3986 24.0185 13.3946L24.0167 14.3946C26.1235 14.3983 28.1715 15.0778 29.853 16.3302L30.4503 15.5282ZM24.0185 13.3946C21.698 13.3905 19.4383 14.131 17.579 15.5057L18.1735 16.3098C19.8595 15.0633 21.9099 14.3909 24.0167 14.3946L24.0185 13.3946ZM17.571 15.5118C17.4895 15.5746 17.3958 15.621 17.2953 15.6479L17.5541 16.6138C17.7817 16.5529 17.995 16.4475 18.1816 16.3037L17.571 15.5118ZM17.2953 15.6479C17.1948 15.6748 17.0898 15.6817 16.9865 15.668L16.8554 16.6594C17.089 16.6903 17.3265 16.6748 17.5541 16.6138L17.2953 15.6479ZM16.9865 15.668C16.8832 15.6544 16.7839 15.6205 16.6945 15.5686L16.1927 16.4336C16.3965 16.5518 16.6218 16.6285 16.8554 16.6594L16.9865 15.668ZM16.6945 15.5686C16.6051 15.5168 16.5275 15.448 16.4659 15.3667L15.6686 15.9703C15.8107 16.158 15.989 16.3154 16.1927 16.4336L16.6945 15.5686ZM16.4659 15.3667C16.4044 15.2854 16.3601 15.1931 16.3354 15.0953L15.3658 15.3402C15.4235 15.5684 15.5265 15.7825 15.6686 15.9703L16.4659 15.3667ZM16.3354 15.0953C16.3106 14.9974 16.3059 14.8958 16.3215 14.7963L15.3334 14.6422C15.2971 14.8747 15.3082 15.112 15.3658 15.3402L16.3354 15.0953ZM16.3215 14.7963C16.337 14.6967 16.3725 14.6009 16.4261 14.5146L15.5767 13.9869C15.4525 14.1869 15.3697 14.4096 15.3334 14.6422L16.3215 14.7963ZM16.4261 14.5146C16.4798 14.4282 16.5506 14.3529 16.6347 14.2933L16.0561 13.4776C15.864 13.6139 15.7009 13.7869 15.5767 13.9869L16.4261 14.5146ZM32.1362 20.2341C32.2327 20.3057 32.3106 20.3981 32.364 20.5037L33.2564 20.0524C33.1324 19.8072 32.9526 19.5945 32.7317 19.4307L32.1362 20.2341ZM32.364 20.5037C32.4174 20.6093 32.4451 20.7254 32.4451 20.8429H33.4451C33.4451 20.5682 33.3804 20.2975 33.2564 20.0524L32.364 20.5037ZM32.4451 20.8429V26.2607H33.4451V20.8429H32.4451ZM32.4451 26.2606C32.4449 27.4073 32.1014 28.5288 31.4572 29.4838L32.2862 30.043C33.0414 28.9235 33.4449 27.6075 33.4451 26.2607L32.4451 26.2606ZM31.457 29.484L30.6187 30.7282L31.448 31.287L32.2863 30.0428L31.457 29.484ZM30.6189 30.728C30.1438 31.4323 29.8897 32.2604 29.8893 33.108L30.8893 33.1085C30.8896 32.4607 31.0837 31.8271 31.4479 31.2872L30.6189 30.728ZM29.8893 33.1083V37.8679H30.8893V33.1083H29.8893ZM29.8893 37.868C29.8896 39.2071 29.4218 40.506 28.564 41.5447L29.3351 42.1815C30.3402 40.9644 30.8897 39.4406 30.8893 37.8678L29.8893 37.868ZM28.564 41.5447C27.7061 42.5836 26.5105 43.2986 25.1789 43.5672L25.3767 44.5475C26.9315 44.2338 28.3301 43.3985 29.3351 42.1815L28.564 41.5447ZM24.7778 44.0574V44.2102H25.7778V44.0574H24.7778ZM24.7778 44.21C24.7777 44.5209 24.8609 44.8258 25.0185 45.0938L25.8805 44.5869C25.813 44.4722 25.7777 44.3423 25.7778 44.2104L24.7778 44.21ZM25.0185 45.0938C25.1761 45.3618 25.4022 45.583 25.6734 45.7355L26.1636 44.8639C26.0455 44.7975 25.948 44.7017 25.8805 44.5869L25.0185 45.0938ZM25.6734 45.7355C25.9445 45.888 26.2511 45.9666 26.5623 45.9636L26.5528 44.9637C26.4161 44.965 26.2818 44.9304 26.1636 44.8639L25.6734 45.7355ZM26.5623 45.9636C26.8734 45.9607 27.1786 45.8764 27.4467 45.7187L26.94 44.8566C26.8232 44.9253 26.6896 44.9624 26.5528 44.9637L26.5623 45.9636ZM27.4463 45.719L30.1529 44.1312L29.6469 43.2686L26.9403 44.8564L27.4463 45.719ZM30.153 44.1311C31.308 43.453 32.6871 43.2507 33.9923 43.5686L34.229 42.597C32.672 42.2178 31.0263 42.4588 29.6468 43.2687L30.153 44.1311ZM33.9923 43.5686C35.2974 43.8865 36.4221 44.6985 37.1249 45.8273L37.9738 45.2988C37.1316 43.946 35.7861 42.9763 34.229 42.597L33.9923 43.5686ZM37.1247 45.8271L37.4429 46.3387L38.2921 45.8106L37.9739 45.299L37.1247 45.8271ZM37.443 46.3388C37.496 46.424 37.5314 46.5185 37.5473 46.6168L38.5345 46.457C38.4973 46.2276 38.4149 46.0079 38.292 45.8105L37.443 46.3388ZM37.5473 46.6168C37.5632 46.715 37.5594 46.8154 37.536 46.9123L38.5082 47.1467C38.5627 46.9208 38.5716 46.6864 38.5345 46.457L37.5473 46.6168ZM37.536 46.9123C37.5127 47.0092 37.4702 47.1008 37.4107 47.1821L38.2174 47.773C38.3548 47.5854 38.4537 47.3726 38.5082 47.1467L37.536 46.9123ZM37.4107 47.1821C37.3512 47.2633 37.2758 47.3325 37.1886 47.3855L37.7081 48.24C37.9069 48.1191 38.08 47.9605 38.2174 47.773L37.4107 47.1821ZM37.1886 47.3855C37.1014 47.4385 37.0043 47.4742 36.9026 47.4903L37.0589 48.478C37.2887 48.4416 37.5093 48.3608 37.7081 48.24L37.1886 47.3855ZM36.9026 47.4903C36.801 47.5063 36.6971 47.5025 36.597 47.4789L36.3677 48.4522C36.5942 48.5056 36.829 48.5143 37.0589 48.478L36.9026 47.4903ZM36.597 47.4789C36.497 47.4553 36.4029 47.4126 36.3201 47.3533L35.7381 48.1665C35.9272 48.3018 36.1412 48.3989 36.3677 48.4522L36.597 47.4789ZM36.3201 47.3533C36.2374 47.2941 36.1676 47.2196 36.1145 47.1343L35.2655 47.6626C35.3883 47.86 35.549 48.0311 35.7381 48.1665L36.3201 47.3533ZM36.1143 47.1339L35.7961 46.6236L34.9475 47.1527L35.2657 47.663L36.1143 47.1339ZM35.7963 46.6239C35.3058 45.8359 34.5226 45.2717 33.617 45.051L33.3802 46.0226C34.0339 46.1819 34.5963 46.5884 34.9473 47.1523L35.7963 46.6239ZM33.617 45.051C32.7115 44.8303 31.7544 44.9702 30.9516 45.4413L31.4577 46.3038C32.0358 45.9645 32.7265 45.8632 33.3802 46.0226L33.617 45.051ZM30.9516 45.4413L28.2451 47.0291L28.7511 47.8916L31.4576 46.3038L30.9516 45.4413ZM28.2451 47.0291C26.0202 48.3343 23.222 46.7441 23.222 44.2102H22.222C22.222 47.5374 25.8772 49.5775 28.7511 47.8916L28.2451 47.0291ZM23.222 44.2102V44.0574H22.222V44.2102H23.222ZM22.8209 43.5672C21.4893 43.2986 20.2937 42.5836 19.4358 41.5447L18.6647 42.1815C19.6697 43.3985 21.0683 44.2338 22.6231 44.5475L22.8209 43.5672ZM19.4358 41.5447C18.578 40.506 18.1102 39.2071 18.1105 37.868L17.1105 37.8678C17.1102 39.4406 17.6596 40.9644 18.6647 42.1815L19.4358 41.5447ZM18.1105 37.8679V33.1083H17.1105V37.8679H18.1105ZM18.1105 33.1082C18.1104 32.2601 17.8563 31.4314 17.3809 30.7267L16.5519 31.286C16.9163 31.8261 17.1104 32.4602 17.1105 33.1083L18.1105 33.1082ZM17.3811 30.727L16.5428 29.4828L15.7135 30.0415L16.5518 31.2857L17.3811 30.727ZM16.5426 29.4825C15.8986 28.5278 15.5552 27.4068 15.5547 26.2605L14.5547 26.2608C14.5552 27.6071 14.9587 28.9226 15.7136 30.0418L16.5426 29.4825ZM15.5547 26.2607V20.8417H14.5547V26.2607H15.5547ZM15.5547 20.8417C15.5547 20.7242 15.5824 20.6081 15.6358 20.5025L14.7435 20.0511C14.6194 20.2963 14.5547 20.567 14.5547 20.8417H15.5547ZM15.6358 20.5025C15.6892 20.3968 15.7671 20.3044 15.8636 20.2328L15.2681 19.4295C15.0472 19.5932 14.8675 19.8059 14.7435 20.0511L15.6358 20.5025ZM15.8411 20.2486L15.8449 20.2461L15.2945 19.4112L15.2907 19.4137L15.8411 20.2486ZM15.8798 20.2208L15.8862 20.2158L15.266 19.4313L15.2596 19.4364L15.8798 20.2208ZM15.8606 20.2347L15.8734 20.2259L15.3043 19.4036L15.2916 19.4124L15.8606 20.2347ZM15.8871 20.2161C15.9294 20.1846 15.9729 20.1548 16.0176 20.1266L15.4847 19.2805C15.4183 19.3223 15.3536 19.3666 15.2907 19.4134L15.8871 20.2161ZM16.0211 20.1244C16.1538 20.0393 16.2893 19.9586 16.4274 19.8823L15.9439 19.0069C15.7866 19.0938 15.6323 19.1858 15.4812 19.2827L16.0211 20.1244ZM16.4265 19.8828C16.9225 19.6101 17.4392 19.3757 17.9719 19.1818L17.6299 18.2421C17.0491 18.4535 16.4857 18.7091 15.9448 19.0065L16.4265 19.8828ZM17.975 19.1807C19.3336 18.6759 21.3436 18.1838 23.9999 18.1838V17.1838C21.2175 17.1838 19.0898 17.6996 17.6267 18.2433L17.975 19.1807ZM23.9999 18.1838C26.656 18.1838 28.6662 18.6771 30.0251 19.1808L30.3727 18.2432C28.9101 17.701 26.7825 17.1838 23.9999 17.1838V18.1838ZM30.0279 19.1818C30.5606 19.3757 31.0773 19.6101 31.5733 19.8828L32.055 19.0065C31.5141 18.7091 30.9507 18.4535 30.37 18.2421L30.0279 19.1818ZM31.5703 19.8811C31.7616 19.988 31.9478 20.1034 32.1283 20.2271L32.6936 19.4023C32.488 19.2613 32.2759 19.1298 32.058 19.0081L31.5703 19.8811ZM32.1264 20.2259L32.1392 20.2347L32.7083 19.4124L32.6955 19.4036L32.1264 20.2259ZM32.1136 20.2158L32.12 20.2208L32.7402 19.4364L32.7339 19.4314L32.1136 20.2158ZM32.0786 20.1842L32.0824 20.188L32.7855 19.4768L32.7816 19.473L32.0786 20.1842ZM30.1598 28.6397C30.5618 28.0438 30.8068 27.3575 30.8719 26.6434L29.8761 26.5525C29.8263 27.0984 29.639 27.6236 29.3308 28.0804L30.1598 28.6397ZM30.1598 28.6397C30.5612 28.0447 30.8063 27.3595 30.8719 26.6462L29.8761 26.5547C29.826 27.0997 29.6386 27.6241 29.3308 28.0804L30.1598 28.6397Z" fill="#A6DB4B" mask="url(#path-1-outside-1_0_139)"/>
</g>
<defs>
<clipPath id="clip0_0_139">
<rect width="48" height="48" fill="white"/>
</clipPath>
</defs>
</svg>
