<svg width="100%" height="100%" viewBox="0 0 48 48" fill="none" xmlns="http://www.w3.org/2000/svg">
<g clip-path="url(#clip0_0_147)">
<ellipse cx="34" cy="33.5" rx="8" ry="7.5" fill="#F9FEF0"/>
<mask id="path-2-outside-1_0_147" maskUnits="userSpaceOnUse" x="0" y="0" width="49" height="48" fill="black">
<rect fill="white" width="49" height="48"/>
<path d="M17.0547 32.3017C16.7126 32.3017 16.4263 32.1867 16.1956 31.9568C15.9632 31.7253 15.8471 31.4384 15.8471 31.0959C15.8471 30.7535 15.9632 30.4673 16.1956 30.2374C16.4279 30.0075 16.7151 29.8926 17.0571 29.8926H22.3619C22.7055 29.8926 22.9927 30.0083 23.2234 30.2398C23.4541 30.4713 23.5703 30.7583 23.5719 31.1007C23.5735 31.4432 23.4574 31.7294 23.2234 31.9593C22.9895 32.1892 22.7023 32.3041 22.3619 32.3041L17.0547 32.3017ZM15.5228 44.4076C12.6139 44.4076 10.1333 43.41 8.0811 41.4149C6.02889 39.4197 5.00278 36.9849 5.00278 34.1103V12.2233C3.88955 12.2233 2.94412 11.8439 2.16647 11.085C1.38882 10.3246 1 9.38972 1 8.28042V4.98867C1 3.89223 1.39205 2.95334 2.17615 2.172C2.96025 1.39067 3.90246 1 5.00278 1H25.992C27.1052 1 28.0587 1.39067 28.8525 2.172C29.6446 2.95334 30.0407 3.89223 30.0407 4.98867V8.28042C30.0407 9.38972 29.6446 10.3246 28.8525 11.085C28.0587 11.8439 27.1052 12.2233 25.992 12.2233V19.1323C25.992 20.203 25.6088 21.1202 24.8424 21.8839C24.0761 22.6475 23.1565 23.0293 22.0836 23.0293H17.0547C16.711 23.0293 16.423 22.9136 16.1907 22.6821C15.96 22.4506 15.8447 22.1636 15.8447 21.8212C15.8447 21.4787 15.96 21.1926 16.1907 20.9627C16.4214 20.7328 16.7094 20.617 17.0547 20.6154H23.5695V12.2233H7.42284V34.1128C7.42284 36.3378 8.21178 38.2083 9.78966 39.7244C11.3659 41.2388 13.2794 41.9961 15.53 41.9961C16.3416 41.9961 17.1184 41.8883 17.8606 41.6729C18.6043 41.4559 19.3053 41.1351 19.9636 40.7107C20.2379 40.5451 20.5307 40.4961 20.8421 40.5636C21.1535 40.6311 21.3898 40.8072 21.5512 41.0917C21.7335 41.3763 21.7835 41.6866 21.7012 42.0226C21.6189 42.357 21.4334 42.6158 21.1446 42.7991C20.3105 43.2991 19.4288 43.6922 18.4995 43.9783C17.5702 44.2645 16.5771 44.4076 15.5204 44.4076M34.4622 40.3273C36.3434 40.3273 37.9463 39.6665 39.2708 38.345C40.5938 37.0267 41.2553 35.4303 41.2553 33.5557C41.2553 31.6811 40.5938 30.0847 39.2708 28.7664C37.9463 27.4449 36.3434 26.7841 34.4622 26.7841C32.5826 26.7841 30.9805 27.4449 29.6559 28.7664C28.3314 30.0847 27.6691 31.6811 27.6691 33.5557C27.6691 35.4303 28.3306 37.0275 29.6535 38.3474C30.9765 39.6673 32.5794 40.3265 34.4622 40.3249M34.4622 42.7364C31.9034 42.7364 29.7277 41.8441 27.9353 40.0596C26.1428 38.2751 25.2474 36.1071 25.249 33.5557C25.2506 31.0043 26.146 28.8363 27.9353 27.0518C29.7245 25.2673 31.9001 24.375 34.4622 24.375C37.0242 24.375 39.1999 25.2673 40.9891 27.0518C42.7783 28.8363 43.6737 31.0043 43.6754 33.5557C43.6754 34.5798 43.5116 35.5637 43.1841 36.5074C42.855 37.4527 42.3774 38.3361 41.7514 39.1577L47.6612 45.0491C47.8871 45.2741 48 45.5426 48 45.8545C48 46.1664 47.8871 46.4349 47.6612 46.66C47.4353 46.885 47.1546 46.9984 46.819 47C46.4834 47.0016 46.2092 46.889 45.9962 46.6624L40.084 40.8168C39.2579 41.4422 38.3714 41.9189 37.4243 42.2468C36.4757 42.5748 35.4883 42.7388 34.4622 42.7388"/>
</mask>
<path d="M17.0547 32.3017C16.7126 32.3017 16.4263 32.1867 16.1956 31.9568C15.9632 31.7253 15.8471 31.4384 15.8471 31.0959C15.8471 30.7535 15.9632 30.4673 16.1956 30.2374C16.4279 30.0075 16.7151 29.8926 17.0571 29.8926H22.3619C22.7055 29.8926 22.9927 30.0083 23.2234 30.2398C23.4541 30.4713 23.5703 30.7583 23.5719 31.1007C23.5735 31.4432 23.4574 31.7294 23.2234 31.9593C22.9895 32.1892 22.7023 32.3041 22.3619 32.3041L17.0547 32.3017ZM15.5228 44.4076C12.6139 44.4076 10.1333 43.41 8.0811 41.4149C6.02889 39.4197 5.00278 36.9849 5.00278 34.1103V12.2233C3.88955 12.2233 2.94412 11.8439 2.16647 11.085C1.38882 10.3246 1 9.38972 1 8.28042V4.98867C1 3.89223 1.39205 2.95334 2.17615 2.172C2.96025 1.39067 3.90246 1 5.00278 1H25.992C27.1052 1 28.0587 1.39067 28.8525 2.172C29.6446 2.95334 30.0407 3.89223 30.0407 4.98867V8.28042C30.0407 9.38972 29.6446 10.3246 28.8525 11.085C28.0587 11.8439 27.1052 12.2233 25.992 12.2233V19.1323C25.992 20.203 25.6088 21.1202 24.8424 21.8839C24.0761 22.6475 23.1565 23.0293 22.0836 23.0293H17.0547C16.711 23.0293 16.423 22.9136 16.1907 22.6821C15.96 22.4506 15.8447 22.1636 15.8447 21.8212C15.8447 21.4787 15.96 21.1926 16.1907 20.9627C16.4214 20.7328 16.7094 20.617 17.0547 20.6154H23.5695V12.2233H7.42284V34.1128C7.42284 36.3378 8.21178 38.2083 9.78966 39.7244C11.3659 41.2388 13.2794 41.9961 15.53 41.9961C16.3416 41.9961 17.1184 41.8883 17.8606 41.6729C18.6043 41.4559 19.3053 41.1351 19.9636 40.7107C20.2379 40.5451 20.5307 40.4961 20.8421 40.5636C21.1535 40.6311 21.3898 40.8072 21.5512 41.0917C21.7335 41.3763 21.7835 41.6866 21.7012 42.0226C21.6189 42.357 21.4334 42.6158 21.1446 42.7991C20.3105 43.2991 19.4288 43.6922 18.4995 43.9783C17.5702 44.2645 16.5771 44.4076 15.5204 44.4076M34.4622 40.3273C36.3434 40.3273 37.9463 39.6665 39.2708 38.345C40.5938 37.0267 41.2553 35.4303 41.2553 33.5557C41.2553 31.6811 40.5938 30.0847 39.2708 28.7664C37.9463 27.4449 36.3434 26.7841 34.4622 26.7841C32.5826 26.7841 30.9805 27.4449 29.6559 28.7664C28.3314 30.0847 27.6691 31.6811 27.6691 33.5557C27.6691 35.4303 28.3306 37.0275 29.6535 38.3474C30.9765 39.6673 32.5794 40.3265 34.4622 40.3249M34.4622 42.7364C31.9034 42.7364 29.7277 41.8441 27.9353 40.0596C26.1428 38.2751 25.2474 36.1071 25.249 33.5557C25.2506 31.0043 26.146 28.8363 27.9353 27.0518C29.7245 25.2673 31.9001 24.375 34.4622 24.375C37.0242 24.375 39.1999 25.2673 40.9891 27.0518C42.7783 28.8363 43.6737 31.0043 43.6754 33.5557C43.6754 34.5798 43.5116 35.5637 43.1841 36.5074C42.855 37.4527 42.3774 38.3361 41.7514 39.1577L47.6612 45.0491C47.8871 45.2741 48 45.5426 48 45.8545C48 46.1664 47.8871 46.4349 47.6612 46.66C47.4353 46.885 47.1546 46.9984 46.819 47C46.4834 47.0016 46.2092 46.889 45.9962 46.6624L40.084 40.8168C39.2579 41.4422 38.3714 41.9189 37.4243 42.2468C36.4757 42.5748 35.4883 42.7388 34.4622 42.7388" fill="#A6DB4B"/>
<path d="M17.0547 32.3017L17.0549 31.8017H17.0547V32.3017ZM16.1956 31.9568L16.5485 31.6027L16.1956 31.9568ZM22.3619 32.3041L22.3617 32.8041H22.3619V32.3041ZM5.00278 12.2233H5.50278V11.7233H5.00278V12.2233ZM2.16647 11.085L1.81689 11.4425L1.81727 11.4429L2.16647 11.085ZM5.00278 1V1.5V1ZM28.8525 2.172L29.2036 1.81603L29.2032 1.81567L28.8525 2.172ZM28.8525 11.085L29.198 11.4465L29.1987 11.4457L28.8525 11.085ZM25.992 12.2233V11.7233H25.492V12.2233H25.992ZM16.1907 22.6821L15.8366 23.035L15.8378 23.0363L16.1907 22.6821ZM17.0547 20.6154V20.1154L17.0524 20.1154L17.0547 20.6154ZM23.5695 20.6154V21.1154H24.0695V20.6154H23.5695ZM23.5695 12.2233H24.0695V11.7233H23.5695V12.2233ZM7.42284 12.2233V11.7233H6.92284V12.2233H7.42284ZM9.78966 39.7244L9.44324 40.0849L9.44325 40.0849L9.78966 39.7244ZM17.8606 41.6729L17.9999 42.1531L18.0006 42.1529L17.8606 41.6729ZM19.9636 40.7107L19.7052 40.2827L19.6989 40.2865L19.6926 40.2905L19.9636 40.7107ZM21.5512 41.0917L21.1162 41.3383L21.1229 41.3501L21.1302 41.3615L21.5512 41.0917ZM21.7012 42.0226L22.1867 42.142L22.1869 42.1415L21.7012 42.0226ZM21.1446 42.7991L21.4017 43.2281L21.4125 43.2213L21.1446 42.7991ZM39.2708 38.345L38.9179 37.9908L38.9177 37.991L39.2708 38.345ZM39.2708 28.7664L38.9177 29.1203L38.9179 29.1206L39.2708 28.7664ZM29.6559 28.7664L30.0087 29.1208L30.0091 29.1203L29.6559 28.7664ZM43.6754 33.5557H44.1754V33.5554L43.6754 33.5557ZM43.1841 36.5074L43.6563 36.6718L43.6564 36.6713L43.1841 36.5074ZM41.7514 39.1577L41.3537 38.8546L41.0884 39.2028L41.3984 39.5118L41.7514 39.1577ZM47.6612 45.0491L47.3082 45.4032L47.3083 45.4032L47.6612 45.0491ZM45.9962 46.6624L46.3606 46.32L46.3543 46.3133L46.3477 46.3068L45.9962 46.6624ZM40.084 40.8168L40.4355 40.4613L40.1275 40.1567L39.7822 40.4182L40.084 40.8168ZM37.4243 42.2468L37.5877 42.7194L37.588 42.7193L37.4243 42.2468ZM17.0547 31.8017C16.8376 31.8017 16.6804 31.7341 16.5485 31.6027L15.8426 32.311C16.1722 32.6394 16.5877 32.8017 17.0547 32.8017V31.8017ZM16.5485 31.6027C16.4148 31.4695 16.3471 31.312 16.3471 31.0959H15.3471C15.3471 31.5647 15.5116 31.9812 15.8426 32.311L16.5485 31.6027ZM16.3471 31.0959C16.3471 30.8799 16.4148 30.7239 16.5473 30.5928L15.8439 29.882C15.5117 30.2107 15.3471 30.6271 15.3471 31.0959H16.3471ZM16.5473 30.5928C16.6812 30.4602 16.84 30.3926 17.0571 30.3926V29.3926C16.5902 29.3926 16.1745 29.5548 15.8439 29.882L16.5473 30.5928ZM17.0571 30.3926H22.3619V29.3926H17.0571V30.3926ZM22.3619 30.3926C22.5802 30.3926 22.7376 30.4607 22.8693 30.5928L23.5776 29.8869C23.2478 29.556 22.8308 29.3926 22.3619 29.3926V30.3926ZM22.8693 30.5928C23.0023 30.7263 23.0709 30.8852 23.0719 31.1031L24.0719 31.0984C24.0697 30.6314 23.9059 30.2164 23.5776 29.8869L22.8693 30.5928ZM23.0719 31.1031C23.0729 31.3173 23.006 31.4719 22.873 31.6026L23.5739 32.3159C23.9087 31.9868 24.0741 31.5691 24.0719 31.0984L23.0719 31.1031ZM22.873 31.6026C22.7364 31.7368 22.5767 31.8041 22.3619 31.8041V32.8041C22.8279 32.8041 23.2426 32.6415 23.5739 32.3159L22.873 31.6026ZM22.3621 31.8041L17.0549 31.8017L17.0545 32.8017L22.3617 32.8041L22.3621 31.8041ZM15.5228 43.9076C12.7417 43.9076 10.3868 42.9591 8.42963 41.0564L7.73256 41.7734C9.8798 43.8609 12.4861 44.9076 15.5228 44.9076V43.9076ZM8.42963 41.0564C6.47472 39.1558 5.50278 36.8505 5.50278 34.1103H4.50278C4.50278 37.1193 5.58305 39.6836 7.73256 41.7734L8.42963 41.0564ZM5.50278 34.1103V12.2233H4.50278V34.1103H5.50278ZM5.00278 11.7233C4.01646 11.7233 3.19739 11.3924 2.51567 10.7272L1.81727 11.4429C2.69084 12.2953 3.76264 12.7233 5.00278 12.7233V11.7233ZM2.51605 10.7275C1.83673 10.0633 1.5 9.25819 1.5 8.28042H0.5C0.5 9.52126 0.940916 10.5859 1.81689 11.4425L2.51605 10.7275ZM1.5 8.28042V4.98867H0.5V8.28042H1.5ZM1.5 4.98867C1.5 4.02657 1.83812 3.21471 2.52908 2.52618L1.82322 1.81783C0.945984 2.69197 0.5 3.75789 0.5 4.98867H1.5ZM2.52908 2.52618C3.22009 1.8376 4.03565 1.5 5.00278 1.5V0.5C3.76927 0.5 2.7004 0.943736 1.82322 1.81783L2.52908 2.52618ZM5.00278 1.5H25.992V0.5H5.00278V1.5ZM25.992 1.5C26.9739 1.5 27.8014 1.83901 28.5017 2.52834L29.2032 1.81567C28.316 0.942323 27.2365 0.5 25.992 0.5V1.5ZM28.5014 2.52798C29.1999 3.21693 29.5407 4.02824 29.5407 4.98867H30.5407C30.5407 3.75622 30.0894 2.68976 29.2036 1.81603L28.5014 2.52798ZM29.5407 4.98867V8.28042H30.5407V4.98867H29.5407ZM29.5407 8.28042C29.5407 9.25514 29.199 10.0593 28.5062 10.7243L29.1987 11.4457C30.0903 10.5899 30.5407 9.5243 30.5407 8.28042H29.5407ZM28.507 10.7236C27.8076 11.3921 26.9785 11.7233 25.992 11.7233V12.7233C27.2319 12.7233 28.3098 12.2956 29.198 11.4464L28.507 10.7236ZM25.492 12.2233V19.1323H26.492V12.2233H25.492ZM25.492 19.1323C25.492 20.0686 25.1628 20.8588 24.4895 21.5297L25.1954 22.238C26.0548 21.3817 26.492 20.3375 26.492 19.1323H25.492ZM24.4895 21.5297C23.816 22.2008 23.0229 22.5293 22.0836 22.5293V23.5293C23.29 23.5293 24.3362 23.0942 25.1954 22.238L24.4895 21.5297ZM22.0836 22.5293H17.0547V23.5293H22.0836V22.5293ZM17.0547 22.5293C16.8363 22.5293 16.6774 22.4612 16.5437 22.3279L15.8378 23.0363C16.1687 23.366 16.5858 23.5293 17.0547 23.5293V22.5293ZM16.5449 22.3291C16.4124 22.1962 16.3447 22.0383 16.3447 21.8212H15.3447C15.3447 22.2889 15.5076 22.7049 15.8366 23.035L16.5449 22.3291ZM16.3447 21.8212C16.3447 21.604 16.4123 21.4477 16.5437 21.3168L15.8378 20.6085C15.5077 20.9374 15.3447 21.3534 15.3447 21.8212H16.3447ZM16.5437 21.3168C16.6752 21.1858 16.8345 21.1164 17.057 21.1154L17.0524 20.1154C16.5843 20.1176 16.1677 20.2798 15.8378 20.6085L16.5437 21.3168ZM17.0547 21.1154H23.5695V20.1154H17.0547V21.1154ZM24.0695 20.6154V12.2233H23.0695V20.6154H24.0695ZM23.5695 11.7233H7.42284V12.7233H23.5695V11.7233ZM6.92284 12.2233V34.1128H7.92284V12.2233H6.92284ZM6.92284 34.1128C6.92284 36.4713 7.76539 38.4728 9.44324 40.0849L10.1361 39.3638C8.65817 37.9438 7.92284 36.2043 7.92284 34.1128H6.92284ZM9.44325 40.0849C11.1157 41.6918 13.1545 42.4961 15.53 42.4961V41.4961C13.4043 41.4961 11.6162 40.7859 10.1361 39.3638L9.44325 40.0849ZM15.53 42.4961C16.3864 42.4961 17.2103 42.3823 17.9999 42.1531L17.7212 41.1927C17.0265 41.3944 16.2968 41.4961 15.53 41.4961V42.4961ZM18.0006 42.1529C18.7912 41.9222 19.5362 41.5812 20.2345 41.1309L19.6926 40.2905C19.0745 40.6891 18.4175 40.9895 17.7205 41.1929L18.0006 42.1529ZM20.222 41.1387C20.3877 41.0387 20.5502 41.0119 20.7361 41.0522L20.948 40.075C20.5112 39.9802 20.088 40.0515 19.7052 40.2827L20.222 41.1387ZM20.7361 41.0522C20.9042 41.0887 21.0229 41.1738 21.1162 41.3383L21.9861 40.8451C21.7567 40.4405 21.4027 40.1736 20.948 40.075L20.7361 41.0522ZM21.1302 41.3615C21.2367 41.5277 21.2661 41.697 21.2155 41.9036L22.1869 42.1415C22.3008 41.6761 22.2303 41.2248 21.9722 40.822L21.1302 41.3615ZM21.2157 41.9031C21.164 42.1133 21.0558 42.2633 20.8767 42.3769L21.4125 43.2213C21.811 42.9684 22.0739 42.6007 22.1867 42.142L21.2157 41.9031ZM20.8875 42.3702C20.0879 42.8495 19.2431 43.2262 18.3523 43.5005L18.6466 44.4562C19.6144 44.1582 20.533 43.7486 21.4017 43.2279L20.8875 42.3702ZM18.3523 43.5005C17.4746 43.7707 16.5316 43.9076 15.5204 43.9076V44.9076C16.6227 44.9076 17.6657 44.7583 18.6466 44.4562L18.3523 43.5005ZM34.4622 40.8273C36.475 40.8273 38.2051 40.1146 39.624 38.699L38.9177 37.991C37.6874 39.2185 36.2118 39.8273 34.4622 39.8273V40.8273ZM39.6238 38.6992C41.0413 37.2867 41.7553 35.5626 41.7553 33.5557H40.7553C40.7553 35.2979 40.1463 36.7667 38.9179 37.9908L39.6238 38.6992ZM41.7553 33.5557C41.7553 31.5488 41.0413 29.8247 39.6238 28.4122L38.9179 29.1206C40.1463 30.3447 40.7553 31.8135 40.7553 33.5557H41.7553ZM39.624 28.4124C38.2051 26.9968 36.475 26.2841 34.4622 26.2841V27.2841C36.2118 27.2841 37.6874 27.8929 38.9177 29.1203L39.624 28.4124ZM34.4622 26.2841C32.4509 26.2841 30.7216 26.9969 29.3028 28.4124L30.0091 29.1203C31.2395 27.8928 32.7143 27.2841 34.4622 27.2841V26.2841ZM29.3032 28.412C27.884 29.8245 27.1691 31.5486 27.1691 33.5557H28.1691C28.1691 31.8137 28.7787 30.3449 30.0087 29.1208L29.3032 28.412ZM27.1691 33.5557C27.1691 35.5626 27.8831 37.2873 29.3004 38.7014L30.0067 37.9934C28.778 36.7677 28.1691 35.2979 28.1691 33.5557H27.1691ZM29.3004 38.7014C30.718 40.1157 32.4484 40.8266 34.4626 40.8249L34.4618 39.8249C32.7104 39.8264 31.235 39.2189 30.0067 37.9934L29.3004 38.7014ZM34.4622 42.2364C32.0339 42.2364 29.9856 41.3953 28.288 39.7053L27.5825 40.4139C29.4699 42.293 31.7729 43.2364 34.4622 43.2364V42.2364ZM28.288 39.7053C26.5908 38.0156 25.7475 35.9756 25.749 33.556L24.749 33.5554C24.7473 36.2386 25.6948 38.5346 27.5825 40.4139L28.288 39.7053ZM25.749 33.556C25.7505 31.1359 26.5941 29.0956 28.2884 27.4058L27.5822 26.6978C25.698 28.577 24.7507 30.8727 24.749 33.5554L25.749 33.556ZM28.2884 27.4058C29.9824 25.7162 32.0305 24.875 34.4622 24.875V23.875C31.7698 23.875 29.4666 24.8183 27.5822 26.6978L28.2884 27.4058ZM34.4622 24.875C36.8939 24.875 38.9419 25.7162 40.636 27.4058L41.3422 26.6978C39.4578 24.8183 37.1545 23.875 34.4622 23.875V24.875ZM40.636 27.4058C42.3302 29.0956 43.1738 31.1359 43.1754 33.556L44.1754 33.5554C44.1737 30.8727 43.2264 28.577 41.3422 26.6978L40.636 27.4058ZM43.1754 33.5557C43.1754 34.5254 43.0205 35.4538 42.7117 36.3435L43.6564 36.6713C44.0027 35.6736 44.1754 34.6342 44.1754 33.5557H43.1754ZM42.7119 36.343C42.4007 37.2369 41.9487 38.0737 41.3537 38.8546L42.1491 39.4607C42.8061 38.5986 43.3092 37.6686 43.6563 36.6718L42.7119 36.343ZM41.3984 39.5118L47.3082 45.4032L48.0142 44.695L42.1044 38.8036L41.3984 39.5118ZM47.3083 45.4032C47.4423 45.5368 47.5 45.6788 47.5 45.8545H48.5C48.5 45.4064 48.3318 45.0114 48.0141 44.6949L47.3083 45.4032ZM47.5 45.8545C47.5 46.0302 47.4423 46.1722 47.3083 46.3058L48.0141 47.0141C48.3318 46.6976 48.5 46.3026 48.5 45.8545H47.5ZM47.3083 46.3058C47.1808 46.4328 47.0284 46.499 46.8166 46.5L46.8214 47.5C47.2808 47.4978 47.6898 47.3373 48.0141 47.0141L47.3083 46.3058ZM46.8166 46.5C46.6076 46.501 46.4704 46.4369 46.3606 46.32L45.6318 47.0047C45.9479 47.3412 46.3592 47.5022 46.8214 47.5L46.8166 46.5ZM46.3477 46.3068L40.4355 40.4613L39.7324 41.1724L45.6446 47.0179L46.3477 46.3068ZM39.7822 40.4182C38.9966 41.0129 38.1564 41.4642 37.2607 41.7744L37.588 42.7193C38.5863 42.3736 39.5193 41.8715 40.3858 41.2155L39.7822 40.4182ZM37.261 41.7743C36.366 42.0837 35.4339 42.2388 34.4622 42.2388V43.2388C35.5426 43.2388 36.5853 43.0659 37.5877 42.7194L37.261 41.7743Z" fill="#A6DB4B" mask="url(#path-2-outside-1_0_147)"/>
</g>
<defs>
<clipPath id="clip0_0_147">
<rect width="48" height="48" fill="white"/>
</clipPath>
</defs>
</svg>
