<svg width="100%" height="100%" viewBox="0 0 48 48" fill="none" xmlns="http://www.w3.org/2000/svg">
<g clip-path="url(#clip0_0_133)">
<path fill-rule="evenodd" clip-rule="evenodd" d="M44 2.66667H4C3.64638 2.66667 3.30724 2.80714 3.05719 3.05719C2.80714 3.30724 2.66667 3.64638 2.66667 4V44C2.66667 44.3536 2.80714 44.6928 3.05719 44.9428C3.30724 45.1929 3.64638 45.3333 4 45.3333H44C44.3536 45.3333 44.6928 45.1929 44.9428 44.9428C45.1929 44.6928 45.3333 44.3536 45.3333 44V4C45.3333 3.64638 45.1929 3.30724 44.9428 3.05719C44.6928 2.80714 44.3536 2.66667 44 2.66667ZM4 0C2.93913 0 1.92172 0.421427 1.17157 1.17157C0.421427 1.92172 0 2.93913 0 4V44C0 45.0609 0.421427 46.0783 1.17157 46.8284C1.92172 47.5786 2.93913 48 4 48H44C45.0609 48 46.0783 47.5786 46.8284 46.8284C47.5786 46.0783 48 45.0609 48 44V4C48 2.93913 47.5786 1.92172 46.8284 1.17157C46.0783 0.421427 45.0609 0 44 0H4Z" fill="#A6DB4B"/>
<path d="M44 2.66667H4C3.64638 2.66667 3.30724 2.80714 3.05719 3.05719C2.80714 3.30724 2.66667 3.64638 2.66667 4V44C2.66667 44.3536 2.80714 44.6928 3.05719 44.9428C3.30724 45.1929 3.64638 45.3333 4 45.3333H44C44.3536 45.3333 44.6928 45.1929 44.9428 44.9428C45.1929 44.6928 45.3333 44.3536 45.3333 44V4C45.3333 3.64638 45.1929 3.30724 44.9428 3.05719C44.6928 2.80714 44.3536 2.66667 44 2.66667Z" fill="#F9FEF0"/>
<path fill-rule="evenodd" clip-rule="evenodd" d="M34.1474 10.0687C34.1474 11.413 33.6117 12.7023 32.6581 13.6529C31.7046 14.6034 30.4113 15.1375 29.0628 15.1375C27.7143 15.1375 26.421 14.6034 25.4675 13.6529C24.514 12.7023 23.9783 11.413 23.9783 10.0687C23.9783 8.72442 24.514 7.43517 25.4675 6.4846C26.421 5.53403 27.7143 5 29.0628 5C30.4113 5 31.7046 5.53403 32.6581 6.4846C33.6117 7.43517 34.1474 8.72442 34.1474 10.0687ZM10.4286 32.0592H18.338L24.3013 37.9255L27.1051 44.3708C27.3917 45.0292 27.9288 45.5472 28.5984 45.8108C29.2681 46.0745 30.0153 46.0621 30.6758 45.7765C31.3363 45.4909 31.8559 44.9554 32.1203 44.2878C32.3848 43.6203 32.3724 42.8754 32.0859 42.2169L29.073 35.29C28.9347 34.9726 28.7366 34.6846 28.4894 34.4417L26.0656 32.0592H37.5714C38.2913 32.0592 38.9817 32.3443 39.4907 32.8517C39.9997 33.3591 40.2857 34.0474 40.2857 34.765V45.5884H43V34.765C43 33.3298 42.4281 31.9533 41.41 30.9384C40.392 29.9235 39.0112 29.3533 37.5714 29.3533H33.3263C33.9682 29.2008 34.5323 28.8203 34.9133 28.2832C35.2942 27.746 35.4657 27.0889 35.3959 26.4348C35.326 25.7806 35.0195 25.1743 34.5337 24.7291C34.0479 24.2839 33.416 24.0304 32.7563 24.016C30.3759 23.9619 29.662 23.5669 29.1504 23.1082C28.807 22.7984 28.4229 22.3289 27.8909 21.5145C27.5082 20.93 27.1146 20.2711 26.6315 19.4634L25.9624 18.35L25.9041 18.2553C25.7167 17.9342 25.5148 17.6218 25.2988 17.3191C25.0341 16.9632 24.5442 16.3855 23.7218 16.0446C22.8953 15.701 22.1285 15.7605 21.6549 15.8349C21.2058 15.9174 20.7618 16.0249 20.3249 16.1569C19.1469 16.4938 18.1656 17.3854 17.5224 18.0821C16.7168 18.9664 16.0323 19.9531 15.4866 21.0166C14.3941 23.1245 13.4441 26.3106 14.7904 29.283L14.823 29.3533H10.4286C8.98882 29.3533 7.60805 29.9235 6.58999 30.9384C5.57194 31.9533 5 33.3298 5 34.765V45.5884H7.71429V34.765C7.71429 34.0474 8.00025 33.3591 8.50928 32.8517C9.01831 32.3443 9.7087 32.0592 10.4286 32.0592ZM31.2336 29.3533H23.316L22.0186 28.0775L24.0719 25.5191C24.5035 26.0955 24.9758 26.6421 25.5186 27.1291C27.1133 28.5605 28.9522 29.1558 31.2336 29.3533ZM14.3263 32.1769L18.7723 36.4278L17.6472 40.2119C17.5785 40.4437 17.4798 40.6629 17.3514 40.8694L14.9546 44.7198C14.5751 45.3297 13.9681 45.7642 13.2671 45.9278C12.5662 46.0915 11.8288 45.9709 11.2171 45.5925C10.6054 45.2141 10.1695 44.609 10.0053 43.9102C9.84115 43.2115 9.96216 42.4763 10.3417 41.8665L12.5471 38.3259L14.044 33.289L14.3263 32.1769Z" fill="#A6DB4B"/>
</g>
<defs>
<clipPath id="clip0_0_133">
<rect width="48" height="48" fill="white"/>
</clipPath>
</defs>
</svg>
