<svg width="100%" height="100%" viewBox="0 0 48 48" fill="none" xmlns="http://www.w3.org/2000/svg">
<path d="M27 13V11H25V9H23V11H21V13H23V15H25V13H27Z" fill="#1D1D1D"/>
<path fill-rule="evenodd" clip-rule="evenodd" d="M35.0173 5.08574C35.0573 5.13038 35.0942 5.17664 35.128 5.22453L35.1293 5.22696L35.1333 5.23305L35.1453 5.25131L35.188 5.31584C35.2271 5.37265 35.28 5.453 35.3467 5.55689C36.1652 6.84311 36.9024 8.17108 37.5547 9.53428C38.744 12.03 40 15.3987 40 18.6079C40 22.2395 37.3133 24.2532 34.9507 25.2929C33.7727 25.804 32.5293 26.1782 31.2493 26.4068C29.2792 28.0775 26.6887 29.0041 24 29C22.3967 29.0012 20.8139 28.6719 19.3694 28.0368C17.9249 27.4017 16.656 26.477 15.6573 25.3318L15.596 25.327C15.3061 25.3029 15.0174 25.2679 14.7307 25.2223C13.8239 25.0808 12.9411 24.8328 12.104 24.4845C11.1307 24.0706 10.096 23.4351 9.304 22.4599C8.5 21.4701 8 20.1966 8 18.6079C8 15.6045 9.60267 12.192 11.0747 9.65724C11.9595 8.13713 12.9416 6.66594 14.016 5.25131L14.0587 5.19653L14.0747 5.1734L14.192 5.01513C14.292 4.88486 14.4347 4.71077 14.6267 4.50624C15.1471 3.95838 15.738 3.46989 16.3867 3.05139C18.0027 1.99952 20.496 1 24.072 1C27.6387 1 30.3547 1.99465 32.184 3.00026C33.0973 3.50306 33.7893 4.00709 34.26 4.39302C34.5162 4.60522 34.7609 4.82869 34.9933 5.06261L35.0067 5.07722L35.0133 5.08331L35.0173 5.08574ZM16.316 6.49311L16.252 6.5832L16.2493 6.58563L16.2387 6.59781L16.1947 6.65624C16.1538 6.70738 16.0951 6.78448 16.0187 6.88756C15.0774 8.14651 14.2129 9.45197 13.4293 10.798C11.984 13.2889 10.6667 16.2448 10.6667 18.6067C10.6667 19.7012 11 20.4596 11.4453 21.0087C11.904 21.5711 12.5373 21.9826 13.2307 22.2773C13.56 22.4173 13.8933 22.5281 14.2107 22.6145C13.9567 21.5697 13.7657 20.513 13.6387 19.4491C13.488 18.1416 13.444 16.6916 13.7133 15.4097C13.9787 14.1533 14.604 12.8031 16.036 12.1007C17.9413 11.1669 21.1653 9.91778 24.008 9.05704C25.4253 8.62728 26.808 8.27544 27.9133 8.11474C28.456 8.03682 29.0133 7.993 29.504 8.03804C29.888 8.07456 30.684 8.20727 31.124 8.8659C34.6973 13.5762 34.7507 17.892 33.8453 21.044C33.584 21.9559 33.2453 22.763 32.896 23.4497C33.192 23.3474 33.4907 23.2305 33.792 23.099C35.7253 22.2468 37.3333 20.8906 37.3333 18.6067C37.3333 15.9015 36.2533 12.9017 35.1093 10.5058C34.5001 9.23287 33.8119 7.99272 33.048 6.79138L32.9227 6.59781L32.8907 6.56737L32.876 6.55276C32.748 6.43216 32.6155 6.31562 32.4787 6.20335C31.9617 5.78401 31.4028 5.40984 30.8093 5.08574C29.32 4.2664 27.0733 3.43489 24.0733 3.43489C21.0813 3.43489 19.124 4.26153 17.932 5.03583C17.4601 5.33949 17.0299 5.69387 16.6507 6.09135C16.5342 6.21688 16.4247 6.34772 16.3227 6.48337L16.316 6.49311ZM16.9907 22.7849L16.8907 22.399C16.623 21.3432 16.4226 20.2741 16.2907 19.1971C16.152 17.9882 16.1347 16.8109 16.3333 15.8699C16.536 14.9056 16.9067 14.4394 17.2973 14.247C19.04 13.3924 22.1187 12.1956 24.848 11.369C26.216 10.955 27.4373 10.6507 28.3307 10.5216C28.668 10.4729 28.916 10.4547 29.084 10.4559C32.0147 14.4345 31.984 17.9273 31.2653 20.428C30.9529 21.5032 30.4805 22.5342 29.8613 23.4923C29.6338 23.8448 29.3822 24.184 29.108 24.5076L29.0987 24.5186L29.0707 24.5502L29.0653 24.5551L29.064 24.5563C28.9106 24.72 28.8076 24.9178 28.7653 25.1297C27.8486 25.7509 26.7969 26.1857 25.6809 26.4048C24.5649 26.624 23.4104 26.6225 22.2951 26.4003C21.1798 26.1782 20.1294 25.7406 19.2147 25.117C18.3 24.4934 17.5408 23.6982 16.9907 22.7849Z" fill="#A6DB4B"/>
<path d="M16.316 6.49311L16.252 6.5832L16.2493 6.58563L16.2387 6.59781L16.1947 6.65624C16.1538 6.70738 16.0951 6.78448 16.0187 6.88756C15.0774 8.14651 14.2129 9.45197 13.4293 10.798C11.984 13.2889 10.6667 16.2448 10.6667 18.6067C10.6667 19.7012 11 20.4596 11.4453 21.0087C11.904 21.5711 12.5373 21.9826 13.2307 22.2773C13.56 22.4173 13.8933 22.5281 14.2107 22.6145C13.9567 21.5697 13.7657 20.513 13.6387 19.4491C13.488 18.1416 13.444 16.6916 13.7133 15.4097C13.9787 14.1533 14.604 12.8031 16.036 12.1007C17.9413 11.1669 21.1653 9.91778 24.008 9.05704C25.4253 8.62728 26.808 8.27544 27.9133 8.11474C28.456 8.03682 29.0133 7.993 29.504 8.03804C29.888 8.07456 30.684 8.20727 31.124 8.8659C34.6973 13.5762 34.7507 17.892 33.8453 21.044C33.584 21.9559 33.2453 22.763 32.896 23.4497C33.192 23.3474 33.4907 23.2305 33.792 23.099C35.7253 22.2468 37.3333 20.8906 37.3333 18.6067C37.3333 15.9015 36.2533 12.9017 35.1093 10.5058C34.5001 9.23287 33.8119 7.99272 33.048 6.79138L32.9227 6.59781L32.8907 6.56737L32.876 6.55276C32.748 6.43216 32.6155 6.31562 32.4787 6.20335C31.9617 5.78401 31.4028 5.40984 30.8093 5.08574C29.32 4.2664 27.0733 3.43489 24.0733 3.43489C21.0813 3.43489 19.124 4.26153 17.932 5.03583C17.4601 5.33949 17.0299 5.69387 16.6507 6.09135C16.5342 6.21688 16.4247 6.34772 16.3227 6.48337L16.316 6.49311Z" fill="#F9FEF0"/>
<path d="M16.9907 22.7849L16.8907 22.399C16.623 21.3432 16.4226 20.2741 16.2907 19.1971C16.152 17.9882 16.1347 16.8109 16.3333 15.8699C16.536 14.9056 16.9067 14.4394 17.2973 14.247C19.04 13.3924 22.1187 12.1956 24.848 11.369C26.216 10.955 27.4373 10.6507 28.3307 10.5216C28.668 10.4729 28.916 10.4547 29.084 10.4559C32.0147 14.4345 31.984 17.9273 31.2653 20.428C30.9529 21.5032 30.4805 22.5342 29.8613 23.4923C29.6338 23.8448 29.3822 24.184 29.108 24.5076L29.0987 24.5186L29.0707 24.5502L29.0653 24.5551L29.064 24.5563C28.9106 24.72 28.8076 24.9178 28.7653 25.1297C27.8486 25.7509 26.7969 26.1857 25.6809 26.4048C24.5649 26.624 23.4104 26.6225 22.2951 26.4003C21.1798 26.1782 20.1294 25.7406 19.2147 25.117C18.3 24.4934 17.5408 23.6982 16.9907 22.7849Z" fill="#F9FEF0"/>
<path fill-rule="evenodd" clip-rule="evenodd" d="M14.5053 29C14.5053 29 0 33.6048 0 39.1338V48H48V39.1338C48 33.6048 33.4947 29 33.4947 29L25.532 34.6905C25.0832 35.0111 24.5483 35.1831 24 35.1831C23.4517 35.1831 22.9168 35.0111 22.468 34.6905L14.5053 29ZM33.9213 32.0129L27.0653 36.9121C26.1677 37.5537 25.0975 37.8979 24.0007 37.8979C22.9038 37.8979 21.8337 37.5537 20.936 36.9121L14.0787 32.0129C12.1541 32.7001 10.272 33.505 8.44267 34.4231C6.71467 35.2999 5.13333 36.2729 4.02133 37.2623C2.82 38.3304 2.66667 38.9655 2.66667 39.1338V45.2857H45.3333V39.1338C45.3333 38.9655 45.18 38.3304 43.9787 37.2609C42.8667 36.2729 41.2853 35.2999 39.556 34.4218C38.0151 33.6494 36.4366 32.9573 34.8267 32.3481C34.4924 32.2214 34.1907 32.1106 33.9213 32.0129Z" fill="#1D1D1D"/>
<path fill-rule="evenodd" clip-rule="evenodd" d="M14.5053 29C14.5053 29 0 33.6048 0 39.1338V48H48V39.1338C48 33.6048 33.4947 29 33.4947 29L25.532 34.6905C25.0832 35.0111 24.5483 35.1831 24 35.1831C23.4517 35.1831 22.9168 35.0111 22.468 34.6905L14.5053 29ZM33.9213 32.0129L27.0653 36.9121C26.1677 37.5537 25.0975 37.8979 24.0007 37.8979C22.9038 37.8979 21.8337 37.5537 20.936 36.9121L14.0787 32.0129C12.1541 32.7001 10.272 33.505 8.44267 34.4231C6.71467 35.2999 5.13333 36.2729 4.02133 37.2623C2.82 38.3304 2.66667 38.9655 2.66667 39.1338V45.2857H45.3333V39.1338C45.3333 38.9655 45.18 38.3304 43.9787 37.2609C42.8667 36.2729 41.2853 35.2999 39.556 34.4218C38.0151 33.6494 36.4366 32.9573 34.8267 32.3481C34.4924 32.2214 34.1907 32.1106 33.9213 32.0129Z" fill="#A6DB4B"/>
<path d="M33.9213 32.0129L27.0653 36.9121C26.1677 37.5537 25.0975 37.8979 24.0007 37.8979C22.9038 37.8979 21.8337 37.5537 20.936 36.9121L14.0787 32.0129C12.1541 32.7001 10.272 33.505 8.44267 34.4231C6.71467 35.2999 5.13333 36.2729 4.02133 37.2623C2.82 38.3304 2.66667 38.9655 2.66667 39.1338V45.2857H45.3333V39.1338C45.3333 38.9655 45.18 38.3304 43.9787 37.2609C42.8667 36.2729 41.2853 35.2999 39.556 34.4218C38.0151 33.6494 36.4366 32.9573 34.8267 32.3481C34.4924 32.2214 34.1907 32.1106 33.9213 32.0129Z" fill="#F9FEF0"/>
<path d="M33.9213 32.0129L27.0653 36.9121C26.1677 37.5537 25.0975 37.8979 24.0007 37.8979C22.9038 37.8979 21.8337 37.5537 20.936 36.9121L14.0787 32.0129C12.1541 32.7001 10.272 33.505 8.44267 34.4231C6.71467 35.2999 5.13333 36.2729 4.02133 37.2623C2.82 38.3304 2.66667 38.9655 2.66667 39.1338V45.2857H45.3333V39.1338C45.3333 38.9655 45.18 38.3304 43.9787 37.2609C42.8667 36.2729 41.2853 35.2999 39.556 34.4218C38.0151 33.6494 36.4366 32.9573 34.8267 32.3481C34.4924 32.2214 34.1907 32.1106 33.9213 32.0129Z" fill="#F9FEF0"/>
<path d="M37.3333 36.6667H40V39.3333H37.3333V42H34.6667V39.3333H32V36.6667H34.6667V34H37.3333V36.6667Z" fill="#A6DB4B"/>
</svg>
