<svg width="100%" height="100%" viewBox="0 0 73 48" fill="none" xmlns="http://www.w3.org/2000/svg">
<g clip-path="url(#clip0_0_75)">
<path d="M33.4478 -0.156897C32.3743 -0.0591553 32.0604 0.0385859 31.8788 0.396971C31.7301 0.657614 31.7466 0.820517 31.9613 1.13003C32.1926 1.48842 32.3247 1.521 33.4148 1.521C34.158 1.521 34.7361 1.43954 34.9178 1.30922C35.5454 0.853097 35.116 -0.319799 34.3728 -0.238348C34.2241 -0.222058 33.8112 -0.189477 33.4478 -0.156897Z" fill="#A6DB4B" stroke="#A6DB4B" stroke-width="0.5"/>
<path d="M38.3197 -0.140266C37.7416 0.0552163 37.626 1.0815 38.138 1.35843C38.6665 1.63537 40.7311 1.57021 41.0284 1.26069C41.7056 0.592794 41.0614 -0.0588152 39.641 -0.156556C39.0464 -0.189137 38.4518 -0.189137 38.3197 -0.140266Z" fill="#A6DB4B" stroke="#A6DB4B" stroke-width="0.5"/>
<path d="M27.384 0.624857C26.8554 0.722598 26.3269 0.918081 26.1783 1.03211C25.8314 1.30905 25.8644 1.89549 26.2443 2.23759C26.5251 2.48194 26.6737 2.49823 27.6813 2.30275C29.2668 2.02582 29.7954 1.42308 29.0686 0.706308C28.6888 0.331633 28.6722 0.331633 27.384 0.624857Z" fill="#A6DB4B" stroke="#A6DB4B" stroke-width="0.5"/>
<path d="M44.1493 0.543756C43.786 0.690368 43.6869 0.951012 43.7694 1.52117C43.819 1.92842 44.0172 2.02617 45.2064 2.27052C46.5938 2.56374 47.0727 2.41713 47.0727 1.68407C47.0727 1.11391 46.6433 0.788109 45.6688 0.641497C45.3055 0.576337 44.8926 0.494885 44.7604 0.462305C44.6283 0.429724 44.3475 0.462305 44.1493 0.543756Z" fill="#A6DB4B" stroke="#A6DB4B" stroke-width="0.5"/>
<path d="M21.3528 2.40074C20.3949 2.84058 20.048 3.2967 20.3123 3.78541C20.5765 4.30669 21.072 4.33928 22.096 3.94831C23.4009 3.42702 23.7312 3.11751 23.5165 2.54735C23.3018 1.92832 22.509 1.87945 21.3528 2.40074Z" fill="#A6DB4B" stroke="#A6DB4B" stroke-width="0.5"/>
<path d="M49.5132 2.41717C49.2489 3.00361 49.5958 3.41087 50.785 3.89958C51.875 4.33941 52.4036 4.30683 52.7009 3.78554C52.9982 3.21539 52.6678 2.75926 51.6108 2.36829C50.339 1.87959 49.7609 1.89588 49.5132 2.41717Z" fill="#A6DB4B" stroke="#A6DB4B" stroke-width="0.5"/>
<path d="M34.6359 4.76254C33.8431 5.56076 33.1989 6.3264 33.1989 6.47301C33.1989 6.61963 33.3476 6.88027 33.5458 7.07576C33.9587 7.48301 34.4046 7.36898 35.1479 6.68479L35.6764 6.17979V8.6722V11.1809L35.0653 11.0832C34.7184 11.0343 33.4302 10.8388 32.2079 10.6596C30.9362 10.4641 29.0863 10.3175 27.8971 10.3012H25.8326L25.2215 8.98171C24.8911 8.24865 24.6434 7.62962 24.6764 7.58075C24.7095 7.54817 24.8911 7.59704 25.0728 7.69479C25.6509 8.0043 26.229 7.90656 26.5263 7.46672C26.9722 6.78253 26.5758 6.42415 24.5443 5.69109C22.777 5.05577 22.777 5.05577 22.4467 5.38157C21.9842 5.8377 20.9272 8.65591 21.0593 9.12832C21.1584 9.51929 21.7695 9.77993 22.2155 9.60074C22.3641 9.55187 22.5953 9.22606 22.744 8.90026L22.9917 8.28123L23.3716 9.01429C24.0983 10.4478 24.1149 10.4152 22.6779 10.7248C19.8371 11.3438 17.1119 12.6633 14.3867 14.7485C10.2575 17.9413 8.2095 18.9839 1.58639 21.346C0.165973 21.8347 -0.0982904 22.0953 0.0668743 22.7469C0.199006 23.2682 2.32963 25.4023 4.08038 26.7869C8.98577 30.6477 15.9722 33.808 22.5953 35.1764C23.3386 35.3393 23.9497 35.5348 23.9497 35.6162C23.9497 35.6977 23.7515 36.2027 23.5038 36.7402L23.0743 37.7014L22.7275 37.0823C22.4467 36.5936 22.265 36.447 21.8356 36.4144C21.4062 36.3656 21.274 36.4307 21.1254 36.7728C20.9602 37.1312 21.0263 37.4244 21.5383 38.7765C22.265 40.6173 22.3641 40.7802 22.8926 40.7802C23.6359 40.7802 26.4437 39.6073 26.5758 39.2489C26.9061 38.3856 26.1629 37.848 25.1884 38.2552C24.8746 38.3693 24.6104 38.467 24.6104 38.4344C24.6104 38.4019 24.8746 37.8154 25.1884 37.1312C25.8491 35.6977 25.6013 35.7791 28.3926 36.1375C29.4497 36.2841 31.5142 36.447 32.9512 36.5122L35.5938 36.6262L35.6434 38.8091L35.6929 40.992L35.0157 40.3893C34.6524 40.0635 34.2064 39.8028 34.0247 39.8028C33.6118 39.8028 33.1329 40.5033 33.265 40.9105C33.4467 41.4481 36.0893 43.8754 36.5022 43.8754C36.9151 43.8754 39.5578 41.4481 39.7394 40.9105C39.8716 40.5033 39.3926 39.8028 38.9797 39.8028C38.798 39.8028 38.3521 40.0635 37.9887 40.3893L37.3115 40.992L37.3611 38.8091L37.4106 36.6262L39.8881 36.5122C42.1013 36.4307 43.4226 36.3004 46.3625 35.9583L47.2049 35.8443L47.7995 37.1149C48.1298 37.8154 48.3941 38.4019 48.3941 38.4344C48.3941 38.467 48.0968 38.3856 47.7169 38.2552C47.0728 38.0272 47.0397 38.0272 46.6433 38.4181C45.9827 39.0698 46.28 39.4607 47.9151 40.096C49.5502 40.7476 50.2935 40.8943 50.6073 40.6336C50.7229 40.5359 51.1193 39.7051 51.4496 38.8091C51.9782 37.4244 52.0442 37.1149 51.8791 36.7728C51.7304 36.4307 51.5983 36.3656 51.1523 36.4144C50.7229 36.447 50.5577 36.5773 50.31 37.1149L49.9797 37.7665L49.5337 36.7891C49.2695 36.2515 49.0713 35.7303 49.0547 35.6488C49.0547 35.5511 49.6824 35.3556 50.4586 35.1927C58.4526 33.5637 66.4631 29.5074 71.4841 24.5389C72.6898 23.3334 73.0036 22.9424 73.0036 22.5515C73.0036 22.2908 72.9045 22.0139 72.8054 21.9161C72.6898 21.8347 71.2529 21.2645 69.6177 20.6618C66.0337 19.3586 62.4 17.6155 60.9961 16.5567C57.6433 14.0154 56.7844 13.3964 55.7109 12.7936C54.1418 11.8977 52.3745 11.1972 50.5412 10.7736C49.7319 10.5944 49.0547 10.3501 49.0547 10.2523C49.0713 10.1546 49.286 9.6659 49.5337 9.17719L50.0127 8.28123L50.2604 8.90026C50.5577 9.58445 50.8385 9.74735 51.4331 9.60074C52.1103 9.43784 52.1103 8.94913 51.4496 7.22237C50.5743 4.90916 50.6073 4.92545 48.4601 5.69109C46.4286 6.42415 46.0322 6.78253 46.4782 7.46672C46.7755 7.90656 47.3535 8.0043 47.9316 7.69479C48.1133 7.59704 48.2785 7.54817 48.3115 7.58075C48.3445 7.61333 48.0803 8.23236 47.7334 8.96542L47.1058 10.2849L45.1403 10.3012C43.0097 10.3175 41.2094 10.513 38.8641 10.9528L37.328 11.2461V8.72107V6.21237L37.9887 6.79882C38.3521 7.12463 38.765 7.38527 38.8971 7.38527C39.2274 7.38527 39.8055 6.79882 39.8055 6.47301C39.8055 6.3264 39.1614 5.56076 38.3686 4.76254C37.2785 3.65481 36.8325 3.31271 36.5022 3.31271C36.1719 3.31271 35.7259 3.65481 34.6359 4.76254ZM30.7214 12.1094C31.4977 12.2072 33.1163 12.4678 34.322 12.6959L36.5022 13.1031L38.6989 12.6959C41.9361 12.0931 43.2409 11.9465 45.5698 11.9465C50.6403 11.9465 54.0592 13.2172 58.4691 16.7684C60.864 18.6907 63.1433 19.945 66.9751 21.4926C68.891 22.2582 68.9241 22.2908 68.379 22.4049C68.0652 22.4863 66.6778 22.584 65.3069 22.6492C62.2844 22.7632 60.3355 22.5515 57.6433 21.8021C54.7694 21.0039 53.4646 20.841 49.9631 20.841C46.6599 20.8573 43.9511 21.1179 39.9707 21.8184C38.7485 22.0302 37.1794 22.2094 36.5022 22.2094C35.825 22.2094 34.256 22.0302 33.0338 21.8184C29.0533 21.1179 26.3446 20.8573 23.0413 20.841C19.5398 20.841 18.235 21.0039 15.3776 21.8021C12.6029 22.5678 10.8852 22.7632 7.8131 22.6492C6.37617 22.584 4.93923 22.4863 4.62542 22.4211C4.08038 22.2908 4.11341 22.2582 6.02932 21.4926C9.86114 19.945 12.1404 18.6907 14.5353 16.7684C17.8056 14.1457 20.5638 12.7773 23.735 12.2072C25.2875 11.9302 28.8055 11.8814 30.7214 12.1094ZM29.1194 22.9261C30.1764 23.0728 32.0758 23.3823 33.3311 23.594C36.1554 24.099 36.8491 24.099 39.6734 23.594C43.6373 22.8936 45.7514 22.6655 49.0547 22.584C52.6884 22.4863 54.4061 22.6818 57.313 23.48C58.2709 23.7407 59.6088 24.0502 60.2859 24.1805C61.855 24.4574 66.397 24.4574 68.0982 24.1805C68.8084 24.0665 69.4195 24.0013 69.4526 24.0339C69.4856 24.0665 69.0727 24.4574 68.5277 24.8973C62.0367 30.1916 53.9106 33.3356 43.4391 34.6225C40.7469 34.9483 31.5473 34.8995 28.8221 34.5248C25.8326 34.1338 22.2485 33.417 19.8701 32.7166C13.9572 31.0224 8.17646 28.0413 4.21251 24.6529L3.38669 23.9524L4.04734 24.0502C7.66445 24.6529 11.711 24.5063 15.0143 23.6429C17.756 22.9424 18.1359 22.861 19.2425 22.6981C20.7455 22.4863 26.9061 22.6329 29.1194 22.9261Z" fill="#A6DB4B"/>
<path d="M30.7214 12.1094C31.4977 12.2072 33.1163 12.4678 34.322 12.6959L36.5022 13.1031L38.6989 12.6959C41.9361 12.0931 43.2409 11.9465 45.5698 11.9465C50.6403 11.9465 54.0592 13.2172 58.4691 16.7684C60.864 18.6907 63.1433 19.945 66.9751 21.4926C68.891 22.2582 68.9241 22.2908 68.379 22.4049C68.0652 22.4863 66.6778 22.584 65.3069 22.6492C62.2844 22.7632 60.3355 22.5515 57.6433 21.8021C54.7694 21.0039 53.4646 20.841 49.9631 20.841C46.6599 20.8573 43.9511 21.1179 39.9707 21.8184C38.7485 22.0302 37.1794 22.2094 36.5022 22.2094C35.825 22.2094 34.256 22.0302 33.0338 21.8184C29.0533 21.1179 26.3446 20.8573 23.0413 20.841C19.5398 20.841 18.235 21.0039 15.3776 21.8021C12.6029 22.5678 10.8852 22.7632 7.8131 22.6492C6.37617 22.584 4.93923 22.4863 4.62542 22.4211C4.08038 22.2908 4.11341 22.2582 6.02932 21.4926C9.86114 19.945 12.1404 18.6907 14.5353 16.7684C17.8056 14.1457 20.5638 12.7773 23.735 12.2072C25.2875 11.9302 28.8055 11.8814 30.7214 12.1094Z" fill="#F9FEF0"/>
<path d="M29.1194 22.9261C30.1764 23.0728 32.0758 23.3823 33.3311 23.594C36.1554 24.099 36.8491 24.099 39.6734 23.594C43.6373 22.8936 45.7514 22.6655 49.0547 22.584C52.6884 22.4863 54.4061 22.6818 57.313 23.48C58.2709 23.7407 59.6088 24.0502 60.2859 24.1805C61.855 24.4574 66.397 24.4574 68.0982 24.1805C68.8084 24.0665 69.4195 24.0013 69.4526 24.0339C69.4856 24.0665 69.0727 24.4574 68.5277 24.8973C62.0367 30.1916 53.9106 33.3356 43.4391 34.6225C40.7469 34.9483 31.5473 34.8995 28.8221 34.5248C25.8326 34.1338 22.2485 33.417 19.8701 32.7166C13.9572 31.0224 8.17646 28.0413 4.21251 24.6529L3.38669 23.9524L4.04734 24.0502C7.66445 24.6529 11.711 24.5063 15.0143 23.6429C17.756 22.9424 18.1359 22.861 19.2425 22.6981C20.7455 22.4863 26.9061 22.6329 29.1194 22.9261Z" fill="#F9FEF0"/>
<path d="M34.6359 4.76254C33.8431 5.56076 33.1989 6.3264 33.1989 6.47301C33.1989 6.61963 33.3476 6.88027 33.5458 7.07576C33.9587 7.48301 34.4046 7.36898 35.1479 6.68479L35.6764 6.17979V8.6722V11.1809L35.0653 11.0832C34.7184 11.0343 33.4302 10.8388 32.2079 10.6596C30.9362 10.4641 29.0863 10.3175 27.8971 10.3012H25.8326L25.2215 8.98171C24.8911 8.24865 24.6434 7.62962 24.6764 7.58075C24.7095 7.54817 24.8911 7.59704 25.0728 7.69479C25.6509 8.0043 26.229 7.90656 26.5263 7.46672C26.9722 6.78253 26.5758 6.42415 24.5443 5.69109C22.777 5.05577 22.777 5.05577 22.4467 5.38157C21.9842 5.8377 20.9272 8.65591 21.0593 9.12832C21.1584 9.51929 21.7695 9.77993 22.2155 9.60074C22.3641 9.55187 22.5953 9.22606 22.744 8.90026L22.9917 8.28123L23.3716 9.01429C24.0983 10.4478 24.1149 10.4152 22.6779 10.7248C19.8371 11.3438 17.1119 12.6633 14.3867 14.7485C10.2575 17.9413 8.2095 18.9839 1.58639 21.346C0.165973 21.8347 -0.0982904 22.0953 0.0668743 22.7469C0.199006 23.2682 2.32963 25.4023 4.08038 26.7869C8.98577 30.6477 15.9722 33.808 22.5953 35.1764C23.3386 35.3393 23.9497 35.5348 23.9497 35.6162C23.9497 35.6977 23.7515 36.2027 23.5038 36.7402L23.0743 37.7014L22.7275 37.0823C22.4467 36.5936 22.265 36.447 21.8356 36.4144C21.4062 36.3656 21.274 36.4307 21.1254 36.7728C20.9602 37.1312 21.0263 37.4244 21.5383 38.7765C22.265 40.6173 22.3641 40.7802 22.8926 40.7802C23.6359 40.7802 26.4437 39.6073 26.5758 39.2489C26.9061 38.3856 26.1629 37.848 25.1884 38.2552C24.8746 38.3693 24.6104 38.467 24.6104 38.4344C24.6104 38.4019 24.8746 37.8154 25.1884 37.1312C25.8491 35.6977 25.6013 35.7791 28.3926 36.1375C29.4497 36.2841 31.5142 36.447 32.9512 36.5122L35.5938 36.6262L35.6434 38.8091L35.6929 40.992L35.0157 40.3893C34.6524 40.0635 34.2064 39.8028 34.0247 39.8028C33.6118 39.8028 33.1329 40.5033 33.265 40.9105C33.4467 41.4481 36.0893 43.8754 36.5022 43.8754C36.9151 43.8754 39.5578 41.4481 39.7394 40.9105C39.8716 40.5033 39.3926 39.8028 38.9797 39.8028C38.798 39.8028 38.3521 40.0635 37.9887 40.3893L37.3115 40.992L37.3611 38.8091L37.4106 36.6262L39.8881 36.5122C42.1013 36.4307 43.4226 36.3004 46.3625 35.9583L47.2049 35.8443L47.7995 37.1149C48.1298 37.8154 48.3941 38.4019 48.3941 38.4344C48.3941 38.467 48.0968 38.3856 47.7169 38.2552C47.0728 38.0272 47.0397 38.0272 46.6433 38.4181C45.9827 39.0698 46.28 39.4607 47.9151 40.096C49.5502 40.7476 50.2935 40.8943 50.6073 40.6336C50.7229 40.5359 51.1193 39.7051 51.4496 38.8091C51.9782 37.4244 52.0442 37.1149 51.8791 36.7728C51.7304 36.4307 51.5983 36.3656 51.1523 36.4144C50.7229 36.447 50.5577 36.5773 50.31 37.1149L49.9797 37.7665L49.5337 36.7891C49.2695 36.2515 49.0713 35.7303 49.0547 35.6488C49.0547 35.5511 49.6824 35.3556 50.4586 35.1927C58.4526 33.5637 66.4631 29.5074 71.4841 24.5389C72.6898 23.3334 73.0036 22.9424 73.0036 22.5515C73.0036 22.2908 72.9045 22.0139 72.8054 21.9161C72.6898 21.8347 71.2529 21.2645 69.6177 20.6618C66.0337 19.3586 62.4 17.6155 60.9961 16.5567C57.6433 14.0154 56.7844 13.3964 55.7109 12.7936C54.1418 11.8977 52.3745 11.1972 50.5412 10.7736C49.7319 10.5944 49.0547 10.3501 49.0547 10.2523C49.0713 10.1546 49.286 9.6659 49.5337 9.17719L50.0127 8.28123L50.2604 8.90026C50.5577 9.58445 50.8385 9.74735 51.4331 9.60074C52.1103 9.43784 52.1103 8.94913 51.4496 7.22237C50.5743 4.90916 50.6073 4.92545 48.4601 5.69109C46.4286 6.42415 46.0322 6.78253 46.4782 7.46672C46.7755 7.90656 47.3535 8.0043 47.9316 7.69479C48.1133 7.59704 48.2785 7.54817 48.3115 7.58075C48.3445 7.61333 48.0803 8.23236 47.7334 8.96542L47.1058 10.2849L45.1403 10.3012C43.0097 10.3175 41.2094 10.513 38.8641 10.9528L37.328 11.2461V8.72107V6.21237L37.9887 6.79882C38.3521 7.12463 38.765 7.38527 38.8971 7.38527C39.2274 7.38527 39.8055 6.79882 39.8055 6.47301C39.8055 6.3264 39.1614 5.56076 38.3686 4.76254C37.2785 3.65481 36.8325 3.31271 36.5022 3.31271C36.1719 3.31271 35.7259 3.65481 34.6359 4.76254ZM30.7214 12.1094C31.4977 12.2072 33.1163 12.4678 34.322 12.6959L36.5022 13.1031L38.6989 12.6959C41.9361 12.0931 43.2409 11.9465 45.5698 11.9465C50.6403 11.9465 54.0592 13.2172 58.4691 16.7684C60.864 18.6907 63.1433 19.945 66.9751 21.4926C68.891 22.2582 68.9241 22.2908 68.379 22.4049C68.0652 22.4863 66.6778 22.584 65.3069 22.6492C62.2844 22.7632 60.3355 22.5515 57.6433 21.8021C54.7694 21.0039 53.4646 20.841 49.9631 20.841C46.6599 20.8573 43.9511 21.1179 39.9707 21.8184C38.7485 22.0302 37.1794 22.2094 36.5022 22.2094C35.825 22.2094 34.256 22.0302 33.0338 21.8184C29.0533 21.1179 26.3446 20.8573 23.0413 20.841C19.5398 20.841 18.235 21.0039 15.3776 21.8021C12.6029 22.5678 10.8852 22.7632 7.8131 22.6492C6.37617 22.584 4.93923 22.4863 4.62542 22.4211C4.08038 22.2908 4.11341 22.2582 6.02932 21.4926C9.86114 19.945 12.1404 18.6907 14.5353 16.7684C17.8056 14.1457 20.5638 12.7773 23.735 12.2072C25.2875 11.9302 28.8055 11.8814 30.7214 12.1094ZM29.1194 22.9261C30.1764 23.0728 32.0758 23.3823 33.3311 23.594C36.1554 24.099 36.8491 24.099 39.6734 23.594C43.6373 22.8936 45.7514 22.6655 49.0547 22.584C52.6884 22.4863 54.4061 22.6818 57.313 23.48C58.2709 23.7407 59.6088 24.0502 60.2859 24.1805C61.855 24.4574 66.397 24.4574 68.0982 24.1805C68.8084 24.0665 69.4195 24.0013 69.4526 24.0339C69.4856 24.0665 69.0727 24.4574 68.5277 24.8973C62.0367 30.1916 53.9106 33.3356 43.4391 34.6225C40.7469 34.9483 31.5473 34.8995 28.8221 34.5248C25.8326 34.1338 22.2485 33.417 19.8701 32.7166C13.9572 31.0224 8.17646 28.0413 4.21251 24.6529L3.38669 23.9524L4.04734 24.0502C7.66445 24.6529 11.711 24.5063 15.0143 23.6429C17.756 22.9424 18.1359 22.861 19.2425 22.6981C20.7455 22.4863 26.9061 22.6329 29.1194 22.9261Z" stroke="#A6DB4B" stroke-width="0.5"/>
<path d="M30.7214 12.1094C31.4977 12.2072 33.1163 12.4678 34.322 12.6959L36.5022 13.1031L38.6989 12.6959C41.9361 12.0931 43.2409 11.9465 45.5698 11.9465C50.6403 11.9465 54.0592 13.2172 58.4691 16.7684C60.864 18.6907 63.1433 19.945 66.9751 21.4926C68.891 22.2582 68.9241 22.2908 68.379 22.4049C68.0652 22.4863 66.6778 22.584 65.3069 22.6492C62.2844 22.7632 60.3355 22.5515 57.6433 21.8021C54.7694 21.0039 53.4646 20.841 49.9631 20.841C46.6599 20.8573 43.9511 21.1179 39.9707 21.8184C38.7485 22.0302 37.1794 22.2094 36.5022 22.2094C35.825 22.2094 34.256 22.0302 33.0338 21.8184C29.0533 21.1179 26.3446 20.8573 23.0413 20.841C19.5398 20.841 18.235 21.0039 15.3776 21.8021C12.6029 22.5678 10.8852 22.7632 7.8131 22.6492C6.37617 22.584 4.93923 22.4863 4.62542 22.4211C4.08038 22.2908 4.11341 22.2582 6.02932 21.4926C9.86114 19.945 12.1404 18.6907 14.5353 16.7684C17.8056 14.1457 20.5638 12.7773 23.735 12.2072C25.2875 11.9302 28.8055 11.8814 30.7214 12.1094Z" stroke="#A6DB4B" stroke-width="0.5"/>
<path d="M29.1194 22.9261C30.1764 23.0728 32.0758 23.3823 33.3311 23.594C36.1554 24.099 36.8491 24.099 39.6734 23.594C43.6373 22.8936 45.7514 22.6655 49.0547 22.584C52.6884 22.4863 54.4061 22.6818 57.313 23.48C58.2709 23.7407 59.6088 24.0502 60.2859 24.1805C61.855 24.4574 66.397 24.4574 68.0982 24.1805C68.8084 24.0665 69.4195 24.0013 69.4526 24.0339C69.4856 24.0665 69.0727 24.4574 68.5277 24.8973C62.0367 30.1916 53.9106 33.3356 43.4391 34.6225C40.7469 34.9483 31.5473 34.8995 28.8221 34.5248C25.8326 34.1338 22.2485 33.417 19.8701 32.7166C13.9572 31.0224 8.17646 28.0413 4.21251 24.6529L3.38669 23.9524L4.04734 24.0502C7.66445 24.6529 11.711 24.5063 15.0143 23.6429C17.756 22.9424 18.1359 22.861 19.2425 22.6981C20.7455 22.4863 26.9061 22.6329 29.1194 22.9261Z" stroke="#A6DB4B" stroke-width="0.5"/>
<path d="M16.1876 5.28378C15.2461 6.01684 15.114 6.22861 15.2626 6.81506C15.4443 7.54812 16.072 7.51554 17.1125 6.73361C18.2686 5.83765 18.4503 5.54442 18.087 5.00685C17.7071 4.43669 17.1786 4.51814 16.1876 5.28378Z" fill="#A6DB4B" stroke="#A6DB4B" stroke-width="0.5"/>
<path d="M55.0341 4.81135C54.9185 4.92539 54.8359 5.20232 54.8359 5.44667C54.8359 5.78877 55.0507 6.0657 55.7939 6.63586C56.8179 7.43408 57.1482 7.53182 57.5612 7.12457C58.0236 6.65215 57.7924 6.08199 56.8509 5.31635C55.9756 4.61587 55.3975 4.45297 55.0341 4.81135Z" fill="#A6DB4B" stroke="#A6DB4B" stroke-width="0.5"/>
<path d="M12.9661 9.34042C12.5697 9.78026 12.5202 11.0998 12.9001 11.3441C13.346 11.6211 13.9901 11.3441 14.1883 10.7902C14.4196 10.1061 14.4196 9.45445 14.1718 9.2101C13.8745 8.91687 13.2965 8.98203 12.9661 9.34042Z" fill="#A6DB4B" stroke="#A6DB4B" stroke-width="0.5"/>
<path d="M58.8286 9.20998C58.5808 9.45433 58.5808 10.1059 58.812 10.7901C59.0102 11.344 59.6544 11.6209 60.1003 11.344C60.4802 11.0996 60.4307 9.78013 60.0343 9.3403C59.7039 8.98191 59.1258 8.91675 58.8286 9.20998Z" fill="#A6DB4B" stroke="#A6DB4B" stroke-width="0.5"/>
<path d="M12.7207 36.7893C12.4234 37.1314 12.6216 38.3043 13.0345 38.7115C13.3153 38.9885 13.4639 39.021 13.8273 38.8907C14.075 38.8093 14.3062 38.5975 14.3393 38.4346C14.4384 37.9622 14.2237 37.0662 13.9429 36.7893C13.6126 36.4798 12.9849 36.4798 12.7207 36.7893Z" fill="#A6DB4B" stroke="#A6DB4B" stroke-width="0.5"/>
<path d="M59.1812 36.6753C58.7022 36.9686 58.4709 38.4347 58.8343 38.7931C59.1316 39.0863 59.7097 39.0211 60.0235 38.679C60.4034 38.2718 60.5685 37.1152 60.2878 36.7894C60.073 36.5287 59.5115 36.4636 59.1812 36.6753Z" fill="#A6DB4B" stroke="#A6DB4B" stroke-width="0.5"/>
<path d="M15.4594 40.8292C14.9308 41.2202 15.1786 41.9044 16.1531 42.6863C17.3423 43.6474 18.1681 43.5985 18.1681 42.556C18.1681 42.2139 17.9534 41.9369 17.2266 41.3668C16.2191 40.5686 15.9384 40.4871 15.4594 40.8292Z" fill="#A6DB4B" stroke="#A6DB4B" stroke-width="0.5"/>
<path d="M55.8083 41.3508C54.7182 42.1979 54.5696 42.4749 54.9164 42.9961C55.2963 43.5826 55.8414 43.4848 56.8819 42.6378C57.8564 41.8558 58.0546 41.3671 57.5426 40.8784C57.1462 40.4712 56.7993 40.5689 55.8083 41.3508Z" fill="#A6DB4B" stroke="#A6DB4B" stroke-width="0.5"/>
<path d="M20.3798 44.1199C19.9504 44.7552 20.2642 45.2113 21.3873 45.6349C22.4939 46.0584 23.006 46.091 23.3528 45.7326C23.9144 45.1787 23.551 44.6412 22.2132 44.1036C20.9579 43.6149 20.7102 43.6149 20.3798 44.1199Z" fill="#A6DB4B" stroke="#A6DB4B" stroke-width="0.5"/>
<path d="M50.7432 44.1037C49.554 44.5924 49.2732 44.8856 49.4879 45.4558C49.7027 46.0911 50.4459 46.14 51.602 45.6187C52.6096 45.1626 52.9564 44.7064 52.7087 44.2177C52.3783 43.615 51.9654 43.5987 50.7432 44.1037Z" fill="#A6DB4B" stroke="#A6DB4B" stroke-width="0.5"/>
<path d="M26.2295 45.6835C25.8661 45.879 25.8331 46.6935 26.18 46.9705C26.4938 47.2311 28.3271 47.6058 28.7235 47.508C29.4502 47.3288 29.4337 46.0745 28.707 45.9116C26.6259 45.4555 26.6259 45.4555 26.2295 45.6835Z" fill="#A6DB4B" stroke="#A6DB4B" stroke-width="0.5"/>
<path d="M45.3368 45.6835C44.9734 45.7649 44.5109 45.8627 44.3127 45.9115C43.5695 46.0745 43.4208 47.1007 44.098 47.4591C44.4614 47.6546 46.4268 47.2962 46.8232 46.9704C47.1536 46.6935 47.137 46.107 46.7737 45.7812C46.4434 45.4717 46.3112 45.4717 45.3368 45.6835Z" fill="#A6DB4B" stroke="#A6DB4B" stroke-width="0.5"/>
<path d="M31.8475 46.8895C31.6989 47.199 31.7154 47.3619 31.9301 47.6714C32.1613 48.0135 32.3595 48.0786 33.3175 48.1601C34.6883 48.2415 35.1838 48.0135 35.1838 47.2967C35.1838 46.6451 34.804 46.4822 33.2844 46.4822C32.1283 46.4822 32.0292 46.5148 31.8475 46.8895Z" fill="#A6DB4B" stroke="#A6DB4B" stroke-width="0.5"/>
<path d="M38.0864 46.6937C37.69 46.987 37.69 47.7689 38.0864 48.0621C38.2846 48.2087 38.6149 48.2576 38.9782 48.2087C39.2921 48.1599 39.8371 48.111 40.1674 48.111C40.6464 48.111 40.8446 48.0132 41.0593 47.7037C41.3071 47.3291 41.3071 47.2639 41.0593 46.8892C40.8116 46.5145 40.6794 46.482 39.5894 46.482C38.8461 46.482 38.268 46.5634 38.0864 46.6937Z" fill="#A6DB4B" stroke="#A6DB4B" stroke-width="0.5"/>
</g>
<defs>
<clipPath id="clip0_0_75">
<rect width="73" height="48" fill="white"/>
</clipPath>
</defs>
</svg>
