<svg width="100%" height="100%" viewBox="0 0 48 48" fill="none" xmlns="http://www.w3.org/2000/svg">
<g clip-path="url(#clip0_0_115)">
<path d="M22.7365 0.440643C19.3521 0.843769 16.7553 2.08127 14.4303 4.39689C12.424 6.40314 11.2428 8.61564 10.6709 11.475C10.3803 12.9094 10.4178 14.6438 10.8678 19.9219C11.2615 24.6188 11.3178 25.0313 11.8803 26.4375C12.6021 28.2469 13.5115 29.4 15.9678 31.6313L17.8146 33.3188V34.6781C17.8146 35.85 17.7865 36.1031 17.6178 36.4688C17.4021 36.9563 16.9521 37.4531 16.549 37.6594C16.399 37.7438 13.7178 38.6625 10.5959 39.7031C7.47401 40.7438 4.68964 41.7188 4.40839 41.8594C2.60839 42.7688 1.10839 44.3344 0.274012 46.1813C-0.0447384 46.8844 -0.0634884 47.1469 0.189637 47.4188C0.386512 47.625 0.874012 47.7 1.09901 47.55C1.16464 47.5125 1.38964 47.1188 1.59589 46.6875C2.09276 45.6938 2.43026 45.1969 3.09589 44.5313C3.71464 43.9125 4.27714 43.5094 5.08339 43.1063C5.40214 42.9563 8.08339 42.0188 11.0553 41.0438C14.0271 40.0688 16.7178 39.1406 17.0271 38.9906C17.4209 38.8031 17.7865 38.5313 18.1709 38.1188C18.8928 37.3406 19.1365 36.7313 19.2021 35.5594C19.2209 35.0813 19.2584 34.6875 19.2865 34.6875C19.3053 34.6875 19.4646 34.7906 19.624 34.9125C20.674 35.7 21.574 35.9063 24.0021 35.9063C26.4303 35.9063 27.3303 35.7 28.3803 34.9125C28.5396 34.7906 28.699 34.6875 28.7271 34.6875C28.7553 34.6875 28.7834 34.9969 28.7834 35.3813C28.7834 36.8719 29.4678 38.1094 30.7053 38.8594C31.1178 39.1031 33.4803 39.9375 33.7709 39.9375C34.024 39.9375 34.4084 39.525 34.4084 39.2438C34.4084 38.8219 34.0521 38.5688 32.9084 38.2031C31.5959 37.7719 31.2584 37.6125 30.874 37.2C30.3021 36.6 30.1896 36.2063 30.1896 34.6781V33.3094L31.8209 31.8375C33.6396 30.2063 34.2959 29.5313 34.9146 28.6594C35.7584 27.4781 36.5178 25.6594 36.7521 24.2625C36.9303 23.1844 37.5303 15.2531 37.5303 13.9219C37.5303 10.2375 36.199 7.05001 33.574 4.39689C31.3803 2.18439 28.8584 0.928143 25.7834 0.515644C24.8834 0.393768 23.4303 0.356266 22.7365 0.440643ZM26.3928 2.01564C31.2771 3.02814 35.074 6.90002 35.9459 11.7281C36.1146 12.6563 36.2365 13.9688 36.1521 13.9688C36.124 13.9688 36.0115 13.7906 35.899 13.5656C35.1303 12.0563 33.2553 9.97502 31.7365 8.94377C29.6178 7.50002 27.499 6.75939 24.9959 6.57189C22.5209 6.39376 20.1303 6.85314 17.9553 7.95002C16.9521 8.44689 16.0803 9.02814 15.9959 9.23439C15.8271 9.69377 16.1459 10.2188 16.5865 10.2188C16.6561 10.2188 16.8366 10.1475 17.0676 10.0345C17.2721 9.93439 17.5163 9.80153 17.7584 9.65627C20.8615 7.78127 24.7334 7.42501 28.2209 8.68127C31.849 9.98439 34.7928 13.2375 35.7678 17.0156C35.899 17.5406 35.8896 17.7938 35.674 20.6719C35.3928 24.225 35.224 25.1156 34.549 26.4938C33.8271 27.9844 33.2365 28.6594 30.2928 31.3313C28.8209 32.6719 27.4428 33.8625 27.2365 33.9844C26.5521 34.3969 25.8865 34.5 24.0303 34.5C23.0928 34.5 22.1178 34.4531 21.874 34.4063C20.974 34.2094 20.4865 33.8531 17.7209 31.3406C14.7584 28.65 14.1771 27.9844 13.4553 26.4938C12.7803 25.1156 12.6115 24.225 12.3303 20.6813L12.0959 17.6063L12.2928 16.8375C12.7146 15.2625 13.624 13.5281 14.6928 12.2719C14.8317 12.1051 14.9415 11.9561 15.0227 11.8212C15.2701 11.4098 15.2516 11.1291 14.9834 10.875C14.6365 10.5469 14.2803 10.6313 13.8115 11.1281C13.3428 11.6438 12.4053 12.9844 12.1053 13.5656C11.9928 13.7906 11.8803 13.9688 11.8521 13.9688C11.7771 13.9688 11.899 12.6375 12.0584 11.7281C12.649 8.40939 14.7115 5.40939 17.6646 3.56252C18.9115 2.77501 20.8334 2.09064 22.3615 1.88439C23.2803 1.75314 25.5021 1.82814 26.3928 2.01564Z" fill="#A6DB4B"/>
<path d="M15.9959 9.23439C15.8271 9.69377 16.1459 10.2188 16.5865 10.2188C16.6561 10.2188 16.8366 10.1475 17.0676 10.0345C16.1412 10.6065 15.4411 11.3078 15.0227 11.8212C15.2701 11.4098 15.2516 11.1291 14.9834 10.875C14.6365 10.5469 14.2803 10.6313 13.8115 11.1281C14.1172 10.8027 14.982 9.96842 15.9959 9.23439Z" fill="#A6DB4B"/>
<path d="M17.7584 9.65627C20.8615 7.78127 24.7334 7.42501 28.2209 8.68127C31.849 9.98439 34.7928 13.2375 35.7678 17.0156C35.899 17.5406 35.8896 17.7938 35.674 20.6719C35.3928 24.225 35.224 25.1156 34.549 26.4938C33.8271 27.9844 33.2365 28.6594 30.2928 31.3313C28.8209 32.6719 27.4428 33.8625 27.2365 33.9844C26.5521 34.3969 25.8865 34.5 24.0303 34.5C23.0928 34.5 22.1178 34.4531 21.874 34.4063C20.974 34.2094 20.4865 33.8531 17.7209 31.3406C14.7584 28.65 14.1771 27.9844 13.4553 26.4938C12.7803 25.1156 12.6115 24.225 12.3303 20.6813L12.0959 17.6063L12.2928 16.8375C12.7146 15.2625 13.624 13.5281 14.6928 12.2719C14.8317 12.1051 14.9415 11.9561 15.0227 11.8212C15.4411 11.3078 16.1412 10.6065 17.0676 10.0345C17.2721 9.93439 17.5163 9.80153 17.7584 9.65627Z" fill="#F9FEF0"/>
<path d="M14.2538 4.21976L14.2535 4.22012C12.2117 6.26187 11.0072 8.51904 10.4258 11.4258C10.1267 12.9025 10.1696 14.6763 10.6186 19.9428C11.0116 24.6308 11.0692 25.0829 11.6481 26.5304C12.3907 28.3915 13.3326 29.5752 15.7992 31.8159C15.7994 31.816 15.7995 31.8162 15.7997 31.8163L17.5646 33.429V34.6781C17.5646 35.8589 17.5328 36.0562 17.3908 36.364L17.3891 36.3676L17.3891 36.3676C17.1931 36.8108 16.7798 37.2605 16.4351 37.4368L16.4264 37.4413L16.4264 37.4415C16.426 37.4416 16.4245 37.4422 16.4218 37.4433C16.4091 37.4486 16.3698 37.4648 16.2903 37.4947C16.1985 37.5292 16.0709 37.5755 15.9108 37.6324C15.5908 37.7462 15.1451 37.9012 14.6058 38.0862C13.5274 38.4562 12.0773 38.9458 10.5168 39.466C8.95494 39.9866 7.47726 40.4909 6.35452 40.8827C5.79325 41.0786 5.32006 41.2466 4.96915 41.3746C4.62685 41.4995 4.38297 41.5926 4.29658 41.6358L4.29565 41.6362C2.44467 42.5714 0.904121 44.1794 0.0462551 46.0782C-0.11275 46.4289 -0.215728 46.7073 -0.23204 46.9446C-0.250445 47.2123 -0.158792 47.4114 0.00666314 47.5891L0.00878374 47.5914L0.00879775 47.5914C0.159937 47.7497 0.392239 47.835 0.59726 47.8653C0.797551 47.8949 1.04706 47.8828 1.23347 47.7608C1.27741 47.7331 1.30832 47.6971 1.32174 47.6812C1.34205 47.6571 1.36228 47.6295 1.38152 47.6014C1.42033 47.5448 1.46474 47.4723 1.51148 47.391C1.60513 47.228 1.71546 47.0168 1.82046 46.7974C2.30778 45.823 2.63069 45.35 3.27266 44.708C3.87107 44.1096 4.41087 43.7223 5.19229 43.3313C5.34191 43.2618 6.07227 42.9964 7.15629 42.6206C8.23657 42.2461 9.64853 41.7684 11.1332 41.2813C12.6201 40.7935 14.0369 40.3173 15.121 39.9442C15.663 39.7577 16.1224 39.5967 16.4662 39.4728C16.8017 39.3519 17.0427 39.2608 17.1354 39.216M14.2538 4.21976L17.0271 38.9906M14.2538 4.21976C16.6199 1.86324 19.269 0.602016 22.7063 0.192471C23.4268 0.104843 24.902 0.144039 25.8166 0.267864C28.9466 0.687733 31.5191 1.96935 33.7515 4.22087L33.7517 4.22106C36.422 6.91993 37.7803 10.1702 37.7803 13.9219C37.7803 14.5993 37.6292 16.9265 37.4573 19.2059C37.2855 21.4833 37.0902 23.7503 36.9988 24.3033L36.9987 24.3039C36.7579 25.739 35.9835 27.5929 35.1183 28.8044C34.4821 29.7008 33.8073 30.3917 31.988 32.0234C31.988 32.0235 31.9879 32.0236 31.9878 32.0236L30.4396 33.4205V34.6781C30.4396 35.4441 30.4689 35.8932 30.5585 36.2212C30.6435 36.5319 30.7858 36.7451 31.055 37.0275L31.0569 37.0296C31.3918 37.389 31.6687 37.5326 32.9855 37.9653C33.5572 38.1481 33.9645 38.312 34.2302 38.4973C34.3668 38.5924 34.4767 38.7003 34.5513 38.8296C34.6275 38.9614 34.6584 39.1006 34.6584 39.2438C34.6584 39.4784 34.5113 39.7108 34.3682 39.8657C34.2912 39.9491 34.2014 40.0256 34.1061 40.0829C34.0144 40.1381 33.8974 40.1875 33.7709 40.1875C33.6988 40.1875 33.6006 40.1658 33.512 40.1437C33.413 40.119 33.2907 40.0841 33.1543 40.0424C32.8811 39.9591 32.5421 39.8459 32.2007 39.7257C31.8592 39.6053 31.513 39.4771 31.2254 39.3631C30.9448 39.252 30.701 39.1473 30.5781 39.0746L30.5781 39.0746L30.5757 39.0732C29.2608 38.2763 28.5334 36.9562 28.5334 35.3813C28.5334 35.2854 28.5316 35.195 28.5285 35.1138M14.2538 4.21976L28.5285 35.1138M17.1354 39.216C17.1357 39.2158 17.1359 39.2157 17.1362 39.2156L17.0271 38.9906M17.1354 39.216C17.1352 39.2161 17.1349 39.2162 17.1346 39.2164L17.0271 38.9906M17.1354 39.216C17.5619 39.0127 17.9521 38.7203 18.3538 38.2892L18.3542 38.2888C18.7282 37.8856 18.9902 37.5133 19.1645 37.0801C19.3381 36.6486 19.4182 36.173 19.4517 35.5734L19.452 35.5692L19.4519 35.5692C19.4585 35.4017 19.4674 35.2457 19.4772 35.1149M17.0271 38.9906C17.4209 38.8031 17.7865 38.5313 18.1709 38.1188C18.8928 37.3406 19.1365 36.7313 19.2021 35.5594C19.2115 35.3218 19.2254 35.1051 19.2405 34.9471C19.248 34.9519 19.256 34.9572 19.2648 34.9629C19.3219 35.0007 19.3969 35.0536 19.4721 35.1111L19.474 35.1125C19.4751 35.1133 19.4761 35.1141 19.4772 35.1149M19.4772 35.1149C20.0248 35.5251 20.5432 35.7899 21.2409 35.9485C21.9296 36.1051 22.7854 36.1563 24.0021 36.1563C25.2189 36.1563 26.0746 36.1051 26.7634 35.9485C27.4616 35.7897 27.9804 35.5246 28.5285 35.1138M19.4772 35.1149L28.5285 35.1138M19.2865 34.6875C19.2728 34.6875 19.2568 34.7815 19.2419 34.9334C19.2524 34.9354 19.2679 34.9375 19.2865 34.9375C19.3629 34.9375 19.4172 34.9033 19.4455 34.8794C19.4727 34.8563 19.4881 34.8329 19.4948 34.8219C19.4954 34.8209 19.496 34.8198 19.4966 34.8188C19.3883 34.7421 19.3002 34.6875 19.2865 34.6875ZM19.624 34.9125C19.584 34.8819 19.544 34.8525 19.5062 34.8256L28.3803 34.9125C27.3303 35.7 26.4303 35.9063 24.0021 35.9063C21.574 35.9063 20.674 35.7 19.624 34.9125ZM26.342 2.26044L26.3413 2.26028C25.9184 2.17126 25.1585 2.10604 24.3794 2.08035C23.6005 2.05466 22.8335 2.0695 22.3969 2.13189L22.395 2.13214C20.9004 2.33387 19.013 3.00661 17.7981 3.77389L17.7972 3.77448C14.9017 5.58534 12.8824 8.52539 12.3046 11.7717C12.2376 12.1536 12.1771 12.6134 12.1357 13.0144C12.2939 12.7594 12.4896 12.4658 12.6903 12.179C13.022 11.7048 13.381 11.23 13.6265 10.96L13.6265 10.9599L13.6293 10.957C13.6294 10.9569 13.6294 10.9568 13.6295 10.9567C13.9397 10.6265 14.7956 9.80078 15.805 9.06406C15.8287 9.02811 15.8556 8.99655 15.8797 8.97056C15.9233 8.9234 15.9769 8.87431 16.0363 8.82468C16.1555 8.72518 16.3122 8.61192 16.4935 8.49243C16.8568 8.25304 17.3343 7.97863 17.8436 7.72632C20.0603 6.60863 22.4959 6.14132 25.0138 6.32254L25.0146 6.32259C27.5619 6.5134 29.7227 7.26899 31.8773 8.73717C32.6581 9.26743 33.5214 10.0605 34.2848 10.9081C34.9066 11.5985 35.4709 12.3347 35.8738 13.0064C35.8318 12.611 35.7698 12.1574 35.6999 11.7729L35.6999 11.7726C34.8464 7.04646 31.1282 3.25257 26.342 2.26044Z" stroke="#A6DB4B" stroke-width="0.5"/>
<path d="M17.959 14.0626C16.2715 14.2595 14.9215 15.0845 14.3308 16.2939C13.7683 17.4282 13.9465 18.5907 14.8183 19.5376C16.984 21.8907 21.7652 21.4595 23.0777 18.797C23.659 17.6157 23.4152 16.3782 22.3933 15.3751C21.3902 14.3907 19.609 13.8657 17.959 14.0626ZM19.3558 15.4689C21.0152 15.7126 22.1871 16.7907 21.9433 17.8501C21.7933 18.5345 21.0621 19.172 20.0683 19.4814C19.2902 19.7251 17.8371 19.6876 17.134 19.4157C16.3933 19.1251 15.8402 18.6845 15.5965 18.1876C15.334 17.672 15.3246 17.4189 15.5777 16.9032C15.8965 16.2376 16.8621 15.6564 17.959 15.4782C18.6058 15.3657 18.6246 15.3657 19.3558 15.4689Z" fill="#A6DB4B"/>
<path d="M16.9406 16.8845C16.4999 17.147 16.5562 17.8688 17.0343 18.0845C17.7843 18.4313 19.9218 18.3751 20.4374 18.0095C20.7562 17.7751 20.8031 17.2407 20.5312 16.9688C20.3437 16.7813 20.2687 16.772 19.6593 16.8376C18.8343 16.9313 18.5062 16.9313 17.7187 16.847C17.3249 16.8001 17.0531 16.8095 16.9406 16.8845Z" fill="#A6DB4B"/>
<path d="M28.5484 14.0624C27.3015 14.2405 26.3453 14.7093 25.5859 15.5436C23.5234 17.7749 25.4171 20.8405 29.0171 21.0561C31.0703 21.1874 33.0015 20.2499 33.7234 18.7686C34.4546 17.2686 33.6953 15.4968 31.9421 14.6155C30.9859 14.128 29.6546 13.9124 28.5484 14.0624ZM30.8171 15.6655C32.1203 16.1061 32.8234 17.0624 32.5328 17.953C32.1765 19.0218 30.5828 19.7905 28.989 19.6593C27.4046 19.528 26.1578 18.5999 26.1578 17.5499C26.1578 17.0718 26.3078 16.7436 26.739 16.3405C27.639 15.478 29.4203 15.178 30.8171 15.6655Z" fill="#A6DB4B"/>
<path d="M27.4881 17.0156C27.2631 17.2968 27.2537 17.3624 27.3381 17.6999C27.4224 17.9999 27.8256 18.1781 28.6599 18.2812C29.5506 18.3937 30.7787 18.2624 31.1256 18.0093C31.4443 17.7749 31.4912 17.2406 31.2193 16.9687C31.0318 16.7812 30.9568 16.7718 30.3474 16.8374C29.5131 16.9312 29.1943 16.9312 28.3506 16.8374C27.6943 16.7624 27.6849 16.7624 27.4881 17.0156Z" fill="#A6DB4B"/>
<path d="M23.1253 23.6345C21.1659 23.8407 19.4784 24.8063 18.9159 26.0438C18.6159 26.7001 18.6346 27.647 18.9628 28.2657C19.4596 29.222 20.6596 30.047 22.1315 30.4407C22.5721 30.5532 23.0971 30.6001 24.0065 30.6001C24.9159 30.6001 25.4409 30.5532 25.8815 30.4407C27.3534 30.047 28.5534 29.222 29.0503 28.2657C29.3784 27.647 29.3971 26.7001 29.0971 26.0438C28.844 25.5001 28.1503 24.7876 27.5221 24.4313C26.8846 24.0751 25.8628 23.747 25.1784 23.672C24.044 23.5595 23.8565 23.5595 23.1253 23.6345ZM25.7221 25.2376C27.1753 25.6126 28.0659 26.4751 27.9065 27.3376C27.6721 28.5845 25.0753 29.5407 22.9659 29.1563C21.4378 28.8751 20.2565 28.1251 20.1065 27.3376C19.9096 26.2688 21.3065 25.2657 23.3034 25.0313C24.0628 24.947 24.8409 25.0126 25.7221 25.2376Z" fill="#A6DB4B"/>
<path d="M21.4258 26.6624C21.2196 26.8687 21.1821 26.9718 21.229 27.2155C21.2571 27.3843 21.3696 27.5812 21.4633 27.6655C21.904 28.0312 24.304 28.1905 25.6821 27.9468C26.7508 27.7593 27.1071 27.253 26.5915 26.653L26.3665 26.3999L25.6821 26.503C24.1258 26.7562 23.9477 26.7562 22.0633 26.4749C21.7258 26.4187 21.6415 26.4468 21.4258 26.6624Z" fill="#A6DB4B"/>
<path d="M39.2257 42.0498L39.2253 42.0497C38.3954 41.7731 36.8652 41.2612 35.5293 40.8066C34.8615 40.5794 34.2415 40.3662 33.7816 40.2039C33.5519 40.1228 33.3608 40.0539 33.2232 40.002C33.1548 39.9762 33.0975 39.9538 33.0546 39.9359C33.0334 39.927 33.013 39.9181 32.9955 39.9096C32.9952 39.9094 32.9948 39.9092 32.9942 39.909C32.9855 39.9048 32.9484 39.8871 32.9164 39.8587L32.9164 39.8587C32.7241 39.6878 32.6439 39.4402 32.6486 39.2064C32.6532 38.9724 32.7422 38.7286 32.9195 38.544C32.9966 38.461 33.0917 38.3913 33.1854 38.3414C33.2746 38.2939 33.3896 38.25 33.5044 38.25C33.5455 38.25 33.59 38.2599 33.6113 38.2647L33.6117 38.2648C33.6427 38.2717 33.6808 38.2814 33.7241 38.293C33.8111 38.3164 33.9279 38.3502 34.0692 38.3926C34.3521 38.4774 34.7398 38.5986 35.1972 38.7445C36.1124 39.0365 37.311 39.4286 38.5187 39.83C39.7265 40.2313 40.9444 40.6422 41.8982 40.9716C42.375 41.1363 42.7866 41.2809 43.0982 41.3939C43.4021 41.5041 43.6281 41.5902 43.7192 41.6358L43.7206 41.6365C45.562 42.5716 47.1025 44.1796 47.9603 46.0783C48.1192 46.429 48.2222 46.7073 48.2385 46.9446C48.2569 47.2123 48.1652 47.4114 47.9998 47.5891L47.9998 47.5891L47.9976 47.5914C47.8472 47.749 47.618 47.8348 47.4129 47.8653C47.2099 47.8954 46.9616 47.8815 46.7727 47.7606L46.7726 47.7606L46.7688 47.758C46.7242 47.7283 46.6919 47.6865 46.6801 47.6713L46.6793 47.6703C46.6608 47.6464 46.6411 47.6179 46.6211 47.5876C46.5808 47.5265 46.5318 47.4461 46.478 47.3533C46.3698 47.167 46.2364 46.9215 46.1034 46.6603L46.1031 46.6598C45.3283 45.1284 44.2596 44.036 42.8323 43.3404L42.8323 43.3404L42.83 43.3392C42.6779 43.2632 42.2026 43.0813 41.5381 42.8436C40.8816 42.6088 40.0585 42.3259 39.2257 42.0498Z" fill="#A6DB4B" stroke="#A6DB4B" stroke-width="0.5"/>
<path d="M19.157 43.126L19.157 43.1261L19.1543 43.1266C17.6589 43.416 16.5636 43.2945 15.4681 42.6675C15.0534 42.4359 14.743 42.1731 14.6197 41.8656C14.5547 41.7036 14.544 41.534 14.5933 41.3667C14.6411 41.2046 14.7404 41.0605 14.8702 40.9329C14.9512 40.8496 15.0406 40.77 15.147 40.7156C15.2613 40.6572 15.3825 40.6339 15.5158 40.6444C15.7547 40.6631 16.0398 40.7941 16.4187 40.9904L16.4187 40.9904L16.4205 40.9914C16.8122 41.1985 17.1092 41.3061 17.4491 41.3436C17.7956 41.3819 18.2036 41.3493 18.8217 41.2471C19.4159 41.1465 19.9029 41.1151 20.3645 41.1679C20.8281 41.221 21.2528 41.3574 21.7245 41.5762L21.7253 41.5766C22.253 41.8238 22.6464 42.0973 22.8268 42.4141C22.9224 42.5821 22.9603 42.7664 22.9198 42.956C22.8807 43.1392 22.7742 43.3007 22.631 43.4418C22.4519 43.6258 22.2397 43.74 21.9854 43.7417C21.7427 43.7433 21.5012 43.6416 21.2587 43.4849L21.2586 43.485L21.2509 43.4797C21.0961 43.3713 20.7047 43.2029 20.4022 43.1228L20.4022 43.1228L20.3997 43.1221C20.1263 43.0467 19.9993 43.0186 19.8568 43.0186C19.7066 43.0186 19.529 43.0497 19.157 43.126Z" fill="#A6DB4B" stroke="#A6DB4B" stroke-width="0.5"/>
<path d="M31.5485 41.0016L31.5485 41.0016L31.5515 41C31.9238 40.8069 32.2126 40.676 32.4578 40.6531C32.5916 40.6406 32.7163 40.6592 32.8353 40.7142C32.9485 40.7665 33.043 40.8456 33.1281 40.9331C33.2579 41.0607 33.3572 41.2048 33.405 41.3668C33.4544 41.5342 33.4436 41.7038 33.3786 41.8658C33.2553 42.1734 32.9448 42.4362 32.5299 42.6679C31.447 43.2836 30.2862 43.427 28.896 43.1259C28.4802 43.0401 28.174 43.0172 27.8815 43.0575C27.5882 43.0979 27.2904 43.2044 26.895 43.4044L26.895 43.4044L26.894 43.4049C26.7004 43.5017 26.5372 43.5787 26.3974 43.6331C26.2587 43.6872 26.1289 43.7248 26.0043 43.7331C25.8724 43.7419 25.753 43.7174 25.6406 43.6586C25.5361 43.604 25.4479 43.5248 25.3673 43.4419C25.2241 43.3009 25.1176 43.1394 25.0785 42.9562C25.0381 42.7666 25.0759 42.5823 25.1715 42.4143C25.3519 42.0975 25.7453 41.824 26.273 41.5768L26.2738 41.5764C26.7456 41.3576 27.1702 41.2212 27.6338 41.1681C28.0952 41.1153 28.5819 41.1466 29.1758 41.2471C29.7896 41.3447 30.1983 41.3775 30.5436 41.3413C30.8814 41.3058 31.1733 41.2026 31.5485 41.0016Z" fill="#A6DB4B" stroke="#A6DB4B" stroke-width="0.5"/>
</g>
<defs>
<clipPath id="clip0_0_115">
<rect width="48" height="48" fill="white"/>
</clipPath>
</defs>
</svg>
