<svg width="86" height="86" viewBox="0 0 86 86" fill="none" xmlns="http://www.w3.org/2000/svg">
<path fill-rule="evenodd" clip-rule="evenodd" d="M43.0026 11.4585C25.5826 11.4585 11.4609 25.5802 11.4609 43.0002C11.4609 60.4201 25.5826 74.5418 43.0026 74.5418C60.4226 74.5418 74.5443 60.4201 74.5443 43.0002C74.5443 25.5802 60.4226 11.4585 43.0026 11.4585ZM6.46094 43.0002C6.46094 22.8188 22.8212 6.4585 43.0026 6.4585C63.184 6.4585 79.5443 22.8188 79.5443 43.0002C79.5443 63.1816 63.184 79.5418 43.0026 79.5418C22.8212 79.5418 6.46094 63.1816 6.46094 43.0002Z" fill="#A6DB4B"/>
<path d="M11.4609 43.0002C11.4609 25.5802 25.5826 11.4585 43.0026 11.4585C60.4226 11.4585 74.5443 25.5802 74.5443 43.0002C74.5443 60.4201 60.4226 74.5418 43.0026 74.5418C25.5826 74.5418 11.4609 60.4201 11.4609 43.0002Z" fill="#F9FEF0"/>
<path fill-rule="evenodd" clip-rule="evenodd" d="M59.9864 17.0486L62.986 21.0489L57.7294 24.9904C56.0562 26.2453 54.0209 26.9238 51.9294 26.9238H39.8976C39.2474 26.9242 38.6123 27.1256 38.0809 27.5003C37.5493 27.8751 45.5352 30.8567 45.3165 31.4694C45.0978 32.0821 45.0739 32.7473 45.248 33.3741C45.4221 34.0006 45.7854 34.5579 46.2883 34.9699L46.2891 34.9706L53.455 40.8323C56.5535 43.3673 58.9688 46.6373 60.4806 50.3443C61.9925 54.0512 62.553 58.0775 62.1112 62.0564L62.0395 62.7016C61.7294 65.4911 61.0441 68.2261 60.002 70.8321L57.8625 76.179L57.0701 75.862L53.2204 74.3215L55.3594 68.9757C56.2343 66.7876 56.8098 64.4914 57.0701 62.1493L57.1417 61.5046C57.4915 58.3546 57.0477 55.1671 55.8509 52.2325C54.654 49.2979 52.7421 46.7093 50.2892 44.7024L43.1218 38.8394C41.8206 37.7742 40.8806 36.3327 40.4305 34.7124C39.9804 33.0922 40.0422 31.3724 40.6074 29.7887C41.1727 28.2049 33.8252 24.3831 35.1994 23.414C36.5737 22.4449 38.214 21.9244 39.8956 21.9238H51.9294C52.9391 21.9238 53.9219 21.5961 54.7296 20.9903L59.9864 17.0486ZM23.1645 38.3149C22.4569 38.0882 21.7054 38.0338 20.9726 38.1561L9.36936 40.0912L8.54688 35.1593L20.1493 33.2244C21.6673 32.971 23.2242 33.0837 24.6898 33.5532C26.1556 34.0227 27.488 34.8354 28.5763 35.9238C29.6646 37.0121 30.4773 38.3445 30.9468 39.8102C31.4163 41.276 31.5291 42.8326 31.2757 44.3507L30.7921 47.2414L30.7919 47.2427C30.4603 49.2373 30.7765 51.2862 31.6944 53.0878C32.6126 54.8899 34.0843 56.3503 35.8936 57.2544L35.8948 57.2551C38.2283 58.4228 40.0938 60.3512 41.1834 62.7221C42.2731 65.093 42.5217 67.7646 41.8883 70.2958L40.0501 77.6483L35.1994 76.4356L37.0377 69.0826C37.395 67.6549 37.2549 66.1474 36.6403 64.8101C36.0257 63.4728 34.9734 62.3851 33.6573 61.7264C30.892 60.3443 28.6427 58.1121 27.2393 55.3576C25.8357 52.6026 25.3523 49.4702 25.86 46.4203L26.3439 43.5275C26.4662 42.7946 26.4118 42.0431 26.1852 41.3355C25.9585 40.6279 25.5662 39.9847 25.0408 39.4593C24.5154 38.9339 23.8721 38.5415 23.1645 38.3149Z" fill="#A6DB4B"/>
<path d="M53.2204 74.3215L55.3594 68.9757C56.2343 66.7876 56.8098 64.4914 57.0701 62.1493L57.1417 61.5046C57.4915 58.3546 57.0477 55.1671 55.8509 52.2325C54.654 49.2979 52.7421 46.7093 50.2892 44.7024L43.1218 38.8394C41.8206 37.7742 40.8806 36.3327 40.4305 34.7124C39.9804 33.0922 40.0422 31.3724 40.6074 29.7887C41.1727 28.2049 33.8252 24.3831 35.1994 23.414C36.5737 22.4449 38.214 21.9244 39.8956 21.9238H51.9294C52.9391 21.9238 53.9219 21.5961 54.7296 20.9903L59.9864 17.0486C56.6946 14.7153 48.7353 6.89193 41.9006 7.54878C31.9998 8.5003 31.6944 11.0003 25.0408 13.5003C19.7179 15.5003 11.827 28.773 8.54688 35.1593L20.1493 33.2244C21.6673 32.971 23.2242 33.0837 24.6898 33.5532C26.1556 34.0227 27.488 34.8354 28.5763 35.9238C29.6646 37.0121 30.4773 38.3445 30.9468 39.8102C31.4163 41.276 31.5291 42.8326 31.2757 44.3507L30.7921 47.2414L30.7919 47.2427C30.4603 49.2373 30.7765 51.2862 31.6944 53.0878C32.6126 54.8899 34.0843 56.3503 35.8936 57.2544L35.8948 57.2551C38.2283 58.4228 40.0938 60.3512 41.1834 62.7221C42.2731 65.093 42.5217 67.7646 41.8883 70.2958L40.0501 77.6483L57.0701 75.862L53.2204 74.3215Z" fill="#A6DB4B"/>
</svg>
