<svg width="86" height="86" viewBox="0 0 86 86" fill="none" xmlns="http://www.w3.org/2000/svg">
<path fill-rule="evenodd" clip-rule="evenodd" d="M20.6949 80H65.3051C67.2164 80.0027 68.81 79.3696 70.086 78.1007C71.362 76.8317 72 75.2517 72 73.3605V12.6436C72.0028 10.7524 71.3648 9.17241 70.086 7.90344C68.8072 6.63448 67.215 6 65.3093 6H20.6949C18.7891 6.00274 17.1969 6.63722 15.9181 7.90344C14.6394 9.16967 14 10.7483 14 12.6394V73.3605C14.0028 75.2544 14.6421 76.8344 15.9181 78.1007C17.1941 79.3669 18.7864 80 20.6949 80ZM65.3093 75.8889H20.6949C19.9491 75.8889 19.3374 75.6518 18.8596 75.1777C18.3818 74.7035 18.1429 74.0978 18.1429 73.3605V12.6436C18.1429 11.9036 18.3818 11.2965 18.8596 10.8223C19.3374 10.3482 19.9478 10.1111 20.6907 10.1111H65.3093C66.0522 10.1111 66.6626 10.3482 67.1404 10.8223C67.6182 11.2965 67.8571 11.9022 67.8571 12.6394V73.3605C67.8571 74.0978 67.6182 74.7035 67.1404 75.1777C66.6626 75.6518 66.0522 75.8889 65.3093 75.8889ZM43 23.9943C41.9063 22.6514 40.8581 21.5564 39.8556 20.7096C38.8558 19.8627 37.4182 19.4392 35.5429 19.4392C33.5874 19.4392 31.9248 20.1189 30.5549 21.4783C29.185 22.8405 28.5 24.4918 28.5 26.4322C28.5 29.8006 29.979 32.7688 32.937 35.3369C35.895 37.9077 38.5022 40.2099 40.7587 42.2436C41.3608 42.841 42.1079 43.1398 43 43.1398C43.8921 43.1398 44.6378 42.8424 45.2371 42.2477L53.063 35.3821C56.021 32.7784 57.5 29.7924 57.5 26.424C57.5 24.4836 56.815 22.8336 55.4451 21.4742C54.0752 20.1148 52.4126 19.4378 50.4571 19.4433C48.5818 19.4433 47.1442 19.8668 46.1444 20.7137C45.1419 21.5578 44.0937 22.6486 43 23.9943Z" fill="#A6DB4B"/>
<path d="M30.5714 66.5567H55.4286C56.0196 66.5567 56.5126 66.3621 56.9076 65.9729C57.3025 65.5837 57.5 65.0945 57.5 64.5052C57.5 63.916 57.3025 63.4267 56.9076 63.0376C56.5126 62.6484 56.0196 62.4524 55.4286 62.4497H30.5714C29.9831 62.4497 29.4901 62.6456 29.0924 63.0376C28.6947 63.4295 28.4972 63.9187 28.5 64.5052C28.5028 65.0917 28.7002 65.5796 29.0924 65.9688C29.4846 66.358 29.9776 66.5512 30.5714 66.5567Z" fill="#A6DB4B"/>
<path d="M30.5714 55.8061H55.4286C56.0196 55.8061 56.5126 55.6101 56.9076 55.2182C57.3025 54.8263 57.5 54.3384 57.5 53.7547C57.5 53.1709 57.3025 52.6817 56.9076 52.287C56.5126 51.8923 56.0196 51.6964 55.4286 51.6991H30.5714C29.9831 51.6991 29.4901 51.8951 29.0924 52.287C28.6947 52.6789 28.4972 53.1681 28.5 53.7547C28.5028 54.3412 28.7002 54.829 29.0924 55.2182C29.4846 55.6074 29.9776 55.8006 30.5714 55.8061Z" fill="#A6DB4B"/>
<path fill-rule="evenodd" clip-rule="evenodd" d="M20.6949 75.8889H65.3093C66.0522 75.8889 66.6626 75.6518 67.1404 75.1777C67.6182 74.7035 67.8571 74.0978 67.8571 73.3605V12.6394C67.8571 11.9022 67.6182 11.2965 67.1404 10.8223C66.6626 10.3482 66.0522 10.1111 65.3093 10.1111H20.6907C19.9478 10.1111 19.3374 10.3482 18.8596 10.8223C18.3818 11.2965 18.1429 11.9036 18.1429 12.6436V73.3605C18.1429 74.0978 18.3818 74.7035 18.8596 75.1777C19.3374 75.6518 19.9491 75.8889 20.6949 75.8889ZM55.4286 66.5567H30.5714C29.9776 66.5512 29.4846 66.358 29.0924 65.9688C28.7002 65.5796 28.5028 65.0917 28.5 64.5052C28.4972 63.9187 28.6947 63.4295 29.0924 63.0376C29.4901 62.6456 29.9831 62.4497 30.5714 62.4497H55.4286C56.0196 62.4524 56.5126 62.6484 56.9076 63.0376C57.3025 63.4267 57.5 63.916 57.5 64.5052C57.5 65.0945 57.3025 65.5837 56.9076 65.9729C56.5126 66.3621 56.0196 66.5567 55.4286 66.5567ZM55.4286 55.8061H30.5714C29.9776 55.8006 29.4846 55.6074 29.0924 55.2182C28.7002 54.829 28.5028 54.3412 28.5 53.7547C28.4972 53.1681 28.6947 52.6789 29.0924 52.287C29.4901 51.8951 29.9831 51.6991 30.5714 51.6991H55.4286C56.0196 51.6964 56.5126 51.8923 56.9076 52.287C57.3025 52.6817 57.5 53.1709 57.5 53.7547C57.5 54.3384 57.3025 54.8263 56.9076 55.2182C56.5126 55.6101 56.0196 55.8061 55.4286 55.8061ZM39.8556 20.7096C40.8581 21.5564 41.9063 22.6514 43 23.9943C44.0937 22.6486 45.1419 21.5578 46.1444 20.7137C47.1442 19.8668 48.5818 19.4433 50.4571 19.4433C52.4126 19.4378 54.0752 20.1148 55.4451 21.4742C56.815 22.8336 57.5 24.4836 57.5 26.424C57.5 29.7924 56.021 32.7784 53.063 35.3821L45.2371 42.2477C44.6378 42.8424 43.8921 43.1398 43 43.1398C42.1079 43.1398 41.3608 42.841 40.7587 42.2436C38.5022 40.2099 35.895 37.9077 32.937 35.3369C29.979 32.7688 28.5 29.8006 28.5 26.4322C28.5 24.4918 29.185 22.8405 30.5549 21.4783C31.9248 20.1189 33.5874 19.4392 35.5429 19.4392C37.4182 19.4392 38.8558 19.8627 39.8556 20.7096Z" fill="#F9FEF0"/>
</svg>
