<svg width="86" height="86" viewBox="0 0 86 86" fill="none" xmlns="http://www.w3.org/2000/svg">
<path fill-rule="evenodd" clip-rule="evenodd" d="M60.2146 12.7123C60.2771 12.7856 60.3347 12.8616 60.3875 12.9403L60.3896 12.9443L60.4146 12.9843L60.4812 13.0903C60.5424 13.1836 60.625 13.3156 60.7292 13.4863C62.0082 15.5994 63.1601 17.7811 64.1792 20.0206C66.0375 24.1208 68 29.655 68 34.9272C68 40.8935 63.8021 44.2016 60.1104 45.9097C58.2699 46.7494 56.327 47.3643 54.3271 47.7398C51.2487 50.4844 47.2011 52.0068 43 52C40.4949 52.0019 38.0217 51.461 35.7647 50.4176C33.5076 49.3742 31.525 47.8551 29.9646 45.9737L29.8688 45.9657C29.4158 45.9261 28.9647 45.8687 28.5167 45.7937C27.0999 45.5613 25.7204 45.1539 24.4125 44.5817C22.8917 43.9016 21.275 42.8576 20.0375 41.2555C18.7812 39.6295 18 37.5374 18 34.9272C18 29.993 20.5042 24.3868 22.8042 20.2226C24.1867 17.7253 25.7213 15.3083 27.4 12.9843L27.4667 12.8943L27.4917 12.8563L27.675 12.5963C27.8312 12.3823 28.0542 12.0963 28.3542 11.7602C29.1673 10.8602 30.0906 10.0577 31.1042 9.37015C33.6292 7.64207 37.525 6 43.1125 6C48.6854 6 52.9292 7.63407 55.7875 9.28614C57.2146 10.1122 58.2958 10.9402 59.0312 11.5742C59.4315 11.9229 59.8139 12.29 60.1771 12.6743L60.1979 12.6983L60.2083 12.7083L60.2146 12.7123ZM30.9937 15.0244L30.8937 15.1724L30.8896 15.1764L30.8729 15.1964L30.8042 15.2924C30.7403 15.3764 30.6486 15.5031 30.5292 15.6724C29.0584 17.7407 27.7077 19.8854 26.4833 22.0967C24.225 26.1889 22.1667 31.0451 22.1667 34.9252C22.1667 36.7233 22.6875 37.9694 23.3833 38.8714C24.1 39.7955 25.0896 40.4715 26.1729 40.9555C26.6875 41.1855 27.2083 41.3675 27.7042 41.5095C27.3073 39.7931 27.0089 38.0571 26.8104 36.3093C26.575 34.1612 26.5062 31.7791 26.9271 29.673C27.3417 27.6089 28.3188 25.3908 30.5563 24.2368C33.5333 22.7027 38.5708 20.6506 43.0125 19.2366C45.2271 18.5305 47.3875 17.9525 49.1146 17.6885C49.9625 17.5605 50.8333 17.4885 51.6 17.5625C52.2 17.6225 53.4437 17.8405 54.1312 18.9226C59.7146 26.6609 59.7979 33.7512 58.3833 38.9294C57.975 40.4275 57.4458 41.7535 56.9 42.8816C57.3625 42.7136 57.8292 42.5216 58.3 42.3056C61.3208 40.9055 63.8333 38.6774 63.8333 34.9252C63.8333 30.4811 62.1458 25.5528 60.3583 21.6167C59.4065 19.5254 58.3311 17.488 57.1375 15.5144L56.9417 15.1964L56.8917 15.1464L56.8687 15.1224C56.6687 14.9243 56.4617 14.7328 56.2479 14.5484C55.4401 13.8595 54.5669 13.2447 53.6396 12.7123C51.3125 11.3662 47.8021 10.0002 43.1146 10.0002C38.4396 10.0002 35.3812 11.3582 33.5187 12.6303C32.7814 13.1292 32.1092 13.7114 31.5167 14.3644C31.3346 14.5706 31.1636 14.7855 31.0042 15.0084L30.9937 15.0244ZM32.0479 41.7895L31.8917 41.1555C31.4734 39.421 31.1604 37.6646 30.9542 35.8953C30.7375 33.9092 30.7104 31.9751 31.0208 30.4291C31.3375 28.845 31.9167 28.079 32.5271 27.7629C35.25 26.3589 40.0604 24.3928 44.325 23.0347C46.4625 22.3547 48.3708 21.8547 49.7667 21.6427C50.2937 21.5627 50.6812 21.5327 50.9437 21.5347C55.5229 28.0709 55.475 33.8092 54.3521 37.9174C53.8638 39.6838 53.1257 41.3776 52.1583 42.9516C51.8029 43.5308 51.4097 44.0879 50.9812 44.6197L50.9667 44.6377L50.9229 44.6897L50.9125 44.6997C50.6729 44.9685 50.5119 45.2936 50.4458 45.6417C49.0135 46.6622 47.3702 47.3765 45.6264 47.7365C43.8826 48.0966 42.0788 48.094 40.3361 47.7291C38.5934 47.3642 36.9522 46.6453 35.523 45.6208C34.0938 44.5963 32.9075 43.29 32.0479 41.7895Z" fill="#A6DB4B"/>
<path d="M30.9937 15.0244L30.8937 15.1724L30.8896 15.1764L30.8729 15.1964L30.8042 15.2924C30.7403 15.3764 30.6486 15.5031 30.5292 15.6724C29.0584 17.7407 27.7077 19.8854 26.4833 22.0967C24.225 26.1889 22.1667 31.0451 22.1667 34.9252C22.1667 36.7233 22.6875 37.9694 23.3833 38.8714C24.1 39.7955 25.0896 40.4715 26.1729 40.9555C26.6875 41.1855 27.2083 41.3675 27.7042 41.5095C27.3073 39.7931 27.0089 38.0571 26.8104 36.3093C26.575 34.1612 26.5062 31.7791 26.9271 29.673C27.3417 27.6089 28.3188 25.3908 30.5563 24.2368C33.5333 22.7027 38.5708 20.6506 43.0125 19.2366C45.2271 18.5305 47.3875 17.9525 49.1146 17.6885C49.9625 17.5605 50.8333 17.4885 51.6 17.5625C52.2 17.6225 53.4437 17.8405 54.1312 18.9226C59.7146 26.6609 59.7979 33.7512 58.3833 38.9294C57.975 40.4275 57.4458 41.7535 56.9 42.8816C57.3625 42.7136 57.8292 42.5216 58.3 42.3056C61.3208 40.9055 63.8333 38.6774 63.8333 34.9252C63.8333 30.4811 62.1458 25.5528 60.3583 21.6167C59.4065 19.5254 58.3311 17.488 57.1375 15.5144L56.9417 15.1964L56.8917 15.1464L56.8687 15.1224C56.6687 14.9243 56.4617 14.7328 56.2479 14.5484C55.4401 13.8595 54.5669 13.2447 53.6396 12.7123C51.3125 11.3662 47.8021 10.0002 43.1146 10.0002C38.4396 10.0002 35.3812 11.3582 33.5187 12.6303C32.7814 13.1292 32.1092 13.7114 31.5167 14.3644C31.3346 14.5706 31.1636 14.7855 31.0042 15.0084L30.9937 15.0244Z" fill="#F9FEF0"/>
<path d="M32.0479 41.7895L31.8917 41.1555C31.4734 39.421 31.1604 37.6646 30.9542 35.8953C30.7375 33.9092 30.7104 31.9751 31.0208 30.4291C31.3375 28.845 31.9167 28.079 32.5271 27.7629C35.25 26.3589 40.0604 24.3928 44.325 23.0347C46.4625 22.3547 48.3708 21.8547 49.7667 21.6427C50.2937 21.5627 50.6812 21.5327 50.9437 21.5347C55.5229 28.0709 55.475 33.8092 54.3521 37.9174C53.8638 39.6838 53.1257 41.3776 52.1583 42.9516C51.8029 43.5308 51.4097 44.0879 50.9812 44.6197L50.9667 44.6377L50.9229 44.6897L50.9125 44.6997C50.6729 44.9685 50.5119 45.2936 50.4458 45.6417C49.0135 46.6622 47.3702 47.3765 45.6264 47.7365C43.8826 48.0966 42.0788 48.094 40.3361 47.7291C38.5934 47.3642 36.9522 46.6453 35.523 45.6208C34.0938 44.5963 32.9075 43.29 32.0479 41.7895Z" fill="#F9FEF0"/>
<path fill-rule="evenodd" clip-rule="evenodd" d="M30.828 53.7095C30.404 52.8654 29.882 51.8234 29 52.0254C18.192 54.4855 7 61.5896 7 69.1398V80H79V69.1398C79 63.1917 72.056 57.5235 63.826 54.1795L63.798 54.1255L63.788 54.1055L57 52.0254C55.994 51.7954 54.954 53.1795 54.5 54.0455H31L30.828 53.7095ZM57.806 56.3515C58.6807 56.5929 59.548 56.8642 60.408 57.1655C60.432 57.8496 60.38 58.6556 60.268 59.4796C60.1547 60.3329 59.9728 61.1756 59.724 61.9996H57C56.6287 61.9998 56.2647 62.1034 55.9489 62.2987C55.6332 62.4941 55.378 62.7735 55.212 63.1057L53.212 67.1057C53.0729 67.3833 53.0003 67.6893 53 67.9998V71.9998C53 72.5303 53.2107 73.039 53.5858 73.4141C53.9609 73.7892 54.4696 73.9999 55 73.9999H59V69.9998H57V68.4718L58.236 65.9997H63.764L65 68.4718V69.9998H63V73.9999H67C67.5304 73.9999 68.0391 73.7892 68.4142 73.4141C68.7893 73.039 69 72.5303 69 71.9998V67.9998C68.9997 67.6893 68.9271 67.3833 68.788 67.1057L66.788 63.1057C66.622 62.7735 66.3668 62.4941 66.051 62.2987C65.7353 62.1034 65.3713 61.9998 65 61.9996H63.868C64.1125 60.9413 64.2783 59.8664 64.364 58.7836C66.314 59.7036 68.126 60.7596 69.696 61.9036C73.54 64.7117 75 67.3357 75 69.1398V75.9999H11V69.1398C11 67.3337 12.46 64.7097 16.304 61.9056C18.236 60.4956 20.542 59.2196 23.014 58.1636C23.083 59.7573 23.3388 61.3375 23.776 62.8717L23.792 62.9277C22.5963 63.6841 21.7064 64.8387 21.2795 66.1876C20.8525 67.5366 20.916 68.993 21.4586 70.2996C22.0013 71.6063 22.9883 72.6792 24.2452 73.3287C25.5021 73.9783 26.9482 74.1628 28.3279 73.8496C29.7077 73.5364 30.9324 72.7456 31.7857 71.6171C32.639 70.4885 33.0661 69.0946 32.9914 67.6817C32.9168 66.2688 32.3452 64.9277 31.3777 63.8954C30.4103 62.863 29.1091 62.2057 27.704 62.0396L27.616 61.7516C27.4046 61.0067 27.2475 60.2473 27.146 59.4796C27.0339 58.7042 26.9871 57.9208 27.006 57.1375C27.0127 56.9695 27.0227 56.8202 27.036 56.6895C27.276 56.6149 27.516 56.5435 27.756 56.4755L28.586 58.0476H56.914L57.806 56.3515ZM27 70.0298C28.076 70.0298 29 69.1498 29 67.9998C29 66.8517 28.076 65.9697 27 65.9697C25.924 65.9697 25 66.8497 25 67.9998C25 69.1478 25.924 70.0298 27 70.0298Z" fill="#A6DB4B"/>
<path d="M57.806 56.3515C58.6807 56.5929 59.548 56.8642 60.408 57.1655C60.432 57.8496 60.38 58.6556 60.268 59.4796C60.1547 60.3329 59.9728 61.1756 59.724 61.9996H57C56.6287 61.9998 56.2647 62.1034 55.9489 62.2987C55.6332 62.4941 55.378 62.7735 55.212 63.1057L53.212 67.1057C53.0729 67.3833 53.0003 67.6893 53 67.9998V71.9998C53 72.5303 53.2107 73.039 53.5858 73.4141C53.9609 73.7892 54.4696 73.9999 55 73.9999H59V69.9998H57V68.4718L58.236 65.9997H63.764L65 68.4718V69.9998H63V73.9999H67C67.5304 73.9999 68.0391 73.7892 68.4142 73.4141C68.7893 73.039 69 72.5303 69 71.9998V67.9998C68.9997 67.6893 68.9271 67.3833 68.788 67.1057L66.788 63.1057C66.622 62.7735 66.3668 62.4941 66.051 62.2987C65.7353 62.1034 65.3713 61.9998 65 61.9996H63.868C64.1125 60.9413 64.2783 59.8664 64.364 58.7836C66.314 59.7036 68.126 60.7596 69.696 61.9036C73.54 64.7117 75 67.3357 75 69.1398V75.9999H11V69.1398C11 67.3337 12.46 64.7097 16.304 61.9056C18.236 60.4956 20.542 59.2196 23.014 58.1636C23.083 59.7573 23.3388 61.3375 23.776 62.8717L23.792 62.9277C22.5963 63.6841 21.7064 64.8387 21.2795 66.1876C20.8525 67.5366 20.916 68.993 21.4586 70.2996C22.0013 71.6063 22.9883 72.6792 24.2452 73.3287C25.5021 73.9783 26.9482 74.1628 28.3279 73.8496C29.7077 73.5364 30.9324 72.7456 31.7857 71.6171C32.639 70.4885 33.0661 69.0946 32.9914 67.6817C32.9168 66.2688 32.3452 64.9277 31.3777 63.8954C30.4103 62.863 29.1091 62.2057 27.704 62.0396L27.616 61.7516C27.4046 61.0067 27.2475 60.2473 27.146 59.4796C27.0339 58.7042 26.9871 57.9208 27.006 57.1375C27.0127 56.9695 27.0227 56.8202 27.036 56.6895C27.276 56.6149 27.516 56.5435 27.756 56.4755L28.586 58.0476H56.914L57.806 56.3515Z" fill="#F9FEF0"/>
<path d="M27 70.0298C28.076 70.0298 29 69.1498 29 67.9998C29 66.8517 28.076 65.9697 27 65.9697C25.924 65.9697 25 66.8497 25 67.9998C25 69.1478 25.924 70.0298 27 70.0298Z" fill="#F9FEF0"/>
<path fill-rule="evenodd" clip-rule="evenodd" d="M60.2146 12.7123C60.2771 12.7856 60.3347 12.8616 60.3875 12.9403L60.3896 12.9443L60.4146 12.9843L60.4812 13.0903C60.5424 13.1836 60.625 13.3156 60.7292 13.4863C62.0082 15.5994 63.1601 17.7811 64.1792 20.0206C66.0375 24.1208 68 29.655 68 34.9272C68 40.8935 63.8021 44.2016 60.1104 45.9097C58.2699 46.7494 56.327 47.3643 54.3271 47.7398C51.2487 50.4844 47.2011 52.0068 43 52C40.4949 52.0019 38.0217 51.461 35.7647 50.4176C33.5076 49.3742 31.525 47.8551 29.9646 45.9737L29.8688 45.9657C29.4158 45.9261 28.9647 45.8687 28.5167 45.7937C27.0999 45.5613 25.7204 45.1539 24.4125 44.5817C22.8917 43.9016 21.275 42.8576 20.0375 41.2555C18.7812 39.6295 18 37.5374 18 34.9272C18 29.993 20.5042 24.3868 22.8042 20.2226C24.1867 17.7253 25.7213 15.3083 27.4 12.9843L27.4667 12.8943L27.4917 12.8563L27.675 12.5963C27.8312 12.3823 28.0542 12.0963 28.3542 11.7602C29.1673 10.8602 30.0906 10.0577 31.1042 9.37015C33.6292 7.64207 37.525 6 43.1125 6C48.6854 6 52.9292 7.63407 55.7875 9.28614C57.2146 10.1122 58.2958 10.9402 59.0312 11.5742C59.4315 11.9229 59.8139 12.29 60.1771 12.6743L60.1979 12.6983L60.2083 12.7083L60.2146 12.7123ZM30.9937 15.0244L30.8937 15.1724L30.8896 15.1764L30.8729 15.1964L30.8042 15.2924C30.7403 15.3764 30.6486 15.5031 30.5292 15.6724C29.0584 17.7407 27.7077 19.8854 26.4833 22.0967C24.225 26.1889 22.1667 31.0451 22.1667 34.9252C22.1667 36.7233 22.6875 37.9694 23.3833 38.8714C24.1 39.7955 25.0896 40.4715 26.1729 40.9555C26.6875 41.1855 27.2083 41.3675 27.7042 41.5095C27.3073 39.7931 27.0089 38.0571 26.8104 36.3093C26.575 34.1612 26.5062 31.7791 26.9271 29.673C27.3417 27.6089 28.3188 25.3908 30.5563 24.2368C33.5333 22.7027 38.5708 20.6506 43.0125 19.2366C45.2271 18.5305 47.3875 17.9525 49.1146 17.6885C49.9625 17.5605 50.8333 17.4885 51.6 17.5625C52.2 17.6225 53.4437 17.8405 54.1312 18.9226C59.7146 26.6609 59.7979 33.7512 58.3833 38.9294C57.975 40.4275 57.4458 41.7535 56.9 42.8816C57.3625 42.7136 57.8292 42.5216 58.3 42.3056C61.3208 40.9055 63.8333 38.6774 63.8333 34.9252C63.8333 30.4811 62.1458 25.5528 60.3583 21.6167C59.4065 19.5254 58.3311 17.488 57.1375 15.5144L56.9417 15.1964L56.8917 15.1464L56.8687 15.1224C56.6687 14.9243 56.4617 14.7328 56.2479 14.5484C55.4401 13.8595 54.5669 13.2447 53.6396 12.7123C51.3125 11.3662 47.8021 10.0002 43.1146 10.0002C38.4396 10.0002 35.3812 11.3582 33.5187 12.6303C32.7814 13.1292 32.1092 13.7114 31.5167 14.3644C31.3346 14.5706 31.1636 14.7855 31.0042 15.0084L30.9937 15.0244ZM32.0479 41.7895L31.8917 41.1555C31.4734 39.421 31.1604 37.6646 30.9542 35.8953C30.7375 33.9092 30.7104 31.9751 31.0208 30.4291C31.3375 28.845 31.9167 28.079 32.5271 27.7629C35.25 26.3589 40.0604 24.3928 44.325 23.0347C46.4625 22.3547 48.3708 21.8547 49.7667 21.6427C50.2937 21.5627 50.6812 21.5327 50.9437 21.5347C55.5229 28.0709 55.475 33.8092 54.3521 37.9174C53.8638 39.6838 53.1257 41.3776 52.1583 42.9516C51.8029 43.5308 51.4097 44.0879 50.9812 44.6197L50.9667 44.6377L50.9229 44.6897L50.9125 44.6997C50.6729 44.9685 50.5119 45.2936 50.4458 45.6417C49.0135 46.6622 47.3702 47.3765 45.6264 47.7365C43.8826 48.0966 42.0788 48.094 40.3361 47.7291C38.5934 47.3642 36.9522 46.6453 35.523 45.6208C34.0938 44.5963 32.9075 43.29 32.0479 41.7895Z" stroke="#A6DB4B"/>
<path d="M30.9937 15.0244L30.8937 15.1724L30.8896 15.1764L30.8729 15.1964L30.8042 15.2924C30.7403 15.3764 30.6486 15.5031 30.5292 15.6724C29.0584 17.7407 27.7077 19.8854 26.4833 22.0967C24.225 26.1889 22.1667 31.0451 22.1667 34.9252C22.1667 36.7233 22.6875 37.9694 23.3833 38.8714C24.1 39.7955 25.0896 40.4715 26.1729 40.9555C26.6875 41.1855 27.2083 41.3675 27.7042 41.5095C27.3073 39.7931 27.0089 38.0571 26.8104 36.3093C26.575 34.1612 26.5062 31.7791 26.9271 29.673C27.3417 27.6089 28.3188 25.3908 30.5563 24.2368C33.5333 22.7027 38.5708 20.6506 43.0125 19.2366C45.2271 18.5305 47.3875 17.9525 49.1146 17.6885C49.9625 17.5605 50.8333 17.4885 51.6 17.5625C52.2 17.6225 53.4437 17.8405 54.1312 18.9226C59.7146 26.6609 59.7979 33.7512 58.3833 38.9294C57.975 40.4275 57.4458 41.7535 56.9 42.8816C57.3625 42.7136 57.8292 42.5216 58.3 42.3056C61.3208 40.9055 63.8333 38.6774 63.8333 34.9252C63.8333 30.4811 62.1458 25.5528 60.3583 21.6167C59.4065 19.5254 58.3311 17.488 57.1375 15.5144L56.9417 15.1964L56.8917 15.1464L56.8687 15.1224C56.6687 14.9243 56.4617 14.7328 56.2479 14.5484C55.4401 13.8595 54.5669 13.2447 53.6396 12.7123C51.3125 11.3662 47.8021 10.0002 43.1146 10.0002C38.4396 10.0002 35.3812 11.3582 33.5187 12.6303C32.7814 13.1292 32.1092 13.7114 31.5167 14.3644C31.3346 14.5706 31.1636 14.7855 31.0042 15.0084L30.9937 15.0244Z" stroke="#A6DB4B"/>
<path d="M32.0479 41.7895L31.8917 41.1555C31.4734 39.421 31.1604 37.6646 30.9542 35.8953C30.7375 33.9092 30.7104 31.9751 31.0208 30.4291C31.3375 28.845 31.9167 28.079 32.5271 27.7629C35.25 26.3589 40.0604 24.3928 44.325 23.0347C46.4625 22.3547 48.3708 21.8547 49.7667 21.6427C50.2937 21.5627 50.6812 21.5327 50.9437 21.5347C55.5229 28.0709 55.475 33.8092 54.3521 37.9174C53.8638 39.6838 53.1257 41.3776 52.1583 42.9516C51.8029 43.5308 51.4097 44.0879 50.9812 44.6197L50.9667 44.6377L50.9229 44.6897L50.9125 44.6997C50.6729 44.9685 50.5119 45.2936 50.4458 45.6417C49.0135 46.6622 47.3702 47.3765 45.6264 47.7365C43.8826 48.0966 42.0788 48.094 40.3361 47.7291C38.5934 47.3642 36.9522 46.6453 35.523 45.6208C34.0938 44.5963 32.9075 43.29 32.0479 41.7895Z" stroke="#A6DB4B"/>
<path fill-rule="evenodd" clip-rule="evenodd" d="M30.828 53.7095C30.404 52.8654 29.882 51.8234 29 52.0254C18.192 54.4855 7 61.5896 7 69.1398V80H79V69.1398C79 63.1917 72.056 57.5235 63.826 54.1795L63.798 54.1255L63.788 54.1055L57 52.0254C55.994 51.7954 54.954 53.1795 54.5 54.0455H31L30.828 53.7095ZM57.806 56.3515C58.6807 56.5929 59.548 56.8642 60.408 57.1655C60.432 57.8496 60.38 58.6556 60.268 59.4796C60.1547 60.3329 59.9728 61.1756 59.724 61.9996H57C56.6287 61.9998 56.2647 62.1034 55.9489 62.2987C55.6332 62.4941 55.378 62.7735 55.212 63.1057L53.212 67.1057C53.0729 67.3833 53.0003 67.6893 53 67.9998V71.9998C53 72.5303 53.2107 73.039 53.5858 73.4141C53.9609 73.7892 54.4696 73.9999 55 73.9999H59V69.9998H57V68.4718L58.236 65.9997H63.764L65 68.4718V69.9998H63V73.9999H67C67.5304 73.9999 68.0391 73.7892 68.4142 73.4141C68.7893 73.039 69 72.5303 69 71.9998V67.9998C68.9997 67.6893 68.9271 67.3833 68.788 67.1057L66.788 63.1057C66.622 62.7735 66.3668 62.4941 66.051 62.2987C65.7353 62.1034 65.3713 61.9998 65 61.9996H63.868C64.1125 60.9413 64.2783 59.8664 64.364 58.7836C66.314 59.7036 68.126 60.7596 69.696 61.9036C73.54 64.7117 75 67.3357 75 69.1398V75.9999H11V69.1398C11 67.3337 12.46 64.7097 16.304 61.9056C18.236 60.4956 20.542 59.2196 23.014 58.1636C23.083 59.7573 23.3388 61.3375 23.776 62.8717L23.792 62.9277C22.5963 63.6841 21.7064 64.8387 21.2795 66.1876C20.8525 67.5366 20.916 68.993 21.4586 70.2996C22.0013 71.6063 22.9883 72.6792 24.2452 73.3287C25.5021 73.9783 26.9482 74.1628 28.3279 73.8496C29.7077 73.5364 30.9324 72.7456 31.7857 71.6171C32.639 70.4885 33.0661 69.0946 32.9914 67.6817C32.9168 66.2688 32.3452 64.9277 31.3777 63.8954C30.4103 62.863 29.1091 62.2057 27.704 62.0396L27.616 61.7516C27.4046 61.0067 27.2475 60.2473 27.146 59.4796C27.0339 58.7042 26.9871 57.9208 27.006 57.1375C27.0127 56.9695 27.0227 56.8202 27.036 56.6895C27.276 56.6149 27.516 56.5435 27.756 56.4755L28.586 58.0476H56.914L57.806 56.3515ZM27 70.0298C28.076 70.0298 29 69.1498 29 67.9998C29 66.8517 28.076 65.9697 27 65.9697C25.924 65.9697 25 66.8497 25 67.9998C25 69.1478 25.924 70.0298 27 70.0298Z" stroke="#A6DB4B"/>
<path d="M57.806 56.3515C58.6807 56.5929 59.548 56.8642 60.408 57.1655C60.432 57.8496 60.38 58.6556 60.268 59.4796C60.1547 60.3329 59.9728 61.1756 59.724 61.9996H57C56.6287 61.9998 56.2647 62.1034 55.9489 62.2987C55.6332 62.4941 55.378 62.7735 55.212 63.1057L53.212 67.1057C53.0729 67.3833 53.0003 67.6893 53 67.9998V71.9998C53 72.5303 53.2107 73.039 53.5858 73.4141C53.9609 73.7892 54.4696 73.9999 55 73.9999H59V69.9998H57V68.4718L58.236 65.9997H63.764L65 68.4718V69.9998H63V73.9999H67C67.5304 73.9999 68.0391 73.7892 68.4142 73.4141C68.7893 73.039 69 72.5303 69 71.9998V67.9998C68.9997 67.6893 68.9271 67.3833 68.788 67.1057L66.788 63.1057C66.622 62.7735 66.3668 62.4941 66.051 62.2987C65.7353 62.1034 65.3713 61.9998 65 61.9996H63.868C64.1125 60.9413 64.2783 59.8664 64.364 58.7836C66.314 59.7036 68.126 60.7596 69.696 61.9036C73.54 64.7117 75 67.3357 75 69.1398V75.9999H11V69.1398C11 67.3337 12.46 64.7097 16.304 61.9056C18.236 60.4956 20.542 59.2196 23.014 58.1636C23.083 59.7573 23.3388 61.3375 23.776 62.8717L23.792 62.9277C22.5963 63.6841 21.7064 64.8387 21.2795 66.1876C20.8525 67.5366 20.916 68.993 21.4586 70.2996C22.0013 71.6063 22.9883 72.6792 24.2452 73.3287C25.5021 73.9783 26.9482 74.1628 28.3279 73.8496C29.7077 73.5364 30.9324 72.7456 31.7857 71.6171C32.639 70.4885 33.0661 69.0946 32.9914 67.6817C32.9168 66.2688 32.3452 64.9277 31.3777 63.8954C30.4103 62.863 29.1091 62.2057 27.704 62.0396L27.616 61.7516C27.4046 61.0067 27.2475 60.2473 27.146 59.4796C27.0339 58.7042 26.9871 57.9208 27.006 57.1375C27.0127 56.9695 27.0227 56.8202 27.036 56.6895C27.276 56.6149 27.516 56.5435 27.756 56.4755L28.586 58.0476H56.914L57.806 56.3515Z" stroke="#A6DB4B"/>
<path d="M27 70.0298C28.076 70.0298 29 69.1498 29 67.9998C29 66.8517 28.076 65.9697 27 65.9697C25.924 65.9697 25 66.8497 25 67.9998C25 69.1478 25.924 70.0298 27 70.0298Z" stroke="#A6DB4B"/>
</svg>
