<svg width="100%" height="100%" viewBox="0 0 86 86" fill="none" xmlns="http://www.w3.org/2000/svg">
<path d="M20.5174 27.5469L15.4531 43.1176V70.5469H70.5469V43.1176L65.4826 27.5469H20.5174ZM55.4297 52.7422C55.4297 53.1117 55.1273 53.4141 54.7578 53.4141H45.6875V62.4844C45.6875 62.8539 45.3852 63.1562 45.0156 63.1562H40.9844C40.6148 63.1562 40.3125 62.8539 40.3125 62.4844V53.4141H31.2422C30.8727 53.4141 30.5703 53.1117 30.5703 52.7422V48.7109C30.5703 48.3414 30.8727 48.0391 31.2422 48.0391H40.3125V38.9688C40.3125 38.5992 40.6148 38.2969 40.9844 38.2969H45.0156C45.3852 38.2969 45.6875 38.5992 45.6875 38.9688V48.0391H54.7578C55.1273 48.0391 55.4297 48.3414 55.4297 48.7109V52.7422Z" fill="#F9FEF0"/>
<path d="M54.7578 48.0391H45.6875V38.9688C45.6875 38.5992 45.3852 38.2969 45.0156 38.2969H40.9844C40.6148 38.2969 40.3125 38.5992 40.3125 38.9688V48.0391H31.2422C30.8727 48.0391 30.5703 48.3414 30.5703 48.7109V52.7422C30.5703 53.1117 30.8727 53.4141 31.2422 53.4141H40.3125V62.4844C40.3125 62.8539 40.6148 63.1562 40.9844 63.1562H45.0156C45.3852 63.1562 45.6875 62.8539 45.6875 62.4844V53.4141H54.7578C55.1273 53.4141 55.4297 53.1117 55.4297 52.7422V48.7109C55.4297 48.3414 55.1273 48.0391 54.7578 48.0391Z" fill="#A6DB4B"/>
<path d="M70.4797 23.3561C70.3043 22.8169 69.9629 22.3471 69.5043 22.0137C69.0458 21.6803 68.4935 21.5005 67.9266 21.5H61.8125V12.0938C61.8125 10.6072 60.6115 9.40625 59.125 9.40625H26.875C25.3885 9.40625 24.1875 10.6072 24.1875 12.0938V21.5H18.0734C17.5062 21.4992 16.9533 21.6786 16.4945 22.0121C16.0357 22.3457 15.6946 22.8162 15.5203 23.3561L9.40625 42.1602V73.9062C9.40625 75.3928 10.6072 76.5938 12.0938 76.5938H73.9062C75.3928 76.5938 76.5938 75.3928 76.5938 73.9062V42.1602L70.4797 23.3561ZM30.2344 15.4531H55.7656V21.5H30.2344V15.4531ZM70.5469 70.5469H15.4531V43.1176L20.5174 27.5469H65.4826L70.5469 43.1176V70.5469Z" fill="#A6DB4B"/>
</svg>
