<svg width="100%" height="100%" viewBox="0 0 64 64" fill="none" xmlns="http://www.w3.org/2000/svg">
<path d="M32.0023 61.6589C39.8682 61.6589 47.412 58.5341 52.974 52.9721C58.5361 47.41 61.6608 39.8663 61.6608 32.0003C61.6608 24.1344 58.5361 16.5906 52.974 11.0286C47.412 5.46653 39.8682 2.3418 32.0023 2.3418C24.1364 2.3418 16.5926 5.46653 11.0305 11.0286C5.46848 16.5906 2.34375 24.1344 2.34375 32.0003C2.34375 39.8663 5.46848 47.41 11.0305 52.9721C16.5926 58.5341 24.1364 61.6589 32.0023 61.6589Z" fill="#F9FEF0"/>
<path fill-rule="evenodd" clip-rule="evenodd" d="M9.37258 9.37258C15.3737 3.37142 23.5131 0 32 0C40.4869 0 48.6262 3.37142 54.6274 9.37258C60.6286 15.3737 64 23.5131 64 32C64 40.4869 60.6286 48.6263 54.6274 54.6274C48.6263 60.6286 40.4869 64 32 64C23.5131 64 15.3737 60.6286 9.37258 54.6274C3.37142 48.6262 0 40.4869 0 32C0 23.5131 3.37142 15.3737 9.37258 9.37258ZM32 4.68293C24.7551 4.68293 17.8069 7.56097 12.6839 12.6839C7.56097 17.8069 4.68293 24.7551 4.68293 32C4.68293 39.2449 7.56097 46.1931 12.6839 51.3161C17.8069 56.439 24.7551 59.3171 32 59.3171C39.2449 59.3171 46.1931 56.439 51.3161 51.3161C56.439 46.1931 59.3171 39.2449 59.3171 32C59.3171 24.7551 56.439 17.8069 51.3161 12.6839C46.1931 7.56097 39.2449 4.68293 32 4.68293Z" fill="#A6DB4B"/>
<path fill-rule="evenodd" clip-rule="evenodd" d="M25.8991 16.8325C26.7711 16.8859 27.5409 17.4203 27.8958 18.2186L38.5539 42.1995L45.602 30.4527C46.0251 29.7475 46.7873 29.3159 47.6098 29.3159H61.44C62.7332 29.3159 63.7815 30.3643 63.7815 31.6574C63.7815 32.9506 62.7332 33.9989 61.44 33.9989H48.9355L40.2517 48.4718C39.8022 49.221 38.973 49.6576 38.1009 49.6043C37.2289 49.5509 36.4591 49.0165 36.1042 48.2181L25.4461 24.2373L18.398 35.984C17.9749 36.6893 17.2127 37.1208 16.3902 37.1208H2.34146C1.04831 37.1208 0 36.0725 0 34.7794C0 33.4862 1.04831 32.4379 2.34146 32.4379H15.0645L23.7483 17.9649C24.1978 17.2158 25.027 16.7792 25.8991 16.8325Z" fill="#A6DB4B"/>
</svg>
