<svg width="100%" height="100%" viewBox="0 0 64 64" fill="none" xmlns="http://www.w3.org/2000/svg">
<g clip-path="url(#clip0_319_96)">
<path d="M51.8125 0.162502C49.9 0.662502 48.45 1.9875 47.725 3.9C47.3875 4.8 47.3875 6.325 47.7375 7.325L47.9875 8.0625L46.125 9.925L44.2625 11.8L41.5375 9.1125C38.7 6.3375 38.075 5.85 36.525 5.275C35.875 5.0375 35.375 4.95 34.25 4.9C32.55 4.8375 31.6875 5.0125 30.25 5.7125C28.9375 6.35 27.35 7.9375 26.725 9.25C25.5125 11.75 25.625 14.625 27.025 16.9625C27.25 17.35 28.0625 18.3125 28.8375 19.1125L30.2375 20.5625L23.4875 27.3125L16.75 34.0625L18.0625 35.375L19.375 36.6875L16.725 39.3375L14.0625 42L15.375 43.3125L16.6875 44.625L8.3375 52.975L0 61.3125L1.3375 62.6625L2.6875 64L11.025 55.6625L19.375 47.3125L20.6875 48.625L22 49.9375L24.6625 47.275L27.3125 44.625L28.6625 45.9625L30 47.3125L36.7375 40.575L43.4875 33.825L44.9125 35.2C45.7 35.95 46.65 36.75 47.0375 36.975C50.4875 39.0375 55.1125 38.2 57.45 35.0875C58.65 33.4875 59.15 32.05 59.15 30.175C59.1625 28.8625 58.9875 28.0125 58.5 26.9125C57.925 25.6375 57.45 25.0625 54.7625 22.3375L52.2 19.7375L54.0625 17.875L55.9375 16.0125L56.6875 16.2625C57.3 16.475 57.6625 16.5125 58.6875 16.475C59.775 16.4375 60.0375 16.375 60.7625 16.025C62.95 14.975 64.3125 12.3875 63.9125 10.05C63.625 8.3875 63.25 7.8625 60.075 4.65C56.9375 1.475 56.125 0.787498 55.025 0.374996C54.15 0.0374985 52.675 -0.0499954 51.8125 0.162502ZM53.7875 3.925C54.0125 4.025 55.5125 5.4375 57.1375 7.075C60.2625 10.225 60.375 10.375 60.2 11.3125C59.9875 12.45 58.5625 13.125 57.525 12.575C57.125 12.35 51.5875 6.8 51.3875 6.4125C51.3125 6.2625 51.25 5.8875 51.25 5.5875C51.25 4.275 52.5875 3.4 53.7875 3.925ZM35.4625 8.9C36.0625 9.1125 36.4375 9.4125 37.5625 10.5125L38.9375 11.8625L36 14.8125C34.3875 16.425 33 17.75 32.925 17.75C32.65 17.75 30.25 15.1625 29.975 14.55C29.5625 13.6625 29.575 11.95 30 11.0625C30.425 10.175 31.425 9.225 32.25 8.9C33.2 8.5375 34.5 8.5375 35.4625 8.9ZM51.75 12.3125L53.0625 13.625L51.275 15.4125L49.5 17.1875L48.1625 15.8375L46.8125 14.5L48.5625 12.75C49.525 11.7875 50.3375 11 50.375 11C50.4125 11 51.025 11.5875 51.75 12.3125ZM39.75 32.1875L30 41.9375L26.0375 37.9625L22.0625 34L31.8125 24.25L41.5625 14.5L45.525 18.4625L49.5 22.4375L39.75 32.1875ZM54.925 28.125C55.525 29.2375 55.55 30.9125 54.9875 32.025C54.5875 32.8 53.8 33.5875 53.0125 33.9625C52.4 34.2625 52.1625 34.3125 51.1875 34.3125C49.6375 34.3125 49.075 34.025 47.4375 32.375L46.1875 31.125L49.1875 28.125L52.1875 25.125L53.4 26.3375C54.0625 27 54.75 27.8 54.925 28.125ZM23.375 40.6875L24.6875 42L23.375 43.3125L22.0625 44.625L20.725 43.2875L19.375 41.9375L20.65 40.6625C21.3625 39.95 21.9625 39.375 22 39.375C22.0375 39.375 22.65 39.9625 23.375 40.6875Z" fill="#A6DB4B"/>
<path d="M39.75 32.1875L30 41.9375L26.0375 37.9625L22.0625 34L31.8125 24.25L41.5625 14.5L45.525 18.4625L49.5 22.4375L39.75 32.1875Z" fill="#E8F4D2"/>
<path d="M35.4625 8.9C36.0625 9.1125 36.4375 9.4125 37.5625 10.5125L38.9375 11.8625L36 14.8125C34.3875 16.425 33 17.75 32.925 17.75C32.65 17.75 30.25 15.1625 29.975 14.55C29.5625 13.6625 29.575 11.95 30 11.0625C30.425 10.175 31.425 9.225 32.25 8.9C33.2 8.5375 34.5 8.5375 35.4625 8.9Z" fill="#E8F4D2"/>
<path d="M54.925 28.125C55.525 29.2375 55.55 30.9125 54.9875 32.025C54.5875 32.8 53.8 33.5875 53.0125 33.9625C52.4 34.2625 52.1625 34.3125 51.1875 34.3125C49.6375 34.3125 49.075 34.025 47.4375 32.375L46.1875 31.125L49.1875 28.125L52.1875 25.125L53.4 26.3375C54.0625 27 54.75 27.8 54.925 28.125Z" fill="#E8F4D2"/>
<path d="M36.0875 25.225L30.5 30.8125L31.85 32.1625L33.1875 33.5L38.7875 27.9L44.375 22.3125L43.025 20.9625L41.6875 19.625L36.0875 25.225Z" fill="#A6DB4B"/>
</g>
<defs>
<clipPath id="clip0_319_96">
<rect width="64" height="64" fill="white"/>
</clipPath>
</defs>
</svg>
