<svg width="100%" height="100%" viewBox="0 0 64 64" fill="none" xmlns="http://www.w3.org/2000/svg">
<path d="M30.7857 35.0507V12.1444C30.7857 9.9844 29.9128 7.91283 28.3589 6.38545C26.805 4.85807 24.6975 4 22.5 4C20.3025 4 18.195 4.85807 16.6411 6.38545C15.0872 7.91283 14.2143 9.9844 14.2143 12.1444V35.0507C11.681 36.7846 9.77671 39.2679 8.7787 42.1393C7.78068 45.0107 7.74099 48.1202 8.6654 51.0153C9.58982 53.9104 11.4301 56.44 13.9184 58.2358C16.4066 60.0316 19.413 61 22.5 61C25.587 61 28.5934 60.0316 31.0816 58.2358C33.5699 56.44 35.4102 53.9104 36.3346 51.0153C37.259 48.1202 37.2193 45.0107 36.2213 42.1393C35.2233 39.2679 33.319 36.7846 30.7857 35.0507ZM22.5 52.8666C21.2709 52.8666 20.0695 52.5084 19.0475 51.8372C18.0256 51.166 17.2291 50.212 16.7587 49.0959C16.2884 47.9797 16.1653 46.7515 16.4051 45.5666C16.6449 44.3817 17.2368 43.2933 18.1058 42.4391C18.9749 41.5848 20.0822 41.003 21.2877 40.7673C22.4931 40.5317 23.7426 40.6526 24.8781 41.1149C26.0136 41.5773 26.9842 42.3602 27.667 43.3647C28.3498 44.3692 28.7143 45.5502 28.7143 46.7583C28.7143 48.3783 28.0596 49.932 26.8942 51.0775C25.7288 52.2231 24.1481 52.8666 22.5 52.8666Z" fill="#E8F4D2"/>
<path d="M58.4572 18.5951L52.915 20.3261L56.3346 24.8601C56.5153 25.0861 56.6471 25.3447 56.7222 25.6206C56.7973 25.8964 56.8142 26.184 56.7719 26.4662C56.7296 26.7485 56.6289 27.0197 56.4758 27.2639C56.3228 27.508 56.1204 27.7202 55.8807 27.8878C55.641 28.0554 55.3688 28.175 55.0802 28.2397C54.7916 28.3043 54.4925 28.3126 54.2005 28.2641C53.9085 28.2155 53.6296 28.1112 53.3803 27.9571C53.1309 27.8031 52.9162 27.6025 52.7488 27.3672L49.3375 22.8331L45.918 27.3672C45.5659 27.8076 45.0492 28.0983 44.4778 28.1777C43.9064 28.257 43.3254 28.1187 42.8583 27.7922C42.3912 27.4656 42.0749 26.9765 41.9767 26.429C41.8784 25.8814 42.006 25.3186 42.3322 24.8601L45.7518 20.3261L40.2096 18.5951C39.6503 18.4204 39.186 18.039 38.9189 17.5348C38.6518 17.0306 38.6037 16.445 38.7852 15.9067C38.9667 15.3683 39.363 14.9215 39.8869 14.6644C40.4107 14.4073 41.0192 14.361 41.5785 14.5358L47.1207 16.2694V10.6684C47.1207 10.1026 47.3542 9.55984 47.77 9.1597C48.1857 8.75955 48.7496 8.53476 49.3375 8.53476C49.9255 8.53476 50.4894 8.75955 50.9051 9.1597C51.3209 9.55984 51.5544 10.1026 51.5544 10.6684V16.2694L57.0966 14.5384C57.6559 14.3634 58.2645 14.4093 58.7886 14.6661C59.3127 14.923 59.7094 15.3697 59.8913 15.908C60.0732 16.4463 60.0254 17.0321 59.7586 17.5365C59.4917 18.041 59.0276 18.4227 58.4683 18.5978L58.4572 18.5951ZM31.6025 46.9412C31.6017 48.5373 31.1359 50.1012 30.2579 51.4552C29.38 52.8093 28.1251 53.8993 26.6359 54.6014C25.1466 55.3036 23.4826 55.5897 21.8329 55.4273C20.1832 55.2649 18.6138 54.6606 17.303 53.6829C15.9923 52.7051 14.9926 51.3932 14.4176 49.8961C13.8426 48.399 13.7153 46.7768 14.0502 45.2135C14.385 43.6503 15.1686 42.2088 16.3119 41.0527C17.4552 39.8965 18.9125 39.0721 20.5181 38.6731V29.8716C20.5181 29.3058 20.7517 28.763 21.1675 28.3629C21.5832 27.9628 22.1471 27.738 22.735 27.738C23.323 27.738 23.8868 27.9628 24.3026 28.3629C24.7183 28.763 24.9519 29.3058 24.9519 29.8716V38.6731C26.8547 39.1488 28.5398 40.2185 29.7433 41.7147C30.9468 43.2109 31.6007 45.049 31.6025 46.9412ZM27.1688 46.9412C27.1688 46.0971 26.9087 45.2721 26.4216 44.5703C25.9344 43.8686 25.2419 43.3216 24.4317 42.9986C23.6216 42.6756 22.7301 42.5911 21.87 42.7558C21.01 42.9204 20.22 43.3269 19.5999 43.9237C18.9798 44.5205 18.5575 45.2808 18.3865 46.1086C18.2154 46.9364 18.3032 47.7945 18.6388 48.5742C18.9743 49.354 19.5426 50.0204 20.2718 50.4893C21.0009 50.9583 21.8581 51.2085 22.735 51.2085C23.9109 51.2085 25.0387 50.7589 25.8702 49.9586C26.7016 49.1584 27.1688 48.0729 27.1688 46.9412ZM40.47 46.9412C40.4682 49.8275 39.7059 52.6662 38.2545 55.1919C36.8031 57.7176 34.71 59.8479 32.1708 61.3835C29.6317 62.9192 26.7294 63.81 23.7354 63.9728C20.7413 64.1356 17.7532 63.565 15.0505 62.3144C12.3478 61.0638 10.0188 59.174 8.28104 56.8217C6.54332 54.4693 5.45372 51.7313 5.1141 48.8636C4.77449 45.9959 5.19594 43.0921 6.33907 40.4237C7.4822 37.7553 9.30967 35.4095 11.6506 33.6056V10.6684C11.6506 7.839 12.8185 5.12544 14.8972 3.12472C16.9759 1.12399 19.7953 0 22.735 0C25.6748 0 28.4941 1.12399 30.5729 3.12472C32.6516 5.12544 33.8194 7.839 33.8194 10.6684V33.6056C35.895 35.207 37.5702 37.2368 38.7214 39.545C39.8725 41.8532 40.4701 44.3808 40.47 46.9412ZM36.0363 46.9412C36.0345 44.8771 35.5152 42.844 34.5223 41.0145C33.5295 39.1851 32.0925 37.6133 30.3334 36.4327C30.0392 36.235 29.7993 35.9716 29.6342 35.665C29.4691 35.3584 29.3838 35.0178 29.3857 34.6724V10.6684C29.3857 8.97078 28.685 7.34264 27.4377 6.14221C26.1905 4.94177 24.4989 4.26738 22.735 4.26738C20.9712 4.26738 19.2795 4.94177 18.0323 6.14221C16.7851 7.34264 16.0844 8.97078 16.0844 10.6684V34.6724C16.0844 35.016 15.9983 35.3544 15.8333 35.659C15.6683 35.9636 15.4293 36.2254 15.1367 36.4221C13.2597 37.6794 11.7513 39.3812 10.757 41.3632C9.76266 43.3452 9.31603 45.5404 9.46023 47.737C9.60443 49.9336 10.3346 52.0573 11.5802 53.9031C12.8258 55.7489 14.5448 57.2544 16.5712 58.2743C18.5976 59.2943 20.863 59.7941 23.1487 59.7257C25.4344 59.6572 27.6631 59.0228 29.6197 57.8836C31.5763 56.7444 33.1947 55.1389 34.3187 53.2221C35.4427 51.3054 36.0343 49.1421 36.0363 46.9412Z" fill="#A6DB4B"/>
</svg>
