<svg width="100%" height="100%" viewBox="0 0 64 64" fill="none" xmlns="http://www.w3.org/2000/svg">
<g clip-path="url(#clip0_319_71)">
<rect x="25.8438" width="13.5385" height="64" fill="#E8F4D2"/>
<path d="M21.525 0.0874996C21.4375 0.125 21.2875 0.3125 21.1875 0.5C21.025 0.8125 21 2.5875 21 13.4625V26.0625L16.0875 21.15C11.65 16.7125 11.15 16.25 10.775 16.25C10.25 16.25 9.875 16.625 9.875 17.15C9.875 17.525 10.4125 18.1 15.725 23.4C21.025 28.7125 21.6 29.25 21.975 29.25C22.2125 29.25 22.475 29.15 22.625 29C22.875 28.75 22.875 28.5875 22.875 14.6375V0.512499L22.55 0.262499C22.225 0.0124989 21.8625 -0.0500011 21.525 0.0874996Z" fill="#A6DB4B"/>
<path d="M25.3841 0.251663C25.2466 0.389164 25.1091 0.626659 25.0716 0.776661C25.0643 0.808598 25.0579 1.18334 25.0524 1.84766C25.0302 4.56347 25.0241 12.1189 25.0341 20.8767L25.0716 40.6892L25.3591 41.2892C25.6865 41.9439 26.2409 42.4423 26.8841 42.7134C27.4199 42.9392 28.0173 43.0073 28.5966 42.8767C29.9841 42.5767 30.8841 41.4642 30.8841 40.0767C30.8716 38.2142 29.5591 37.0017 27.6966 37.1517L26.8841 37.2267V26.5017V15.7767L27.6841 15.8392C28.6716 15.9267 29.2591 15.7392 29.9216 15.1392C30.5841 14.5517 30.8841 13.8767 30.8841 12.9642C30.8841 12.1392 30.6966 11.6267 30.1966 11.0267C29.6091 10.3267 28.9591 10.0642 27.8591 10.0767L26.8841 10.0892V5.31416V0.539165L26.5966 0.276661C26.2341 -0.0608406 25.7091 -0.0733337 25.3841 0.251663ZM28.4966 12.0642C28.9091 12.2642 29.0091 12.4767 29.0091 13.0642C29.0091 13.8267 28.0591 14.2642 27.4091 13.8017C26.9716 13.5017 26.8591 13.0642 27.0716 12.5517C27.3341 11.9267 27.8716 11.7392 28.4966 12.0642ZM28.7216 39.2767C28.9091 39.4517 29.0091 39.6892 29.0091 39.9642C29.0091 40.5642 28.8341 40.8392 28.3341 41.0017C27.7716 41.1892 27.2216 40.9142 27.0341 40.3767C26.6716 39.3517 27.9341 38.5392 28.7216 39.2767Z" fill="#A6DB4B"/>
<path d="M25.0716 40.6892L25.3591 41.2892C25.6865 41.9439 26.2409 42.4423 26.8841 42.7134V49.8477H25.0716V40.6892Z" fill="#A6DB4B"/>
<path d="M25.3841 0.251663C25.2466 0.389164 25.1091 0.626659 25.0716 0.776661C25.0643 0.808598 25.0579 1.18334 25.0524 1.84766H22.1641V0.251663H25.3841Z" fill="#A6DB4B"/>
<path d="M37.4 0.288586C37.175 0.526087 37.125 0.726086 37.125 1.35109V2.11359L36.3375 2.03859C35.7 1.98859 35.4375 2.02609 34.9 2.25109C33.75 2.75109 33.125 3.70108 33.125 4.96358C33.125 5.88858 33.4375 6.57608 34.1125 7.15108C34.775 7.71358 35.5375 7.93859 36.4375 7.82608L37.125 7.75109V17.5636C37.125 27.2136 37.125 27.3761 37.375 27.6261C37.7125 27.9636 38.3875 27.9511 38.7 27.6136C38.925 27.3636 38.9375 26.9261 38.975 14.3261C38.9875 7.17608 38.975 1.12609 38.9375 0.901087C38.7875 0.0510864 37.9375 -0.286413 37.4 0.288586ZM36.6875 4.16358C37.4 4.77608 36.9375 6.00109 35.9875 6.00109C35.45 6.00109 35 5.51358 35 4.93859C35 4.01358 36 3.56359 36.6875 4.16358Z" fill="#A6DB4B"/>
<path d="M41.4524 0.264725L41.1274 0.514725V1.84796V21.4897C41.1274 41.3022 41.1399 42.4772 41.3524 42.6647C41.4649 42.7647 41.7274 42.9022 41.9149 42.9522C42.2524 43.0272 42.5774 42.7397 48.2024 37.1147C53.5399 31.7772 54.1274 31.1522 54.1274 30.7897C54.1274 30.5147 54.0274 30.3147 53.8024 30.1397C53.1024 29.5897 53.1774 29.5147 47.9149 34.7772L43.0024 39.6897V20.2772C43.0024 3.48973 42.9774 0.814728 42.8149 0.514725C42.5274 -0.0602722 41.9899 -0.160275 41.4524 0.264725Z" fill="#A6DB4B"/>
<path d="M41.4524 0.264725L41.1274 0.514725V1.84796H38.1562V0.264725H41.4524Z" fill="#A6DB4B"/>
<path d="M31.1286 18.1875C29.0411 18.8375 28.4036 21.475 29.9536 23.05C30.4786 23.575 31.2161 23.875 32.0036 23.875C33.6536 23.875 34.8911 22.65 34.8911 20.9875C34.9036 19.6375 34.1161 18.5625 32.8286 18.1875C32.0786 17.9625 31.8661 17.9625 31.1286 18.1875ZM32.4911 20.0625C33.4161 20.5375 33.0661 22 32.0161 22C30.9161 22 30.5911 20.55 31.5661 20.025C31.9036 19.8375 32.0786 19.8375 32.4911 20.0625Z" fill="#A6DB4B"/>
<path d="M7.56784 19.1512C7.43034 19.2262 7.25534 19.3887 7.16784 19.4887C6.74284 20.0387 6.79284 20.0887 13.0428 26.3637C16.6053 29.9512 19.2678 32.7262 19.5428 33.1512C20.1303 34.0512 20.4678 34.8262 20.7678 35.9887C20.9928 36.8762 21.0053 37.5262 21.0053 50.0262C21.0053 61.2887 21.0303 63.1887 21.1928 63.4887C21.4803 64.0637 22.0178 64.1637 22.5553 63.7387L22.8928 63.4762L22.8428 49.7762C22.8178 37.0637 22.7928 36.0137 22.5928 35.3137C22.2178 34.0762 21.3053 32.3387 20.5178 31.3512C19.3803 29.9387 8.49284 19.1512 8.13034 19.0762C7.95534 19.0387 7.70534 19.0637 7.56784 19.1512Z" fill="#A6DB4B"/>
<path d="M34.5424 30.5012C32.6049 31.6137 32.6424 34.4387 34.5924 35.5262C35.2549 35.9012 36.2174 36.0262 36.8549 35.8262L37.1299 35.7387V45.4887V55.2512L36.4424 55.1762C35.5424 55.0637 34.7799 55.2887 34.1174 55.8512C33.4424 56.4262 33.1299 57.1137 33.1299 58.0387C33.1299 58.8637 33.3174 59.3762 33.8174 59.9762C34.4049 60.6637 35.0549 60.9387 36.1674 60.9387L37.1299 60.9262V62.1887C37.1299 63.3512 37.1549 63.4762 37.4174 63.7262C37.9299 64.2137 38.6299 64.0387 38.8674 63.3637C39.0549 62.8012 39.0674 33.2762 38.8674 32.3762C38.6551 31.3854 37.9759 30.6563 37.1299 30.3165C36.332 29.9961 35.3857 30.0219 34.5424 30.5012ZM36.6299 32.1262C37.0049 32.3262 37.1549 32.9512 36.9424 33.4387C36.5299 34.4387 35.0049 34.1012 35.0049 33.0137C35.0049 32.2012 35.8799 31.7262 36.6299 32.1262ZM36.6049 57.2012C37.0424 57.5012 37.1549 57.9387 36.9549 58.4387C36.6424 59.1762 35.8549 59.3637 35.3174 58.8137C34.4174 57.9262 35.5799 56.4762 36.6049 57.2012Z" fill="#A6DB4B"/>
<path d="M38.8674 32.3762C38.6551 31.3854 37.9759 30.6563 37.1299 30.3165V22.7701H38.8674V32.3762Z" fill="#A6DB4B"/>
<path d="M49.5649 38.7761C43.0899 45.2636 42.6399 45.8011 41.8774 47.7761C41.1524 49.6635 41.1274 49.9136 41.1274 57.001V62.1544V63.4885L41.4524 63.7385C41.9899 64.1635 42.5274 64.0635 42.8149 63.4885C42.9774 63.201 43.0024 62.126 43.0024 56.9135C43.0024 49.8136 43.0274 49.6511 43.9524 47.7511L44.5399 46.5636L50.7024 40.3761C54.9149 36.1386 56.8899 34.0761 56.9524 33.8386C57.0774 33.3011 56.6774 32.8261 56.0649 32.7761L55.5774 32.7386L49.5649 38.7761Z" fill="#A6DB4B"/>
<path d="M41.1274 62.1544V63.4885L41.4524 63.7385H38.1562V62.1544H41.1274Z" fill="#A6DB4B"/>
<path d="M25.3644 45.3642L25.0644 45.6017L25.0269 54.1517C25.0055 58.1563 25.0207 61.6866 25.0489 62.7704C25.0537 62.9553 25.0589 63.069 25.0644 63.1017C25.119 63.4113 25.2665 63.6529 25.4579 63.8072C25.7921 64.0765 26.2602 64.0798 26.6019 63.7142L26.8769 63.4267V54.5267C26.8769 45.7892 26.8769 45.6267 26.6269 45.3767C26.3144 45.0642 25.7394 45.0517 25.3644 45.3642Z" fill="#A6DB4B"/>
<path d="M25.0489 62.7704C25.0537 62.9553 25.0589 63.069 25.0644 63.1017C25.119 63.4113 25.2665 63.6529 25.4579 63.8072H22.1562V62.7704H25.0489Z" fill="#A6DB4B"/>
<path d="M30.8751 45.3254C30.3126 45.5754 29.6626 46.1879 29.3626 46.7879C29.0751 47.3379 29.0251 48.4754 29.2501 49.0629C29.8751 50.7004 31.9251 51.4504 33.4126 50.5879C34.4251 49.9879 34.9001 49.1629 34.8876 47.9754C34.8876 46.8379 34.1626 45.7629 33.1001 45.3254C32.5126 45.0754 31.4501 45.0754 30.8751 45.3254ZM32.6751 47.2629C32.9126 47.4504 33.0001 47.6379 33.0001 47.9504C33.0001 48.5379 32.8376 48.8129 32.3751 49.0004C31.3001 49.4379 30.4251 47.9629 31.3501 47.2504C31.7501 46.9254 32.2501 46.9379 32.6751 47.2629Z" fill="#A6DB4B"/>
</g>
<defs>
<clipPath id="clip0_319_71">
<rect width="64" height="64" fill="white"/>
</clipPath>
</defs>
</svg>
