<svg width="100%" height="100%" viewBox="0 0 65 65" fill="none" xmlns="http://www.w3.org/2000/svg">
<path fill-rule="evenodd" clip-rule="evenodd" d="M60.4386 55.9782H63.2895C63.7431 55.9782 64.1782 56.1592 64.499 56.4814C64.8198 56.8036 65 57.2405 65 57.6961C65 58.1518 64.8198 58.5887 64.499 58.9109C64.1782 59.2331 63.7431 59.4141 63.2895 59.4141H1.71053C1.25687 59.4141 0.821787 59.2331 0.501001 58.9109C0.180215 58.5887 0 58.1518 0 57.6961C0 57.2405 0.180215 56.8036 0.501001 56.4814C0.821787 56.1592 1.25687 55.9782 1.71053 55.9782H4.5614V9.59441C4.5614 8.5313 4.98191 7.51173 5.73041 6.75999C6.47891 6.00826 7.49409 5.58594 8.55263 5.58594H35.9211C36.9796 5.58594 37.9948 6.00826 38.7433 6.75999C39.4918 7.51173 39.9123 8.5313 39.9123 9.59441V28.4915H56.4474C57.5059 28.4915 58.5211 28.9138 59.2696 29.6656C60.0181 30.4173 60.4386 31.4369 60.4386 32.5V55.9782ZM56.8505 32.0951C56.7436 31.9877 56.5986 31.9274 56.4474 31.9274H39.9123V55.9782H57.0175V32.5C57.0175 32.3481 56.9575 32.2025 56.8505 32.0951ZM8.14946 9.1895C8.04253 9.29689 7.98246 9.44254 7.98246 9.59441V55.9782H13.6842V41.6622C13.6842 41.2066 13.8644 40.7697 14.1852 40.4475C14.506 40.1253 14.9411 39.9443 15.3947 39.9443H29.0789C29.5326 39.9443 29.9677 40.1253 30.2885 40.4475C30.6093 40.7697 30.7895 41.2066 30.7895 41.6622V55.9782H36.4912V9.59441C36.4912 9.44254 36.4312 9.29689 36.3242 9.1895C36.2173 9.08211 36.0723 9.02178 35.9211 9.02178H8.55263C8.40141 9.02178 8.25638 9.08211 8.14946 9.1895ZM17.1053 43.3801V55.9782H27.3684V43.3801H17.1053Z" fill="#A6DB4B"/>
<path d="M13.6842 23.3378C13.6842 22.8821 13.8644 22.4452 14.1852 22.123C14.506 21.8008 14.9411 21.6198 15.3947 21.6198H20.5263V16.4661C20.5263 16.0105 20.7065 15.5735 21.0273 15.2513C21.3481 14.9292 21.7832 14.7482 22.2368 14.7482C22.6905 14.7482 23.1256 14.9292 23.4464 15.2513C23.7672 15.5735 23.9474 16.0105 23.9474 16.4661V21.6198H29.0789C29.5326 21.6198 29.9677 21.8008 30.2885 22.123C30.6093 22.4452 30.7895 22.8821 30.7895 23.3378C30.7895 23.7934 30.6093 24.2303 30.2885 24.5525C29.9677 24.8747 29.5326 25.0557 29.0789 25.0557H23.9474V30.2094C23.9474 30.6651 23.7672 31.102 23.4464 31.4242C23.1256 31.7464 22.6905 31.9274 22.2368 31.9274C21.7832 31.9274 21.3481 31.7464 21.0273 31.4242C20.7065 31.102 20.5263 30.6651 20.5263 30.2094V25.0557H15.3947C14.9411 25.0557 14.506 24.8747 14.1852 24.5525C13.8644 24.2303 13.6842 23.7934 13.6842 23.3378Z" fill="#A6DB4B"/>
<path fill-rule="evenodd" clip-rule="evenodd" d="M7.98246 9.59441C7.98246 9.44254 8.04253 9.29689 8.14946 9.1895C8.25638 9.08211 8.40141 9.02178 8.55263 9.02178H35.9211C36.0723 9.02178 36.2173 9.08211 36.3242 9.1895C36.4312 9.29689 36.4912 9.44254 36.4912 9.59441V55.9782H30.7895V41.6622C30.7895 41.2066 30.6093 40.7697 30.2885 40.4475C29.9677 40.1253 29.5326 39.9443 29.0789 39.9443H15.3947C14.9411 39.9443 14.506 40.1253 14.1852 40.4475C13.8644 40.7697 13.6842 41.2066 13.6842 41.6622V55.9782H7.98246V9.59441ZM14.1852 22.123C13.8644 22.4452 13.6842 22.8821 13.6842 23.3378C13.6842 23.7934 13.8644 24.2303 14.1852 24.5525C14.506 24.8747 14.9411 25.0557 15.3947 25.0557H20.5263V30.2094C20.5263 30.6651 20.7065 31.102 21.0273 31.4242C21.3481 31.7464 21.7832 31.9274 22.2368 31.9274C22.6905 31.9274 23.1256 31.7464 23.4464 31.4242C23.7672 31.102 23.9474 30.6651 23.9474 30.2094V25.0557H29.0789C29.5326 25.0557 29.9677 24.8747 30.2885 24.5525C30.6093 24.2303 30.7895 23.7934 30.7895 23.3378C30.7895 22.8821 30.6093 22.4452 30.2885 22.123C29.9677 21.8008 29.5326 21.6198 29.0789 21.6198H23.9474V16.4661C23.9474 16.0105 23.7672 15.5735 23.4464 15.2513C23.1256 14.9292 22.6905 14.7482 22.2368 14.7482C21.7832 14.7482 21.3481 14.9292 21.0273 15.2513C20.7065 15.5735 20.5263 16.0105 20.5263 16.4661V21.6198H15.3947C14.9411 21.6198 14.506 21.8008 14.1852 22.123Z" fill="#E8F4D2"/>
</svg>
