<svg width="100%" height="100%" viewBox="0 0 64 64" fill="none" xmlns="http://www.w3.org/2000/svg">
<g clip-path="url(#clip0_319_137)">
<path fill-rule="evenodd" clip-rule="evenodd" d="M58.6667 3.55556H5.33333C4.86184 3.55556 4.40965 3.74286 4.07625 4.07625C3.74286 4.40965 3.55556 4.86184 3.55556 5.33333V58.6667C3.55556 59.1382 3.74286 59.5903 4.07625 59.9237C4.40965 60.2571 4.86184 60.4444 5.33333 60.4444H58.6667C59.1382 60.4444 59.5903 60.2571 59.9237 59.9237C60.2571 59.5903 60.4444 59.1382 60.4444 58.6667V5.33333C60.4444 4.86184 60.2571 4.40965 59.9237 4.07625C59.5903 3.74286 59.1382 3.55556 58.6667 3.55556ZM5.33333 0C3.91885 0 2.56229 0.561903 1.5621 1.5621C0.561903 2.56229 0 3.91885 0 5.33333V58.6667C0 60.0812 0.561903 61.4377 1.5621 62.4379C2.56229 63.4381 3.91885 64 5.33333 64H58.6667C60.0812 64 61.4377 63.4381 62.4379 62.4379C63.4381 61.4377 64 60.0812 64 58.6667V5.33333C64 3.91885 63.4381 2.56229 62.4379 1.5621C61.4377 0.561903 60.0812 0 58.6667 0H5.33333Z" fill="#A6DB4B"/>
<path d="M58.6667 3.55556H5.33333C4.86184 3.55556 4.40965 3.74286 4.07625 4.07625C3.74286 4.40965 3.55556 4.86184 3.55556 5.33333V58.6667C3.55556 59.1382 3.74286 59.5903 4.07625 59.9237C4.40965 60.2571 4.86184 60.4444 5.33333 60.4444H58.6667C59.1382 60.4444 59.5903 60.2571 59.9237 59.9237C60.2571 59.5903 60.4444 59.1382 60.4444 58.6667V5.33333C60.4444 4.86184 60.2571 4.40965 59.9237 4.07625C59.5903 3.74286 59.1382 3.55556 58.6667 3.55556Z" fill="#F9FEF0"/>
<path fill-rule="evenodd" clip-rule="evenodd" d="M45.535 13.4243C45.535 15.2167 44.8208 16.9357 43.5494 18.2032C42.278 19.4706 40.5536 20.1826 38.7556 20.1826C36.9576 20.1826 35.2333 19.4706 33.9619 18.2032C32.6905 16.9357 31.9763 15.2167 31.9763 13.4243C31.9763 11.6319 32.6905 9.91291 33.9619 8.64548C35.2333 7.37805 36.9576 6.66602 38.7556 6.66602C40.5536 6.66602 42.278 7.37805 43.5494 8.64548C44.8208 9.91291 45.535 11.6319 45.535 13.4243ZM13.91 42.7449H24.4559L32.4069 50.5666L36.1454 59.1604C36.5274 60.0383 37.2436 60.729 38.1364 61.0805C39.0293 61.432 40.0256 61.4155 40.9063 61.0347C41.7869 60.6538 42.4797 59.9399 42.8323 59.0498C43.1849 58.1597 43.1684 57.1665 42.7864 56.2886L38.7692 47.0526C38.5848 46.6295 38.3206 46.2455 37.9911 45.9216L34.7593 42.7449H50.1004C51.0603 42.7449 51.9808 43.125 52.6595 43.8016C53.3382 44.4782 53.7195 45.3959 53.7195 46.3527V60.7839H57.3385V46.3527C57.3385 44.439 56.576 42.6037 55.2185 41.2505C53.8611 39.8973 52.0201 39.1371 50.1004 39.1371H44.4403C45.2961 38.9337 46.0483 38.4265 46.5562 37.7103C47.0641 36.994 47.2929 36.1179 47.1997 35.2457C47.1066 34.3735 46.6979 33.5651 46.0501 32.9715C45.4024 32.3779 44.5599 32.0399 43.6803 32.0207C40.5063 31.9486 39.5545 31.4218 38.8723 30.8103C38.4145 30.3972 37.9024 29.7713 37.1931 28.6853C36.6828 27.906 36.1581 27.0275 35.5139 25.9506L34.6218 24.466L34.544 24.3397C34.2942 23.9116 34.0249 23.495 33.7369 23.0914C33.3841 22.617 32.7308 21.8467 31.6343 21.3922C30.5323 20.934 29.5099 21.0133 28.8783 21.1125C28.2797 21.2225 27.6876 21.3658 27.105 21.5419C25.5343 21.991 24.2261 23.1798 23.3683 24.1088C22.2943 25.2879 21.3816 26.6035 20.6541 28.0215C19.1974 30.832 17.9307 35.0801 19.7258 39.0433L19.7692 39.1371H13.91C11.9903 39.1371 10.1493 39.8973 8.79186 41.2505C7.43446 42.6037 6.67188 44.439 6.67188 46.3527V60.7839H10.2909V46.3527C10.2909 45.3959 10.6722 44.4782 11.3509 43.8016C12.0296 43.125 12.9501 42.7449 13.91 42.7449ZM41.65 39.1371H31.0932L29.3633 37.436L32.1011 34.0249C32.6765 34.7933 33.3063 35.5221 34.0301 36.1715C36.1563 38.08 38.6082 38.8737 41.65 39.1371ZM19.1069 42.9019L25.0349 48.5697L23.5348 53.6152C23.4431 53.9243 23.3117 54.2165 23.1404 54.4919L19.9447 59.6258C19.4387 60.4389 18.6293 61.0183 17.6947 61.2365C16.7602 61.4547 15.7769 61.2938 14.9613 60.7893C14.1457 60.2848 13.5645 59.478 13.3456 58.5463C13.1267 57.6147 13.2881 56.6345 13.7942 55.8214L16.7346 51.1006L18.7305 44.3847L19.1069 42.9019Z" fill="#A6DB4B"/>
</g>
<defs>
<clipPath id="clip0_319_137">
<rect width="64" height="64" fill="white"/>
</clipPath>
</defs>
</svg>
