<svg width="100%" height="100%" viewBox="0 0 64 64" fill="none" xmlns="http://www.w3.org/2000/svg">
<g clip-path="url(#clip0_319_146)">
<path opacity="0.16" d="M55 29C55 35.8956 52.2607 42.5088 47.3848 47.3848C42.5088 52.2607 35.8956 55 29 55C22.1044 55 15.4912 52.2607 10.6152 47.3848C5.73928 42.5088 3 35.8956 3 29C3 22.1044 5.73928 15.4912 10.6152 10.6152C15.4912 5.73928 22.1044 3 29 3C35.8956 3 42.5088 5.73928 47.3848 10.6152C52.2607 15.4912 55 22.1044 55 29Z" fill="#A6DB4B"/>
<path fill-rule="evenodd" clip-rule="evenodd" d="M17.7636 2.19041C21.2548 0.744302 24.9967 0 28.7756 0C32.5544 0 36.2963 0.744302 39.7875 2.19041C43.2787 3.63652 46.4509 5.75611 49.123 8.42817C51.795 11.1002 53.9146 14.2724 55.3607 17.7636C56.8068 21.2548 57.5511 24.9967 57.5511 28.7756C57.5511 32.5544 56.8068 36.2963 55.3607 39.7875C54.2958 42.3584 52.8657 44.7563 51.1186 46.9089L63.1281 58.9184C64.2906 60.0809 64.2906 61.9657 63.1281 63.1281C61.9657 64.2906 60.0809 64.2906 58.9184 63.1281L46.909 51.1187C41.8054 55.261 35.4085 57.5511 28.7756 57.5511C21.1438 57.5511 13.8246 54.5194 8.42817 49.123C3.0317 43.7265 0 36.4073 0 28.7756C0 21.1438 3.0317 13.8246 8.42817 8.42817C11.1002 5.75611 14.2724 3.63652 17.7636 2.19041ZM28.7756 5.95343C25.7785 5.95343 22.8108 6.54374 20.0419 7.69066C17.273 8.83758 14.7571 10.5186 12.6379 12.6379C8.35789 16.9179 5.95343 22.7228 5.95343 28.7756C5.95343 34.8284 8.35789 40.6333 12.6379 44.9132C16.9179 49.1932 22.7228 51.5977 28.7756 51.5977C34.8284 51.5977 40.6333 49.1932 44.9132 44.9132C47.0325 42.794 48.7135 40.2781 49.8605 37.5092C51.0074 34.7403 51.5977 31.7726 51.5977 28.7756C51.5977 25.7785 51.0074 22.8108 49.8605 20.0419C48.7135 17.273 47.0325 14.7571 44.9132 12.6379C42.794 10.5186 40.2781 8.83758 37.5092 7.69066C34.7403 6.54374 31.7726 5.95343 28.7756 5.95343Z" fill="#A6DB4B"/>
</g>
<defs>
<clipPath id="clip0_319_146">
<rect width="64" height="64" fill="white"/>
</clipPath>
</defs>
</svg>
