<svg width="100%" height="100%" viewBox="0 0 64 64" fill="none" xmlns="http://www.w3.org/2000/svg">
<path d="M44.5886 32C48.0296 31.9993 51.381 30.9184 54.1582 28.9139C56.9355 26.9093 58.9944 24.085 60.0373 20.8494C61.0802 17.6138 61.0529 14.1347 59.9594 10.9154C58.866 7.69609 56.763 4.9035 53.9547 2.94157C51.1464 0.979638 47.7783 -0.0499072 44.3378 0.00186085C40.8973 0.053629 37.5627 1.18403 34.8163 3.22954C32.0699 5.27505 30.0542 8.12961 29.0607 11.3803C28.0672 14.631 28.1475 18.1093 29.2898 21.312L20.6919 25.552C18.2625 24.3156 15.523 23.798 12.8026 24.0614C10.0822 24.3247 7.49688 25.3579 5.35742 27.0367C3.21796 28.7154 1.61549 30.9682 0.742702 33.5242C-0.130088 36.0802 -0.236037 38.8306 0.437594 41.4446C1.11123 44.0586 2.53576 46.425 4.53989 48.2592C6.54403 50.0933 9.04244 51.3172 11.7347 51.7836C14.427 52.25 17.1984 51.939 19.7159 50.8882C22.2333 49.8373 24.3895 48.0913 25.9252 45.86L36.8298 51.396C36.4272 52.8782 36.3752 54.4319 36.678 55.9371C36.9807 57.4423 37.6301 58.8587 38.5759 60.0768C39.5216 61.295 40.7385 62.2823 42.1325 62.9626C43.5265 63.6428 45.0604 63.9978 46.6155 64C48.3331 63.9996 50.0225 63.5685 51.5249 62.7471C53.0273 61.9256 54.2935 60.7409 55.2046 59.3041C56.1156 57.8673 56.6416 56.2256 56.7332 54.5331C56.8248 52.8406 56.4789 51.153 55.728 49.6286C54.9772 48.1043 53.846 46.7933 52.4408 45.8187C51.0355 44.8441 49.4023 44.2379 47.6945 44.0571C45.9867 43.8763 44.2603 44.1267 42.6775 44.7849C41.0947 45.4432 39.7074 46.4875 38.6459 47.82L27.7008 42.268C28.4862 39.847 28.5887 37.2606 27.9974 34.7864C27.406 32.3123 26.1432 30.0437 24.3443 28.224L31.1059 24.888C32.5873 27.0761 34.5927 28.8698 36.9445 30.1104C39.2963 31.3509 41.9219 32 44.5886 32ZM44.5886 28C41.3633 28 38.27 26.7357 35.9894 24.4853C33.7087 22.2348 32.4274 19.1826 32.4274 16C32.4274 12.8174 33.7087 9.76516 35.9894 7.51472C38.27 5.26428 41.3633 4 44.5886 4C47.814 4 50.9072 5.26428 53.1879 7.51472C55.4686 9.76516 56.7498 12.8174 56.7498 16C56.7498 19.1826 55.4686 22.2348 53.1879 24.4853C50.9072 26.7357 47.814 28 44.5886 28ZM14.1856 48C11.4978 48 8.92013 46.9464 7.01957 45.0711C5.11901 43.1957 4.05129 40.6522 4.05129 38C4.05129 35.3478 5.11901 32.8043 7.01957 30.9289C8.92013 29.0536 11.4978 28 14.1856 28C16.8734 28 19.4511 29.0536 21.3517 30.9289C23.2522 32.8043 24.32 35.3478 24.32 38C24.32 40.6522 23.2522 43.1957 21.3517 45.0711C19.4511 46.9464 16.8734 48 14.1856 48ZM52.6961 54C52.6961 55.5913 52.0555 57.1174 50.9151 58.2426C49.7748 59.3679 48.2282 60 46.6155 60C45.0028 60 43.4562 59.3679 42.3159 58.2426C41.1755 57.1174 40.5349 55.5913 40.5349 54C40.5349 52.4087 41.1755 50.8826 42.3159 49.7574C43.4562 48.6321 45.0028 48 46.6155 48C48.2282 48 49.7748 48.6321 50.9151 49.7574C52.0555 50.8826 52.6961 52.4087 52.6961 54Z" fill="#A6DB4B"/>
<path d="M14.1856 48C11.4978 48 8.92013 46.9464 7.01957 45.0711C5.11901 43.1957 4.05129 40.6522 4.05129 38C4.05129 35.3478 5.11901 32.8043 7.01957 30.9289C8.92013 29.0536 11.4978 28 14.1856 28C16.8734 28 19.4511 29.0536 21.3517 30.9289C23.2522 32.8043 24.32 35.3478 24.32 38C24.32 40.6522 23.2522 43.1957 21.3517 45.0711C19.4511 46.9464 16.8734 48 14.1856 48Z" fill="#E8F4D2"/>
<path d="M52.6961 54C52.6961 55.5913 52.0555 57.1174 50.9151 58.2426C49.7748 59.3679 48.2282 60 46.6155 60C45.0028 60 43.4562 59.3679 42.3159 58.2426C41.1755 57.1174 40.5349 55.5913 40.5349 54C40.5349 52.4087 41.1755 50.8826 42.3159 49.7574C43.4562 48.6321 45.0028 48 46.6155 48C48.2282 48 49.7748 48.6321 50.9151 49.7574C52.0555 50.8826 52.6961 52.4087 52.6961 54Z" fill="#E8F4D2"/>
<path d="M44.5886 28C41.3633 28 38.27 26.7357 35.9894 24.4853C33.7087 22.2348 32.4274 19.1826 32.4274 16C32.4274 12.8174 33.7087 9.76516 35.9894 7.51472C38.27 5.26428 41.3633 4 44.5886 4C47.814 4 50.9072 5.26428 53.1879 7.51472C55.4686 9.76516 56.7498 12.8174 56.7498 16C56.7498 19.1826 55.4686 22.2348 53.1879 24.4853C50.9072 26.7357 47.814 28 44.5886 28Z" fill="#E8F4D2"/>
</svg>
