<svg width="100%" height="100%" viewBox="0 0 64 64" fill="none" xmlns="http://www.w3.org/2000/svg">
<g clip-path="url(#clip0_319_125)">
<path d="M35.9229 1.23401L35.9231 1.23401C39.0751 1.19977 42.368 1.72151 45.464 2.69414L35.9229 1.23401ZM35.9229 1.23401C35.7074 1.2364 35.4953 1.24328 35.2942 1.25016L35.2936 1.25017M35.9229 1.23401L35.2936 1.25017M35.2936 1.25017C33.2882 1.31977 31.338 1.61844 29.5374 2.18197C26.0486 3.27379 23.1026 5.2845 21.2806 8.59124L21.113 8.89536M35.2936 1.25017L21.113 8.89536M21.113 8.89536L21.17 9.23788M21.113 8.89536L21.17 9.23788M21.17 9.23788C22.6428 18.0934 27.1654 24.8595 33.8109 27.4657C40.5185 30.0962 49.2781 28.4878 59.2267 20.5765C59.2272 20.5761 59.2277 20.5758 59.2281 20.5754L59.6114 20.2734L59.8749 20.0657L59.9599 19.7411C60.2238 18.7326 60.318 17.7449 60.2643 16.7799L60.1875 15.399L58.9002 15.9047C58.8694 15.9168 58.8405 15.9288 58.8225 15.9363L59.1985 16.8392M21.17 9.23788L59.1985 16.8392M59.1985 16.8392L58.8225 15.9363L58.787 15.951C58.7831 15.9525 58.7805 15.9536 58.7788 15.9542C58.7772 15.9548 58.7766 15.955 58.7768 15.955L58.776 15.9552M59.1985 16.8392L58.776 15.9552M58.776 15.9552C57.4627 16.42 55.8569 16.3013 54.266 15.5009L54.266 15.5009M58.776 15.9552L54.266 15.5009M54.266 15.5009C51.0166 13.8662 49.1643 10.2531 49.9823 7.18289L49.9824 7.18248M54.266 15.5009L49.9824 7.18248M49.9824 7.18248C50.0954 6.75756 50.2684 6.35092 50.4962 5.97485L51.0574 5.04859M49.9824 7.18248L51.0574 5.04859M51.0574 5.04859L50.0894 4.5629M51.0574 5.04859L50.0894 4.5629M50.0894 4.5629C48.6303 3.83074 47.074 3.19981 45.464 2.69417L50.0894 4.5629ZM21.4739 36.9102L21.4738 36.9102C21.0823 36.65 20.7377 36.3167 20.4964 35.88C20.254 35.4412 20.1486 34.9569 20.1486 34.4446C20.1486 33.3496 20.7436 32.2743 21.5433 31.462C22.361 30.6315 23.5007 29.9597 24.8022 29.7295L21.4739 36.9102ZM21.4739 36.9102C22.2985 37.4581 23.4593 37.6916 24.7444 37.4646L24.7446 37.4645M21.4739 36.9102L24.7446 37.4645M24.7446 37.4645C26.0465 37.2343 27.1862 36.5589 28.0033 35.7279C28.8017 34.9158 29.3986 33.8405 29.3986 32.7492C29.3986 32.2371 29.2929 31.7529 29.0506 31.3142C28.8095 30.8776 28.465 30.5439 28.0731 30.2835L28.0728 30.2833M24.7446 37.4645L28.0728 30.2833M28.0728 30.2833C27.4527 29.8714 26.6424 29.6392 25.7412 29.6438C25.4422 29.6454 25.1285 29.6717 24.8026 29.7295L28.0728 30.2833ZM4.65216 37.2613H5.00395H5.00808H5.09775L5.18598 37.2773L5.20499 37.2807C7.82776 37.6259 9.70112 38.3264 11.0146 39.3626C12.3563 40.4211 13.0183 41.754 13.352 43.1544L13.352 43.1545C14.0072 45.9056 13.1632 49.3147 12.2986 51.8603L12.1064 52.426L11.5173 52.5249C9.22909 52.909 7.34036 52.6325 5.83083 51.9194L5.8308 51.9194C3.63399 50.8816 2.27682 48.9494 1.69378 46.7565C1.11323 44.573 1.32817 42.0993 2.31861 40.096L4.65216 37.2613ZM4.65216 37.2613L4.37785 37.4816M4.65216 37.2613L4.37785 37.4816M4.37785 37.4816C3.48867 38.1955 2.81217 39.0969 2.31879 40.0956L4.37785 37.4816ZM16.1243 55.5623L16.1806 55.2064C17.6994 45.6157 23.3192 41.1605 28.9319 41.0622L16.1243 55.5623ZM16.1243 55.5623L16.3079 55.8724M16.1243 55.5623L16.3079 55.8724M16.3079 55.8724C17.9324 58.6153 21.0198 60.9028 24.6885 61.9752L24.6886 61.9752M16.3079 55.8724L24.6886 61.9752M24.6886 61.9752C29.6438 63.4233 35.5722 62.7452 40.3074 58.0326L40.5696 57.7716M24.6886 61.9752L40.5696 57.7716M40.5696 57.7716L40.5988 57.4028M40.5696 57.7716L40.5988 57.4028M40.5988 57.4028L40.6183 57.157C41.0133 52.1971 39.9074 48.3175 37.8995 45.5924C35.8909 42.8664 33.0247 41.3619 30.0526 41.101L30.0517 41.1009M40.5988 57.4028L30.0517 41.1009M30.0517 41.1009C29.6796 41.0686 29.306 41.0556 28.9321 41.0622L30.0517 41.1009ZM17.5517 1.99199L17.5516 1.99199C14.6443 2.04603 11.8801 3.33782 9.84339 5.39819L9.84336 5.39822C7.26856 8.00318 5.759 11.8188 6.66304 16.0486L7.04897 17.8542L8.35035 16.5444C10.1315 14.7516 12.4423 13.4485 15.1138 12.8715L15.3077 12.8297L15.4709 12.7169L16.0647 12.307L16.0671 12.3053L20.4576 9.2544L20.6622 9.11224L20.7761 8.89072C21.5063 7.47167 22.4396 6.25526 23.5287 5.23198L24.4728 4.34489L23.3755 3.6562C21.4713 2.46104 19.4847 1.95628 17.5517 1.99199ZM54.3293 4.20659L54.3254 4.20663C53.7973 4.21212 53.2971 4.30244 52.8428 4.46291C51.6022 4.90042 50.6923 5.82343 50.307 7.26964C49.9244 8.70573 50.2485 10.3297 50.9713 11.7276C51.7004 13.138 52.892 14.4341 54.4176 15.2016L54.4178 15.2017C55.9338 15.964 57.4422 16.0704 58.6655 15.6377C59.9057 15.1991 60.8116 14.2721 61.1967 12.8275L61.1968 12.8273C61.5793 11.3913 61.2556 9.768 60.5334 8.37072C59.8049 6.96108 58.6141 5.66594 57.0899 4.89912L57.0897 4.89905C56.3377 4.52088 55.584 4.29925 54.8611 4.23078C54.6844 4.21351 54.5069 4.20544 54.3293 4.20659ZM37.9808 7.96832L37.982 7.96832C40.014 7.96586 41.6814 9.13122 42.0462 10.8271C42.4745 12.8193 40.933 14.9165 38.4814 15.4438C36.0301 15.971 33.762 14.6921 33.3336 12.6995L33.3336 12.6994C32.9052 10.7075 34.4467 8.61 36.8982 8.08285L36.8984 8.08279C37.1929 8.01939 37.4909 7.98326 37.7884 7.9716C37.8505 7.9693 37.914 7.96832 37.9808 7.96832ZM16.6457 13.6139L16.3011 12.9765L15.588 13.1054C11.4246 13.8581 8.19273 16.3761 6.36134 19.7883L6.36132 19.7883C4.42089 23.404 4.07566 28.0024 6.02905 32.605L6.23456 33.0892L6.75001 33.1942C9.37753 33.7293 11.6677 33.4428 13.5549 32.4661C15.4377 31.4918 16.8299 29.8772 17.7498 27.9114C19.5445 24.0762 19.4008 18.7108 16.6457 13.6139ZM44.9467 56.3092L44.9902 57.2945L45.976 57.2646C48.0475 57.2019 50.0546 56.6127 51.9332 55.6175L51.9332 55.6175C55.0858 53.9473 57.8643 51.1006 59.8012 47.6579C63.2057 41.607 64.1037 33.6712 60.0223 26.7271L59.5233 25.8781L58.6667 26.3641C53.6138 29.2309 50.1042 32.5505 47.8664 37.0545C45.4734 41.8707 44.5807 48.0296 44.9467 56.3092Z" fill="#E8F4D2" stroke="#A6DB4B" stroke-width="2"/>
</g>
<defs>
<clipPath id="clip0_319_125">
<rect width="64" height="64" fill="white"/>
</clipPath>
</defs>
</svg>
