<svg width="100%" height="100%" viewBox="0 0 64 64" fill="none" xmlns="http://www.w3.org/2000/svg">
<path d="M46.7698 26.4611C46.7698 29.7473 45.7954 32.9597 43.9696 35.6921C42.1439 38.4245 39.5489 40.5541 36.5129 41.8117C33.4768 43.0693 30.136 43.3983 26.913 42.7572C23.6899 42.1161 20.7293 40.5336 18.4056 38.2099C16.0819 35.8862 14.4994 32.9257 13.8583 29.7026C13.2172 26.4795 13.5463 23.1387 14.8038 20.1027C16.0614 17.0666 18.1911 14.4716 20.9234 12.6459C23.6558 10.8202 26.8682 9.8457 30.1545 9.8457C34.5611 9.8457 38.7873 11.5962 41.9033 14.7122C45.0193 17.8282 46.7698 22.0544 46.7698 26.4611Z" fill="#E8F4D2"/>
<path d="M54.341 0H42.963C42.3595 0 41.7807 0.249735 41.3539 0.694265C40.9272 1.1388 40.6874 1.74171 40.6874 2.37037C40.6874 2.99903 40.9272 3.60194 41.3539 4.04647C41.7807 4.49101 42.3595 4.74074 42.963 4.74074H48.8483L41.6944 12.1926C39.5938 10.1535 37.0599 8.66081 34.2997 7.83657C31.5395 7.01233 28.6313 6.87988 25.8126 7.45004C22.9939 8.02019 20.3446 9.27677 18.0812 11.1172C15.8178 12.9575 14.0043 15.3295 12.7891 18.0394C11.5738 20.7492 10.9911 23.7201 11.0886 26.7093C11.1862 29.6985 11.9611 32.6213 13.3502 35.239C14.7393 37.8567 16.7031 40.095 19.0812 41.771C21.4594 43.4471 24.1845 44.5135 27.0338 44.883V49.7778H20.207C19.6035 49.7778 19.0247 50.0275 18.5979 50.472C18.1712 50.9166 17.9314 51.5195 17.9314 52.1481C17.9314 52.7768 18.1712 53.3797 18.5979 53.8243C19.0247 54.2688 19.6035 54.5185 20.207 54.5185H27.0338V61.6296C27.0338 62.2583 27.2736 62.8612 27.7003 63.3057C28.1271 63.7503 28.7059 64 29.3094 64C29.913 64 30.4918 63.7503 30.9185 63.3057C31.3453 62.8612 31.585 62.2583 31.585 61.6296V54.5185H38.4118C39.0153 54.5185 39.5941 54.2688 40.0209 53.8243C40.4477 53.3797 40.6874 52.7768 40.6874 52.1481C40.6874 51.5195 40.4477 50.9166 40.0209 50.472C39.5941 50.0275 39.0153 49.7778 38.4118 49.7778H31.585V44.883C34.6352 44.4861 37.5391 43.2901 40.0251 41.4069C42.5112 39.5236 44.4982 37.0146 45.8006 34.1142C47.1031 31.2139 47.6783 28.0169 47.4725 24.8222C47.2668 21.6274 46.2868 18.5391 44.6242 15.8459L52.0654 8.09185V14.2222C52.0654 14.8509 52.3051 15.4538 52.7319 15.8983C53.1587 16.3429 53.7375 16.5926 54.341 16.5926C54.9445 16.5926 55.5233 16.3429 55.9501 15.8983C56.3768 15.4538 56.6166 14.8509 56.6166 14.2222V2.37037C56.6166 1.74171 56.3768 1.1388 55.9501 0.694265C55.5233 0.249735 54.9445 0 54.341 0ZM29.3094 40.2963C26.609 40.2963 23.9692 39.4622 21.7239 37.8994C19.4786 36.3367 17.7286 34.1155 16.6952 31.5167C15.6618 28.9179 15.3914 26.0583 15.9182 23.2995C16.445 20.5406 17.7454 18.0065 19.6549 16.0174C21.5644 14.0284 23.9972 12.6739 26.6457 12.1251C29.2943 11.5764 32.0396 11.858 34.5344 12.9345C37.0293 14.0109 39.1617 15.8338 40.662 18.1726C42.1622 20.5115 42.963 23.2612 42.963 26.0741C42.9592 29.8448 41.5195 33.46 38.9598 36.1264C36.4001 38.7927 32.9294 40.2924 29.3094 40.2963Z" fill="#A6DB4B"/>
</svg>
