<svg width="100%" height="100%" viewBox="0 0 64 64" fill="none" xmlns="http://www.w3.org/2000/svg">
<g clip-path="url(#clip0_319_111)">
<path d="M8.85714 0.882353C8.85714 0.383122 8.65395 -0.0956615 8.29228 -0.448671C7.9306 -0.801681 7.44006 -1 6.92857 -1C6.41708 -1 5.92654 -0.801681 5.56487 -0.448671C5.20319 -0.0956615 5 0.383122 5 0.882353V10.2941C5.00003 11.6158 5.3565 12.9141 6.03357 14.0587C6.71064 15.2033 7.68445 16.1538 8.85714 16.8146V19.7059C8.85714 21.2036 9.46671 22.6399 10.5517 23.699C11.6368 24.758 13.1084 25.3529 14.6429 25.3529H30.0714V38.5294C30.0714 39.0286 30.2746 39.5074 30.6363 39.8604C30.998 40.2135 31.4885 40.4118 32 40.4118C32.5115 40.4118 33.002 40.2135 33.3637 39.8604C33.7254 39.5074 33.9286 39.0286 33.9286 38.5294V25.3529H49.3571C50.8916 25.3529 52.3632 24.758 53.4483 23.699C54.5333 22.6399 55.1429 21.2036 55.1429 19.7059V16.8146C56.3156 16.1538 57.2894 15.2033 57.9664 14.0587C58.6435 12.9141 59 11.6158 59 10.2941V0.882353C59 0.383122 58.7968 -0.0956615 58.4351 -0.448671C58.0735 -0.801681 57.5829 -1 57.0714 -1C56.5599 -1 56.0694 -0.801681 55.7077 -0.448671C55.346 -0.0956615 55.1429 0.383122 55.1429 0.882353V10.2941C55.1429 11.2926 54.7365 12.2501 54.0131 12.9562C53.2898 13.6622 52.3087 14.0588 51.2857 14.0588H12.7143C11.6913 14.0588 10.7102 13.6622 9.98688 12.9562C9.26352 12.2501 8.85714 11.2926 8.85714 10.2941V0.882353ZM12.7143 17.8235H51.2857V19.7059C51.2857 20.2051 51.0825 20.6839 50.7209 21.0369C50.3592 21.3899 49.8686 21.5882 49.3571 21.5882H14.6429C14.1314 21.5882 13.6408 21.3899 13.2792 21.0369C12.9175 20.6839 12.7143 20.2051 12.7143 19.7059V17.8235ZM14.6429 44.1765C14.1314 44.1765 13.6408 44.3748 13.2792 44.7278C12.9175 45.0808 12.7143 45.5596 12.7143 46.0588C12.7143 46.5581 12.9175 47.0368 13.2792 47.3899C13.6408 47.7429 14.1314 47.9412 14.6429 47.9412H20.4286C20.9401 47.9412 21.4306 47.7429 21.7923 47.3899C22.154 47.0368 22.3571 46.5581 22.3571 46.0588C22.3571 45.5596 22.154 45.0808 21.7923 44.7278C21.4306 44.3748 20.9401 44.1765 20.4286 44.1765H14.6429ZM41.6429 46.0588C41.6429 45.5596 41.846 45.0808 42.2077 44.7278C42.5694 44.3748 43.0599 44.1765 43.5714 44.1765H49.3571C49.8686 44.1765 50.3592 44.3748 50.7209 44.7278C51.0825 45.0808 51.2857 45.5596 51.2857 46.0588C51.2857 46.5581 51.0825 47.0368 50.7209 47.3899C50.3592 47.7429 49.8686 47.9412 49.3571 47.9412H43.5714C43.0599 47.9412 42.5694 47.7429 42.2077 47.3899C41.846 47.0368 41.6429 46.5581 41.6429 46.0588ZM32 47.9412C32.5115 47.9412 33.002 47.7429 33.3637 47.3899C33.7254 47.0368 33.9286 46.5581 33.9286 46.0588C33.9286 45.5596 33.7254 45.0808 33.3637 44.7278C33.002 44.3748 32.5115 44.1765 32 44.1765C31.4885 44.1765 30.998 44.3748 30.6363 44.7278C30.2746 45.0808 30.0714 45.5596 30.0714 46.0588C30.0714 46.5581 30.2746 47.0368 30.6363 47.3899C30.998 47.7429 31.4885 47.9412 32 47.9412ZM32 51.7059C32.5115 51.7059 33.002 51.9042 33.3637 52.2572C33.7254 52.6102 33.9286 53.089 33.9286 53.5882V61.1176C33.9286 61.6169 33.7254 62.0957 33.3637 62.4487C33.002 62.8017 32.5115 63 32 63C31.4885 63 30.998 62.8017 30.6363 62.4487C30.2746 62.0957 30.0714 61.6169 30.0714 61.1176V53.5882C30.0714 53.089 30.2746 52.6102 30.6363 52.2572C30.998 51.9042 31.4885 51.7059 32 51.7059ZM27.5797 51.1562C27.9418 50.8028 28.1453 50.3234 28.1453 49.8235C28.1453 49.3237 27.9418 48.8443 27.5797 48.4908C27.2176 48.1374 26.7264 47.9388 26.2143 47.9388C25.7022 47.9388 25.211 48.1374 24.8489 48.4908L19.0631 54.1379C18.701 54.4913 18.4976 54.9707 18.4976 55.4706C18.4976 55.9705 18.701 56.4498 19.0631 56.8033C19.4253 57.1568 19.9164 57.3553 20.4286 57.3553C20.9407 57.3553 21.4319 57.1568 21.794 56.8033L27.5797 51.1562ZM36.4203 48.4908C36.2407 48.6657 36.0982 48.8734 36.001 49.1021C35.9037 49.3308 35.8537 49.5759 35.8537 49.8235C35.8537 50.0711 35.9037 50.3163 36.001 50.545C36.0982 50.7737 36.2407 50.9814 36.4203 51.1562L42.206 56.8033C42.5681 57.1568 43.0593 57.3553 43.5714 57.3553C44.0836 57.3553 44.5747 57.1568 44.9369 56.8033C45.299 56.4498 45.5024 55.9705 45.5024 55.4706C45.5024 54.9707 45.299 54.4913 44.9369 54.1379L39.1511 48.4908C38.972 48.3155 38.7592 48.1765 38.5249 48.0816C38.2906 47.9867 38.0394 47.9378 37.7857 47.9378C37.532 47.9378 37.2809 47.9867 37.0466 48.0816C36.8123 48.1765 36.5994 48.3155 36.4203 48.4908Z" fill="#A6DB4B"/>
<path d="M12.7143 17.8235H51.2857V19.7059C51.2857 20.2051 51.0825 20.6839 50.7209 21.0369C50.3592 21.3899 49.8686 21.5882 49.3571 21.5882H14.6429C14.1314 21.5882 13.6408 21.3899 13.2792 21.0369C12.9175 20.6839 12.7143 20.2051 12.7143 19.7059V17.8235Z" fill="#F9FEF0"/>
</g>
<defs>
<clipPath id="clip0_319_111">
<rect width="64" height="64" fill="white"/>
</clipPath>
</defs>
</svg>
