<svg width="100%" height="100%" viewBox="0 0 64 64" fill="none" xmlns="http://www.w3.org/2000/svg">
<path d="M21.7468 0.365421C21.4524 0.647221 21.3787 0.869694 21.3787 1.43329C21.3787 3.85082 22.5712 7.49936 24.4998 11.0441C27.1202 15.8347 30.6387 20.5362 38.9124 30.2509C41.6653 33.4841 44.0503 36.4652 44.0503 36.6581C44.0503 36.7174 43.2994 36.7767 42.4014 36.7767H40.7379L39.8546 35.7237C37.3813 32.7722 32.1845 28.4118 29.0341 26.6616C28.401 26.3057 28.1213 26.0239 27.7238 25.3416C26.1044 22.5533 23.1454 20.7142 19.9507 20.5066C18.4491 20.4028 17.6541 20.6697 16.9033 21.5003C16.0642 22.4495 15.8875 23.6212 16.2997 25.6828C16.4175 26.276 16.55 26.9138 16.6089 27.0917C16.6678 27.3291 16.6236 27.4329 16.3586 27.507C16.182 27.5664 15.7403 27.8778 15.4017 28.2041C14.7098 28.8567 14.3123 29.8207 14.3123 30.8589C14.3123 31.6005 14.592 32.8909 14.857 33.4248C15.0778 33.8401 15.0631 33.8697 14.6656 34.1664C12.0452 36.0055 11.2355 39.4019 12.7812 42.0567C13.1346 42.6648 14.4301 43.9996 14.9453 44.2814C15.1956 44.4297 15.1956 44.4891 14.9748 45.3196C14.4006 47.5147 15.5784 50.0509 17.7719 51.3116C18.2577 51.5933 18.6111 51.9196 18.7288 52.2014C18.9644 52.7947 20.0685 53.7884 20.834 54.1147C22.159 54.6931 24.117 54.8711 25.8247 54.5893C26.5166 54.4707 26.5314 54.4855 26.6786 54.9453C26.8405 55.4495 27.3999 56.0576 28.0035 56.3543C28.5924 56.6657 30.5946 56.7992 32.1109 56.6361C36.9691 56.0873 41.1648 52.9578 43.0345 48.5084C43.4467 47.5295 43.4467 47.5295 44.0797 47.485C44.6833 47.4554 44.7275 47.4702 45.331 48.2563L45.9494 49.072L45.6549 50.0064C44.3005 54.1444 41.2826 57.7336 37.4843 59.721C32.5231 62.3313 26.605 62.3017 21.6879 59.6765C20.2893 58.9349 19.8919 58.8756 19.3913 59.3947C18.9055 59.8693 18.9055 60.5516 19.3766 61.0262C20.201 61.8567 23.6017 63.2212 26.0603 63.7255C28.033 64.1259 31.5956 64.0815 33.5978 63.6365C37.3371 62.8059 40.5759 61.0262 43.2406 58.3565C45.4194 56.1614 47.0682 53.4176 47.9662 50.5403C49.2912 46.2688 49.247 46.3578 49.8212 46.254C50.6014 46.1354 51.2934 45.6459 51.6614 44.9933C51.9558 44.4891 52 44.2073 52 42.7093C52 41.2113 51.9558 40.9295 51.6614 40.4104C51.2492 39.6837 50.3659 39.1497 49.5709 39.1497C49.0262 39.1497 48.879 39.0608 48.084 38.2154C47.5982 37.7111 46.8768 36.7619 46.4941 36.0945C45.6549 34.6706 44.0944 32.698 39.8251 27.685C34.0983 20.9367 31.3454 17.4068 28.8132 13.5654C25.6039 8.70071 24.0287 5.02251 23.7784 1.84857C23.7048 0.899357 23.6165 0.60273 23.3515 0.335766C22.8951 -0.124008 22.2032 -0.109184 21.7468 0.365421ZM21.1579 23.0576C22.4387 23.3987 23.3956 23.9771 24.485 25.0598C25.8836 26.454 26.0603 26.8396 25.8836 28.3376C25.7511 29.45 25.8689 31.0666 26.178 32.1344C26.2664 32.4459 26.2369 32.4607 25.7069 32.3718C23.1159 31.9713 20.5543 30.058 19.3913 27.6702C18.5522 25.9646 18.1694 23.5619 18.6699 23.0724C18.9644 22.761 20.0243 22.761 21.1579 23.0576ZM29.991 30.1174C30.8007 30.6661 32.0226 31.5709 32.7145 32.1344C34.1131 33.2616 38.2057 37.2216 38.0879 37.3403C37.8818 37.5479 36.2183 37.6369 35.2172 37.5034C32.5526 37.1327 30.2265 35.4567 29.0488 33.0985C28.3716 31.7488 27.8563 28.7232 28.3421 29.005C28.4305 29.0643 29.1813 29.5686 29.991 30.1174ZM18.4344 30.5771C20.1568 32.9205 23.2042 34.5816 26.178 34.8041C27.1497 34.8783 27.3999 34.9376 27.5472 35.1749C27.6502 35.338 27.7091 35.4864 27.6797 35.5012C25.8542 36.4504 25.7658 36.4801 24.1759 36.4801C21.6585 36.4801 19.9655 35.8868 18.4344 34.4482C17.3892 33.4841 16.815 32.4014 16.712 31.1704C16.6383 30.3992 16.6678 30.2509 16.9475 29.9691C17.4333 29.4796 17.713 29.5983 18.4344 30.5771ZM17.1978 36.5542C18.7877 37.8742 21.3346 38.8531 23.1159 38.8531H23.9109L23.8078 39.4019C23.749 39.7133 23.6753 40.01 23.6459 40.0545C23.6165 40.099 23.0129 40.1879 22.3062 40.2324C20.3482 40.3659 18.243 41.1075 17.1094 42.0567L16.6383 42.4572L16.1231 42.1754C15.4606 41.8194 14.6509 40.7664 14.4448 39.9803C14.1209 38.7493 14.5773 37.3996 15.6225 36.4356C15.9611 36.1389 16.2556 35.8868 16.2997 35.8868C16.3439 35.8868 16.7414 36.1834 17.1978 36.5542ZM32.6851 39.2981C33.8775 39.7282 36.0122 40.0841 36.9691 40.01C37.4402 39.9655 37.4991 40.01 37.7052 40.5439C37.9113 41.0778 37.8966 41.1223 37.6463 41.33C36.8219 41.9232 33.2003 42.7093 31.2423 42.7093C28.3127 42.7093 26.0897 41.6266 26.0897 40.2028C26.0897 39.3425 27.238 38.2302 28.7102 37.6666L29.3727 37.4145L30.4326 38.1412C31.0215 38.5268 32.0373 39.0607 32.6851 39.2981ZM46.7885 40.3363L47.9957 41.5228H48.8201H49.6445V42.7093V43.8958H48.8643C47.8337 43.8958 47.5246 44.1479 47.1418 45.3196C46.8474 46.1947 46.8032 46.2688 46.6266 46.0167C46.126 45.29 45.7874 43.8365 45.8169 42.4868C45.861 40.7812 45.8758 40.8405 45.5224 40.4846C45.0955 40.0545 44.33 40.099 43.903 40.5587C43.5792 40.8999 43.535 41.1075 43.4908 42.383C43.4614 43.1691 43.5055 44.1183 43.5792 44.4742L43.7411 45.1268L42.4014 45.023C41.6653 44.9785 40.5465 44.934 39.9134 44.934H38.7799L38.456 44.3111C38.2352 43.881 38.191 43.6585 38.3088 43.6288C38.7357 43.4805 39.7368 42.5758 40.0018 42.0864C40.2668 41.5821 40.2668 41.4634 40.1048 40.4697C39.9576 39.5947 39.9576 39.3722 40.1048 39.2684C40.2079 39.2091 41.4887 39.1497 42.9314 39.1497H45.5813L46.7885 40.3363ZM25.0297 43.1394L25.6333 43.7178L24.2642 44.4149C21.9823 45.5718 19.8035 47.396 18.9349 48.8792C18.7877 49.1313 18.7583 49.1462 18.3902 48.894C17.7425 48.4787 17.2125 47.396 17.2125 46.521C17.2125 44.2221 19.6563 42.6055 23.1601 42.5758L24.4262 42.561L25.0297 43.1394ZM35.8944 44.9488C36.1741 45.112 36.3949 45.2751 36.3949 45.3048C36.3949 45.3196 35.8797 45.5273 35.2614 45.7497C32.7734 46.6396 30.8743 47.8558 29.0929 49.7246C28.4452 50.392 27.7533 51.1632 27.5619 51.4302C27.238 51.8455 27.0466 51.9345 26.0455 52.1273C23.9845 52.5129 22.3798 52.3646 21.3493 51.6675C20.8929 51.3709 20.7899 51.2226 20.7899 50.8073C20.7899 49.2945 24.1464 46.7286 27.7091 45.5273C28.8868 45.1268 29.2549 45.0675 31.3454 45.0082C32.6262 44.9637 33.9364 44.8747 34.2603 44.8005C35.173 44.5929 35.3644 44.6077 35.8944 44.9488ZM40.9587 47.396C40.9587 47.6927 39.8104 49.5911 39.1773 50.3475C37.2635 52.5871 34.8933 53.8774 31.949 54.2778C30.5504 54.4707 29.0488 54.352 28.931 54.0405C28.7985 53.6994 29.8585 52.2311 31.0951 51.0149C32.8028 49.3241 35.2025 48.0486 37.5727 47.5295C38.5296 47.3367 40.9587 47.2329 40.9587 47.396Z" fill="#A6DB4B"/>
<path d="M21.1579 23.0576C22.4387 23.3987 23.3956 23.9771 24.485 25.0598C25.8836 26.454 26.0603 26.8396 25.8836 28.3376C25.7511 29.45 25.8689 31.0666 26.178 32.1344C26.2664 32.4459 26.2369 32.4607 25.7069 32.3718C23.1159 31.9713 20.5543 30.058 19.3913 27.6702C18.5522 25.9646 18.1694 23.5619 18.6699 23.0724C18.9644 22.761 20.0243 22.761 21.1579 23.0576Z" fill="#E8F4D2"/>
<path d="M29.991 30.1174C30.8007 30.6661 32.0226 31.5709 32.7145 32.1344C34.1131 33.2616 38.2057 37.2216 38.0879 37.3403C37.8818 37.5479 36.2183 37.6369 35.2172 37.5034C32.5526 37.1327 30.2265 35.4567 29.0488 33.0985C28.3716 31.7488 27.8563 28.7232 28.3421 29.005C28.4305 29.0643 29.1813 29.5686 29.991 30.1174Z" fill="#E8F4D2"/>
<path d="M32.6851 39.2981C33.8775 39.7282 36.0122 40.0841 36.9691 40.01C37.4402 39.9655 37.4991 40.01 37.7052 40.5439C37.9113 41.0778 37.8966 41.1223 37.6463 41.33C36.8219 41.9232 33.2003 42.7093 31.2423 42.7093C28.3127 42.7093 26.0897 41.6266 26.0897 40.2028C26.0897 39.3425 27.238 38.2302 28.7102 37.6666L29.3727 37.4145L30.4326 38.1412C31.0215 38.5268 32.0373 39.0607 32.6851 39.2981Z" fill="#E8F4D2"/>
<path d="M46.7885 40.3363L47.9957 41.5228H48.8201H49.6445V42.7093V43.8958H48.8643C47.8337 43.8958 47.5246 44.1479 47.1418 45.3196C46.8474 46.1947 46.8032 46.2688 46.6266 46.0167C46.126 45.29 45.7874 43.8365 45.8169 42.4868C45.861 40.7812 45.8758 40.8405 45.5224 40.4846C45.0955 40.0545 44.33 40.099 43.903 40.5587C43.5792 40.8999 43.535 41.1075 43.4908 42.383C43.4614 43.1691 43.5055 44.1183 43.5792 44.4742L43.7411 45.1268L42.4014 45.023C41.6653 44.9785 40.5465 44.934 39.9134 44.934H38.7799L38.456 44.3111C38.2352 43.881 38.191 43.6585 38.3088 43.6288C38.7357 43.4805 39.7368 42.5758 40.0018 42.0864C40.2668 41.5821 40.2668 41.4634 40.1048 40.4697C39.9576 39.5947 39.9576 39.3722 40.1048 39.2684C40.2079 39.2091 41.4887 39.1497 42.9314 39.1497H45.5813L46.7885 40.3363Z" fill="#E8F4D2"/>
<path d="M40.9587 47.396C40.9587 47.6927 39.8104 49.5911 39.1773 50.3475C37.2635 52.5871 34.8933 53.8774 31.949 54.2778C30.5504 54.4707 29.0488 54.352 28.931 54.0405C28.7985 53.6994 29.8585 52.2311 31.0951 51.0149C32.8028 49.3241 35.2025 48.0486 37.5727 47.5295C38.5296 47.3367 40.9587 47.2329 40.9587 47.396Z" fill="#E8F4D2"/>
<path d="M35.8944 44.9488C36.1741 45.112 36.3949 45.2751 36.3949 45.3048C36.3949 45.3196 35.8797 45.5273 35.2614 45.7497C32.7734 46.6396 30.8743 47.8558 29.0929 49.7246C28.4452 50.392 27.7533 51.1632 27.5619 51.4302C27.238 51.8455 27.0466 51.9345 26.0455 52.1273C23.9845 52.5129 22.3798 52.3646 21.3493 51.6675C20.8929 51.3709 20.7899 51.2226 20.7899 50.8073C20.7899 49.2945 24.1464 46.7286 27.7091 45.5273C28.8868 45.1268 29.2549 45.0675 31.3454 45.0082C32.6262 44.9637 33.9364 44.8747 34.2603 44.8005C35.173 44.5929 35.3644 44.6077 35.8944 44.9488Z" fill="#E8F4D2"/>
<path d="M25.0297 43.1394L25.6333 43.7178L24.2642 44.4149C21.9823 45.5718 19.8035 47.396 18.9349 48.8792C18.7877 49.1313 18.7583 49.1462 18.3902 48.894C17.7425 48.4787 17.2125 47.396 17.2125 46.521C17.2125 44.2221 19.6563 42.6055 23.1601 42.5758L24.4262 42.561L25.0297 43.1394Z" fill="#E8F4D2"/>
<path d="M17.1978 36.5542C18.7877 37.8742 21.3346 38.8531 23.1159 38.8531H23.9109L23.8078 39.4019C23.749 39.7133 23.6753 40.01 23.6459 40.0545C23.6165 40.099 23.0129 40.1879 22.3062 40.2324C20.3482 40.3659 18.243 41.1075 17.1094 42.0567L16.6383 42.4572L16.1231 42.1754C15.4606 41.8194 14.6509 40.7664 14.4448 39.9803C14.1209 38.7493 14.5773 37.3996 15.6225 36.4356C15.9611 36.1389 16.2556 35.8868 16.2997 35.8868C16.3439 35.8868 16.7414 36.1834 17.1978 36.5542Z" fill="#E8F4D2"/>
<path d="M18.4344 30.5771C20.1568 32.9205 23.2042 34.5816 26.178 34.8041C27.1497 34.8783 27.3999 34.9376 27.5472 35.1749C27.6502 35.338 27.7091 35.4864 27.6797 35.5012C25.8542 36.4504 25.7658 36.4801 24.1759 36.4801C21.6585 36.4801 19.9655 35.8868 18.4344 34.4482C17.3892 33.4841 16.815 32.4014 16.712 31.1704C16.6383 30.3992 16.6678 30.2509 16.9475 29.9691C17.4333 29.4796 17.713 29.5983 18.4344 30.5771Z" fill="#E8F4D2"/>
</svg>
