<svg width="24" height="24" viewBox="0 0 24 24" fill="none" xmlns="http://www.w3.org/2000/svg">
<path d="M12 9C11.2044 9 10.4413 9.31607 9.87868 9.87868C9.31607 10.4413 9 11.2044 9 12C9 12.7956 9.31607 13.5587 9.87868 14.1213C10.4413 14.6839 11.2044 15 12 15C12.7956 15 13.5587 14.6839 14.1213 14.1213C14.6839 13.5587 15 12.7956 15 12C15 11.2044 14.6839 10.4413 14.1213 9.87868C13.5587 9.31607 12.7956 9 12 9Z" fill="#1D1D1D"/>
<path fill-rule="evenodd" clip-rule="evenodd" d="M6.87937 3.28246C10.2827 2.90585 13.7173 2.90585 17.1207 3.28246C18.98 3.48968 20.479 4.95099 20.6973 6.81403C21.1009 10.2593 21.1009 13.7397 20.6973 17.1849C20.479 19.048 18.98 20.5093 17.1217 20.7175C13.718 21.0942 10.283 21.0942 6.87937 20.7175C5.02007 20.5093 3.52108 19.048 3.30274 17.1859C2.89909 13.7403 2.89909 10.2596 3.30274 6.81403C3.52108 4.95099 5.02007 3.48968 6.87937 3.28246ZM16.8955 6.1347C16.6358 6.1347 16.3868 6.23768 16.2032 6.42099C16.0195 6.6043 15.9164 6.85292 15.9164 7.11216C15.9164 7.3714 16.0195 7.62002 16.2032 7.80333C16.3868 7.98664 16.6358 8.08962 16.8955 8.08962C17.1552 8.08962 17.4042 7.98664 17.5878 7.80333C17.7714 7.62002 17.8746 7.3714 17.8746 7.11216C17.8746 6.85292 17.7714 6.6043 17.5878 6.42099C17.4042 6.23768 17.1552 6.1347 16.8955 6.1347ZM7.34933 11.9995C7.34933 10.7681 7.83931 9.58713 8.71149 8.71641C9.58366 7.84569 10.7666 7.35653 12 7.35653C13.2335 7.35653 14.4164 7.84569 15.2886 8.71641C16.1607 9.58713 16.6507 10.7681 16.6507 11.9995C16.6507 13.2309 16.1607 14.4118 15.2886 15.2825C14.4164 16.1533 13.2335 16.6424 12 16.6424C10.7666 16.6424 9.58366 16.1533 8.71149 15.2825C7.83931 14.4118 7.34933 13.2309 7.34933 11.9995Z" fill="#1D1D1D"/>
</svg>
