<svg width="20" height="20" viewBox="0 0 20 20" fill="none" xmlns="http://www.w3.org/2000/svg">
<path d="M16.4651 10.7413C16.1546 10.1713 15.2786 9.69121 14.1142 10.5013C12.5284 11.6415 10 11.6415 10 11.6415C10 11.6415 7.47167 11.6415 5.88589 10.5013C4.72151 9.69121 3.84545 10.1713 3.53494 10.7413C2.98048 11.7415 3.60148 12.2315 5.00983 13.0416C6.21857 13.7417 7.87088 14.0018 8.93546 14.1018L8.04831 14.9019C6.78413 16.032 5.5643 17.1221 4.7326 17.8822C4.23357 18.3423 4.23357 19.0724 4.7326 19.5024L4.88785 19.6625C5.38687 20.1125 6.20748 20.1125 6.7065 19.6625L10 16.6821C11.2753 17.8122 12.4841 18.9024 13.3268 19.6625C13.8259 20.1125 14.6354 20.1125 15.1455 19.6625L15.2897 19.5024C15.7998 19.0724 15.7998 18.3423 15.2897 17.8822L11.985 14.9019L11.109 14.0918C12.1625 14.0018 13.7926 13.7317 14.9903 13.0416C16.3986 12.2315 17.0196 11.7415 16.4651 10.7413ZM10 2.57032C11.5304 2.57032 12.7724 3.69046 12.7724 5.06063C12.7724 6.44081 11.5304 7.55094 10 7.55094C8.46971 7.55094 7.2277 6.44081 7.2277 5.06063C7.2277 3.69046 8.46971 2.57032 10 2.57032ZM10 10.1213C13.1051 10.1213 15.6113 7.86098 15.6113 5.06063C15.6113 3.71847 15.0201 2.43128 13.9678 1.48223C12.9155 0.533172 11.4882 0 10 0C8.51185 0 7.08462 0.533172 6.03231 1.48223C4.98001 2.43128 4.38883 3.71847 4.38883 5.06063C4.38883 7.86098 6.89502 10.1213 10 10.1213Z" fill="#1D1D1D"/>
</svg>
