<svg width="24" height="24" viewBox="0 0 24 24" fill="none" xmlns="http://www.w3.org/2000/svg">
<path fill-rule="evenodd" clip-rule="evenodd" d="M15.9026 6H2V20H5.86948V15.4453H13.2841L16.6672 20H21L17.2696 15.4244C18.4282 15.2565 19.2623 14.8576 19.7721 14.228C20.2817 13.5983 20.5367 12.5908 20.5367 11.2475V10.198C20.5367 9.40034 20.4441 8.77069 20.2818 8.28794C20.1196 7.80519 19.8415 7.38535 19.4476 7.00756C19.0305 6.65074 18.5672 6.39888 18.0111 6.23101C17.4549 6.08411 16.7598 6 15.9026 6ZM5.86948 12.36H15.277V12.3597C15.8099 12.3597 16.1805 12.2967 16.3659 12.1498C16.5513 12.0029 16.6672 11.7301 16.6672 11.3104V10.135C16.6672 9.73607 16.5513 9.46325 16.3659 9.31635C16.1805 9.16933 15.8098 9.08546 15.277 9.08546H5.86948V12.36Z" fill="#1D1D1D"/>
<path d="M20.5003 6C21.3283 6 22 5.32845 22 4.5C22 3.67155 21.3283 3 20.5003 3C19.6717 3 19 3.67155 19 4.5C19 5.32845 19.6717 6 20.5003 6Z" fill="#1D1D1D"/>
</svg>
