<svg width="24" height="24" viewBox="0 0 24 24" fill="none" xmlns="http://www.w3.org/2000/svg">
<path fill-rule="evenodd" clip-rule="evenodd" d="M12.4536 2.01667C13.5845 2 14.7068 2.00832 15.829 2C15.8981 3.275 16.3729 4.57497 17.3397 5.47495C18.3066 6.39995 19.6706 6.82495 21 6.9666V10.3249C19.7569 10.2832 18.5051 10.0332 17.3743 9.51657C16.8822 9.2999 16.4247 9.0249 15.9757 8.74157C15.9671 11.1749 15.9844 13.6082 15.9585 16.0331C15.8894 17.1998 15.4923 18.3581 14.7931 19.3164C13.6622 20.9164 11.7026 21.9581 9.69113 21.9914C8.45667 22.0581 7.22218 21.7331 6.16898 21.1331C4.42518 20.1414 3.19932 18.3248 3.01805 16.3748C3.00078 15.9581 2.99215 15.5415 3.0094 15.1332C3.1648 13.5498 3.97627 12.0332 5.23666 10.9999C6.66967 9.7999 8.67246 9.2249 10.5458 9.56657C10.563 10.7999 10.5113 12.0332 10.5113 13.2665C9.65658 12.9998 8.65521 13.0748 7.90416 13.5748C7.3603 13.9165 6.94594 14.4415 6.73012 15.0332C6.54882 15.4582 6.60062 15.9248 6.60925 16.3748C6.81644 17.7415 8.1804 18.8914 9.63071 18.7664C10.5976 18.7581 11.5213 18.2164 12.022 17.4248C12.186 17.1498 12.3673 16.8665 12.3759 16.5415C12.4622 15.0498 12.4277 13.5665 12.4364 12.0749C12.445 8.71657 12.4277 5.36662 12.4536 2.01667Z" fill="#1D1D1D"/>
</svg>
