<svg width="20" height="20" viewBox="0 0 20 20" fill="none" xmlns="http://www.w3.org/2000/svg">
<g clip-path="url(#clip0_83_249)">
<path fill-rule="evenodd" clip-rule="evenodd" d="M17.802 12.298C17.802 12.298 19.419 13.895 19.819 14.634C19.8267 14.6447 19.8328 14.6565 19.837 14.669C20 14.942 20.04 15.156 19.96 15.314C19.825 15.575 19.368 15.706 19.213 15.717H16.355C16.156 15.717 15.742 15.665 15.238 15.317C14.853 15.048 14.47 14.605 14.099 14.172C13.545 13.529 13.066 12.971 12.581 12.971C12.5197 12.9709 12.4589 12.981 12.401 13.001C12.034 13.117 11.568 13.64 11.568 15.033C11.568 15.469 11.224 15.717 10.983 15.717H9.67397C9.22797 15.717 6.90597 15.561 4.84697 13.39C2.32397 10.732 0.057968 5.4 0.035968 5.353C-0.105032 5.008 0.190968 4.82 0.510968 4.82H3.39697C3.78397 4.82 3.90997 5.054 3.99797 5.264C4.09997 5.505 4.47797 6.469 5.09797 7.552C6.10197 9.314 6.71897 10.031 7.21197 10.031C7.30459 10.0313 7.39565 10.0071 7.47597 9.961C8.11997 9.607 7.99997 7.307 7.96997 6.833C7.96997 6.741 7.96897 5.806 7.63897 5.354C7.40297 5.03 7.00097 4.904 6.75797 4.858C6.82297 4.764 6.96097 4.62 7.13797 4.535C7.57897 4.315 8.37597 4.283 9.16697 4.283H9.60597C10.464 4.295 10.686 4.35 10.998 4.429C11.626 4.579 11.638 4.986 11.583 6.372C11.567 6.768 11.55 7.214 11.55 7.739C11.55 7.851 11.545 7.976 11.545 8.103C11.526 8.814 11.501 9.615 12.003 9.944C12.0681 9.98456 12.1433 10.006 12.22 10.006C12.394 10.006 12.915 10.006 14.328 7.581C14.948 6.51 15.428 5.247 15.461 5.152C15.489 5.099 15.573 4.95 15.675 4.89C15.7475 4.85139 15.8288 4.83211 15.911 4.834H19.306C19.676 4.834 19.927 4.89 19.976 5.03C20.058 5.257 19.96 5.95 18.41 8.046C18.149 8.395 17.92 8.697 17.719 8.961C16.314 10.805 16.314 10.898 17.802 12.298Z" fill="#1D1D1D"/>
</g>
<defs>
<clipPath id="clip0_83_249">
<rect width="20" height="20" fill="white"/>
</clipPath>
</defs>
</svg>
