<svg width="22" height="22" viewBox="0 0 22 22" fill="none" xmlns="http://www.w3.org/2000/svg">
<path d="M8.8 14.1429L14.509 11L8.8 7.85714V14.1429ZM21.516 5.94C21.659 6.43238 21.758 7.09238 21.824 7.93047C21.901 8.76857 21.934 9.49143 21.934 10.12L22 11C22 13.2943 21.824 14.981 21.516 16.06C21.241 17.0029 20.603 17.6105 19.613 17.8724C19.096 18.0086 18.15 18.1029 16.698 18.1657C15.268 18.239 13.959 18.2705 12.749 18.2705L11 18.3333C6.391 18.3333 3.52 18.1657 2.387 17.8724C1.397 17.6105 0.759 17.0029 0.484 16.06C0.341 15.5676 0.242 14.9076 0.176 14.0695C0.0990001 13.2314 0.0659999 12.5086 0.0659999 11.88L0 11C0 8.70571 0.176 7.01905 0.484 5.94C0.759 4.99714 1.397 4.38952 2.387 4.12762C2.904 3.99143 3.85 3.89714 5.302 3.83428C6.732 3.76095 8.041 3.72952 9.251 3.72952L11 3.66666C15.609 3.66666 18.48 3.83428 19.613 4.12762C20.603 4.38952 21.241 4.99714 21.516 5.94Z" fill="#1D1D1D"/>
</svg>
