<svg width="24" height="24" viewBox="0 0 24 24" fill="none" xmlns="http://www.w3.org/2000/svg">
<path d="M13.7357 13.7357C12.3214 15.195 12.2186 17.0143 12.0964 21C15.8121 21 18.3771 20.9871 19.7014 19.7014C20.9871 18.3771 21 15.69 21 12.0964C17.0143 12.225 15.195 12.3214 13.7357 13.7357ZM3 12.0964C3 15.69 3.01286 18.3771 4.29857 19.7014C5.62286 20.9871 8.18786 21 11.9036 21C11.775 17.0143 11.6786 15.195 10.2643 13.7357C8.805 12.3214 6.98571 12.2186 3 12.0964ZM11.9036 3C8.19429 3 5.62286 3.01286 4.29857 4.29857C3.01286 5.62286 3 8.31 3 11.9036C6.98571 11.775 8.805 11.6786 10.2643 10.2643C11.6786 8.805 11.7814 6.98571 11.9036 3ZM13.7357 10.2643C12.3214 8.805 12.2186 6.98571 12.0964 3C15.8121 3 18.3771 3.01286 19.7014 4.29857C20.9871 5.62286 21 8.31 21 11.9036C17.0143 11.775 15.195 11.6786 13.7357 10.2643Z" fill="#1D1D1D"/>
<path d="M21 12.0964V11.9036C17.0143 11.775 15.195 11.6786 13.7357 10.2643C12.3214 8.805 12.2186 6.98571 12.0964 3H11.9036C11.775 6.98571 11.6786 8.805 10.2643 10.2643C8.805 11.6786 6.98571 11.7814 3 11.9036V12.0964C6.98571 12.225 8.805 12.3214 10.2643 13.7357C11.6786 15.195 11.7814 17.0143 11.9036 21H12.0964C12.225 17.0143 12.3214 15.195 13.7357 13.7357C15.195 12.3214 17.0143 12.2186 21 12.0964Z" fill="white"/>
</svg>
