<svg width="82" height="91" viewBox="0 0 82 91" fill="none" xmlns="http://www.w3.org/2000/svg">
<path d="M38 41L38.987 40.8391L38.9821 40.8089L38.9753 40.7792L38 41ZM76.5 0L69.6055 9.26277L81.0745 10.6022L76.5 0ZM39.3098 42.8194L38.987 40.8391L37.013 41.1609L37.3359 43.1412L39.3098 42.8194ZM38.9753 40.7792L37.6512 34.9312L35.7006 35.3729L37.0247 41.2208L38.9753 40.7792ZM6.13483 41.0719L6.68708 44.4468L8.66083 44.1238L8.10858 40.7489L6.13483 41.0719ZM24.0293 61.9127L33.4375 63.5209L33.7745 61.5495L24.3663 59.9413L24.0293 61.9127ZM73.5997 33.4548L76.4492 9.05524L74.4628 8.82324L71.6132 33.2228L73.5997 33.4548ZM6.68708 44.4468C8.14778 53.3733 15.1134 60.3886 24.0293 61.9127L24.3663 59.9413C16.2919 58.561 9.98367 52.2078 8.66083 44.1238L6.68708 44.4468ZM13.4962 24.8432C7.99139 28.2708 5.08762 34.6723 6.13483 41.0719L8.10858 40.7489C7.19177 35.1462 9.73397 29.5418 14.5534 26.541L13.4962 24.8432ZM33.4375 63.5209C52.9671 66.8593 71.3014 53.134 73.5997 33.4548L71.6132 33.2228C69.4478 51.7635 52.1742 64.6948 33.7745 61.5495L33.4375 63.5209ZM37.6512 34.9312C35.2116 24.1562 22.8746 19.0039 13.4962 24.8432L14.5534 26.541C22.7639 21.4288 33.5648 25.9396 35.7006 35.3729L37.6512 34.9312ZM37.3359 43.1412C41.0905 66.1697 24.2125 87.4328 0.932737 89.0023L1.06726 90.9977C25.5233 89.349 43.2542 67.0115 39.3098 42.8194L37.3359 43.1412Z" fill="#A6DB4B"/>
</svg>
