<svg width="12" height="8" viewBox="0 0 12 8" fill="none" xmlns="http://www.w3.org/2000/svg">
<path d="M6.71027 7.6625L11.7062 1.95767C11.7993 1.85129 11.8732 1.72499 11.9236 1.586C11.974 1.447 12 1.29803 12 1.14758C12 0.843741 11.8943 0.552344 11.7062 0.337496C11.613 0.231114 11.5024 0.146727 11.3807 0.0891533C11.2589 0.0315797 11.1285 0.00194768 10.9967 0.00194767C10.7307 0.00194766 10.4755 0.122648 10.2873 0.337496L6.00085 5.24365L1.71438 0.337496C1.6215 0.230555 1.51099 0.145673 1.38923 0.0877481C1.26747 0.0298227 1.13687 -4.74842e-07 1.00497 -4.80608e-07C0.873067 -4.86374e-07 0.742469 0.0298227 0.620709 0.087748C0.498951 0.145673 0.388442 0.230555 0.295555 0.337496C0.201904 0.443563 0.127569 0.569755 0.0768423 0.708793C0.0261154 0.84783 -4.35786e-08 0.996961 -5.01624e-08 1.14758C-5.67463e-08 1.2982 0.0261154 1.44733 0.0768422 1.58637C0.127569 1.72541 0.201904 1.8516 0.295555 1.95767L5.29144 7.6625C5.38432 7.76944 5.49483 7.85433 5.61659 7.91225C5.73835 7.97018 5.86895 8 6.00085 8C6.13275 8 6.26335 7.97018 6.38511 7.91225C6.50687 7.85433 6.61738 7.76944 6.71027 7.6625Z" fill="#1D1D1D"/>
</svg>
