<svg width="12" height="18" viewBox="0 0 12 18" fill="none" xmlns="http://www.w3.org/2000/svg">
<path d="M11.4938 7.9346L2.9365 0.440774C2.77693 0.301032 2.58749 0.190182 2.379 0.114554C2.17051 0.0389258 1.94704 0 1.72137 0C1.26561 0 0.828517 0.158551 0.506244 0.440774C0.346671 0.580517 0.22009 0.746416 0.13373 0.928998C0.0473696 1.11158 0.00292158 1.30727 0.00292158 1.5049C0.00292158 1.90402 0.183972 2.2868 0.506244 2.56902L7.86548 8.99872L0.506244 15.4284C0.345833 15.5678 0.218511 15.7335 0.131623 15.9162C0.0447347 16.0988 0 16.2947 0 16.4925C0 16.6904 0.0447347 16.8863 0.131623 17.0689C0.218511 17.2516 0.345833 17.4173 0.506244 17.5567C0.665346 17.6971 0.854634 17.8086 1.06319 17.8847C1.27175 17.9608 1.49544 18 1.72137 18C1.94731 18 2.171 17.9608 2.37956 17.8847C2.58811 17.8086 2.7774 17.6971 2.9365 17.5567L11.4938 10.0628C11.6542 9.92352 11.7815 9.75775 11.8684 9.57511C11.9553 9.39247 12 9.19658 12 8.99872C12 8.80087 11.9553 8.60497 11.8684 8.42233C11.7815 8.23969 11.6542 8.07393 11.4938 7.9346Z" fill="white"/>
</svg>
