<svg width="12" height="18" viewBox="0 0 12 18" fill="none" xmlns="http://www.w3.org/2000/svg">
<path d="M0.506246 7.9346L9.0635 0.440774C9.22307 0.301032 9.41251 0.190182 9.621 0.114554C9.82949 0.0389258 10.053 0 10.2786 0C10.7344 0 11.1715 0.158551 11.4938 0.440774C11.6533 0.580517 11.7799 0.746416 11.8663 0.928998C11.9526 1.11158 11.9971 1.30727 11.9971 1.5049C11.9971 1.90402 11.816 2.2868 11.4938 2.56902L4.13452 8.99872L11.4938 15.4284C11.6542 15.5678 11.7815 15.7335 11.8684 15.9162C11.9553 16.0988 12 16.2947 12 16.4925C12 16.6904 11.9553 16.8863 11.8684 17.0689C11.7815 17.2516 11.6542 17.4173 11.4938 17.5567C11.3347 17.6971 11.1454 17.8086 10.9368 17.8847C10.7283 17.9608 10.5046 18 10.2786 18C10.0527 18 9.829 17.9608 9.62044 17.8847C9.41189 17.8086 9.2226 17.6971 9.0635 17.5567L0.506246 10.0628C0.345834 9.92352 0.218509 9.75775 0.13162 9.57511C0.044733 9.39247 0 9.19658 0 8.99872C0 8.80087 0.044733 8.60497 0.13162 8.42233C0.218509 8.23969 0.345834 8.07393 0.506246 7.9346Z" fill="#5B5B5B"/>
</svg>
